SplineFontDB: 3.0
FontName: Latte-Bold
FullName: Latte Bold
FamilyName: Latte
Weight: Bold
Copyright: Copyright (c) 2016 by Guillaume Litaudon (www.guillaumelitaudon.fr) with Reserved Font Name "Latte".\nThis Font Software is licensed under the SIL Open Font License, Version 1.1.\n\nLatte is a variation of Carlito.\nCarlito is Copyright (c) 2010-2013 by tyPoland Lukasz Dziedzic with Reserved Font Name "Carlito". Licensed under the SIL Open Font License, Version 1.1.

StartChar: .notdef
Encoding: 1114112 -1 0
Width: 1038
GlyphClass: 2
Flags: MW
LayerCount: 2
Fore
SplineSet
229 1109 m 1,0,1
 360 1214 360 1214 524 1214 c 0,2,3
 663 1214 663 1214 742 1143 c 0,4,5
 820 1073 820 1073 820 956 c 0,6,7
 820 828 820 828 729 750 c 0,8,9
 706 730 706 730 684 712 c 0,10,11
 630 668 630 668 623 639 c 2,12,-1
 601 548 l 1,13,-1
 427 548 l 1,14,-1
 409 657 l 2,15,16
 407 667 407 667 407 677 c 0,17,18
 410 748 410 748 488 804 c 0,19,20
 546 845 546 845 565 877 c 0,21,22
 584 908 584 908 584 940 c 0,23,24
 584 1010 584 1010 501 1010 c 0,25,26
 448 1010 448 1010 418.5 996.5 c 128,-1,27
 389 983 389 983 376 977 c 128,-1,28
 363 971 363 971 337.5 971 c 128,-1,29
 312 971 312 971 296 1001 c 1,30,-1
 229 1109 l 1,0,1
378.5 253.5 m 128,-1,32
 368 278 368 278 368 306 c 0,33,34
 368 338 368 338 378 360 c 0,35,36
 390 386 390 386 408 404 c 0,37,38
 448 444 448 444 490 444 c 0,39,40
 490 444 490 444 491 444 c 0,41,42
 534 443 534 443 559 432.5 c 128,-1,43
 584 422 584 422 602 404 c 0,44,45
 642 364 642 364 642 321 c 0,46,47
 642 276 642 276 632 254 c 0,48,49
 620 228 620 228 602 210 c 0,50,51
 562 170 562 170 520 170 c 0,52,53
 520 170 520 170 519 170 c 0,54,55
 476 171 476 171 451 181.5 c 128,-1,56
 426 192 426 192 407.5 210.5 c 128,-1,31
 389 229 389 229 378.5 253.5 c 128,-1,32
40 1398 m 1,57,-1
 1023 1398 l 1,58,-1
 1023 0 l 1,59,-1
 40 0 l 1,60,-1
 40 1398 l 1,57,-1
105 69 m 1,61,-1
 949 69 l 1,62,-1
 949 1329 l 1,63,-1
 105 1329 l 1,64,-1
 105 69 l 1,61,-1
EndSplineSet
Validated: 1
EndChar

StartChar: glyph1
Encoding: 0 -1 1
AltUni2: 000000.ffffffff.0
Width: 0
Flags: MW
LayerCount: 2
Fore
SplineSet
0.5 -339 m 128,-1,1
 -17 -339 -17 -339 -17 -321.5 c 128,-1,2
 -17 -304 -17 -304 0.5 -304 c 128,-1,3
 18 -304 18 -304 18 -321.5 c 128,-1,0
 18 -339 18 -339 0.5 -339 c 128,-1,1
EndSplineSet
Validated: 1
EndChar

StartChar: A
Encoding: 65 65 3
Width: 1241
GlyphClass: 2
Flags: MW
LayerCount: 2
Fore
SplineSet
1240 0 m 1,0,-1
 1038 0 l 2,1,2
 974 0 974 0 951 58 c 1,3,-1
 867 319 l 1,4,-1
 378 319 l 1,5,-1
 295 59 l 2,6,7
 287 37 287 37 264.5 18.5 c 128,-1,8
 242 0 242 0 209 0 c 2,9,-1
 4 0 l 1,10,-1
 488 1328 l 1,11,-1
 756 1328 l 1,12,-1
 1240 0 l 1,0,-1
437 503 m 1,13,-1
 807 503 l 1,14,-1
 672 923 l 1,15,16
 647 987 647 987 621 1086 c 1,17,18
 601 1002 601 1002 572 922 c 1,19,-1
 437 503 l 1,13,-1
EndSplineSet
Validated: 1
Substitution2: "sous-table 'sups' Exposant lookups25" A.superior
Position2: "sous-table 'cpsp' Chasses pour composition en capitales lookups0" dx=40 dy=0 dh=80 dv=0
EndChar

StartChar: Aogonek
Encoding: 260 260 4
Width: 1241
GlyphClass: 2
Flags: MW
LayerCount: 2
Fore
SplineSet
1178 0 m 1,0,1
 1085 -52 1085 -52 1085 -118 c 128,-1,2
 1085 -184 1085 -184 1150 -184 c 0,3,4
 1183 -184 1183 -184 1197.5 -177.5 c 128,-1,5
 1212 -171 1212 -171 1223 -171 c 128,-1,6
 1234 -171 1234 -171 1241 -188 c 2,7,-1
 1279 -282 l 1,8,9
 1204 -331 1204 -331 1101.5 -331 c 128,-1,10
 999 -331 999 -331 947.5 -291 c 128,-1,11
 896 -251 896 -251 896 -188 c 0,12,13
 896 -83 896 -83 1028 0 c 1,14,15
 972 4 972 4 951 58 c 1,16,-1
 867 319 l 1,17,-1
 378 319 l 1,18,-1
 295 59 l 2,19,20
 287 37 287 37 264.5 18.5 c 128,-1,21
 242 0 242 0 209 0 c 2,22,-1
 4 0 l 1,23,-1
 488 1328 l 1,24,-1
 756 1328 l 1,25,-1
 1240 0 l 1,26,-1
 1178 0 l 1,0,1
437 503 m 1,27,-1
 807 503 l 1,28,-1
 672 923 l 1,29,30
 647 987 647 987 621 1086 c 1,31,32
 601 1002 601 1002 572 922 c 1,33,-1
 437 503 l 1,27,-1
EndSplineSet
Validated: 1
Position2: "sous-table 'cpsp' Chasses pour composition en capitales lookups0" dx=40 dy=0 dh=80 dv=0
EndChar

StartChar: AE
Encoding: 198 198 5
Width: 1588
GlyphClass: 2
Flags: MW
LayerCount: 2
Fore
SplineSet
589 1328 m 1,0,-1
 1522 1328 l 1,1,-1
 1522 1119 l 1,2,-1
 956 1119 l 1,3,-1
 996 768 l 1,4,-1
 1405 768 l 1,5,-1
 1405 567 l 1,6,-1
 1019 567 l 1,7,-1
 1059 209 l 1,8,-1
 1522 209 l 1,9,-1
 1522 0 l 1,10,-1
 834 0 l 1,11,-1
 798 319 l 1,12,-1
 378 319 l 1,13,-1
 271 59 l 1,14,15
 241 0 241 0 173 0 c 2,16,-1
 -26 0 l 1,17,-1
 589 1328 l 1,0,-1
454 503 m 1,18,-1
 777 503 l 1,19,-1
 707 1128 l 1,20,21
 677 1032 677 1032 643 962 c 1,22,-1
 454 503 l 1,18,-1
EndSplineSet
Validated: 1
Position2: "sous-table 'cpsp' Chasses pour composition en capitales lookups0" dx=40 dy=0 dh=80 dv=0
EndChar

StartChar: B
Encoding: 66 66 6
Width: 1148
GlyphClass: 2
Flags: MW
LayerCount: 2
Fore
SplineSet
570 1328 m 2,0,1
 1048 1328 1048 1328 1048 974 c 0,2,3
 1048 825 1048 825 926 738 c 0,4,5
 883 707 883 707 824 686 c 1,6,7
 1081 624 1081 624 1081 393 c 0,8,9
 1081 219 1081 219 960 112 c 0,10,11
 833 0 833 0 612 0 c 2,12,-1
 119 0 l 1,13,-1
 119 1328 l 1,14,-1
 570 1328 l 2,0,1
823 399 m 0,15,16
 823 577 823 577 606 577 c 2,17,-1
 382 577 l 1,18,-1
 382 204 l 1,19,-1
 607 204 l 2,20,21
 779 204 779 204 813 326 c 0,22,23
 823 361 823 361 823 399 c 0,15,16
382 758 m 1,24,-1
 555 758 l 2,25,26
 666 758 666 758 726 800.5 c 128,-1,27
 786 843 786 843 786 943 c 128,-1,28
 786 1043 786 1043 734 1084.5 c 128,-1,29
 682 1126 682 1126 570 1126 c 2,30,-1
 382 1126 l 1,31,-1
 382 758 l 1,24,-1
EndSplineSet
Validated: 1
Substitution2: "sous-table 'sups' Exposant lookups25" B.superior
Position2: "sous-table 'cpsp' Chasses pour composition en capitales lookups0" dx=40 dy=0 dh=80 dv=0
EndChar

StartChar: C
Encoding: 67 67 7
Width: 1084
GlyphClass: 2
Flags: MW
LayerCount: 2
Fore
SplineSet
1063 193 m 1,0,1
 915 -14 915 -14 625 -14 c 0,2,3
 358 -14 358 -14 198 178 c 0,4,5
 42 365 42 365 42 665 c 0,6,7
 42 964 42 964 208 1153 c 0,8,9
 375 1343 375 1343 639 1343 c 0,10,11
 895 1343 895 1343 1048 1170 c 1,12,-1
 960 1047 l 1,13,14
 936 1018 936 1018 907 1018 c 256,15,16
 886 1018 886 1018 866.5 1034 c 128,-1,17
 847 1050 847 1050 818 1069 c 0,18,19
 742 1120 742 1120 653 1120 c 128,-1,20
 564 1120 564 1120 504 1089.5 c 128,-1,21
 444 1059 444 1059 401 1000 c 0,22,23
 311 878 311 878 311 665 c 0,24,25
 311 457 311 457 408 328 c 0,26,27
 498 208 498 208 641 208 c 0,28,29
 725 208 725 208 765 224 c 0,30,31
 832 251 832 251 880 303 c 1,32,33
 904 322 904 322 923.5 322 c 128,-1,34
 943 322 943 322 958 306 c 2,35,-1
 1063 193 l 1,0,1
EndSplineSet
Validated: 1
Substitution2: "sous-table 'sups' Exposant lookups25" C.superior
Position2: "sous-table 'cpsp' Chasses pour composition en capitales lookups0" dx=40 dy=0 dh=80 dv=0
EndChar

StartChar: Ccedilla
Encoding: 199 199 8
Width: 1084
GlyphClass: 2
Flags: MW
LayerCount: 2
Fore
SplineSet
682 -56 m 1,0,1
 844 -93 844 -93 844 -201 c 0,2,3
 844 -265 844 -265 778 -305 c 0,4,5
 713 -344 713 -344 603 -344 c 0,6,7
 530 -344 530 -344 462 -324 c 1,8,-1
 485 -246 l 1,9,10
 491 -222 491 -222 509.5 -222 c 128,-1,11
 528 -222 528 -222 543.5 -228 c 128,-1,12
 559 -234 559 -234 587.5 -234 c 128,-1,13
 616 -234 616 -234 630.5 -223 c 128,-1,14
 645 -212 645 -212 645 -197 c 0,15,16
 645 -171 645 -171 612.5 -159.5 c 128,-1,17
 580 -148 580 -148 508 -138 c 1,18,-1
 550 -10 l 1,19,20
 316 16 316 16 178 204 c 0,21,22
 42 388 42 388 42 665 c 0,23,24
 42 964 42 964 208 1153 c 0,25,26
 375 1343 375 1343 639 1343 c 0,27,28
 895 1343 895 1343 1048 1170 c 1,29,-1
 960 1047 l 1,30,31
 936 1018 936 1018 907 1018 c 256,32,33
 886 1018 886 1018 866 1034 c 128,-1,34
 846 1050 846 1050 818 1069 c 0,35,36
 743 1120 743 1120 653 1120 c 0,37,38
 564 1120 564 1120 504 1090 c 0,39,40
 444 1058 444 1058 401 1000 c 0,41,42
 311 879 311 879 311 665 c 0,43,44
 312 454 312 454 408 328 c 0,45,46
 499 208 499 208 641 208 c 0,47,48
 726 208 726 208 765 224 c 0,49,50
 831 251 831 251 880 303 c 1,51,52
 904 322 904 322 923.5 322 c 128,-1,53
 943 322 943 322 958 306 c 2,54,-1
 1063 193 l 1,55,56
 932 11 932 11 694 -10 c 1,57,-1
 682 -56 l 1,0,1
EndSplineSet
Validated: 1
Position2: "sous-table 'cpsp' Chasses pour composition en capitales lookups0" dx=40 dy=0 dh=80 dv=0
EndChar

StartChar: D
Encoding: 68 68 9
Width: 1291
GlyphClass: 2
Flags: MW
LayerCount: 2
Fore
SplineSet
1244 664 m 0,0,1
 1244 519 1244 519 1198 396.5 c 128,-1,2
 1152 274 1152 274 1068 186 c 0,3,4
 889 0 889 0 600 0 c 2,5,-1
 116 0 l 1,6,-1
 116 1328 l 1,7,-1
 600 1328 l 2,8,9
 889 1328 889 1328 1068 1142 c 0,10,11
 1244 958 1244 958 1244 664 c 0,0,1
977 664 m 0,12,13
 977 771 977 771 951 855 c 128,-1,14
 925 939 925 939 876 998 c 0,15,16
 776 1120 776 1120 600 1120 c 2,17,-1
 380 1120 l 1,18,-1
 380 209 l 1,19,-1
 600 209 l 2,20,21
 777 209 777 209 876 330 c 0,22,23
 977 452 977 452 977 664 c 0,12,13
EndSplineSet
Validated: 1
Substitution2: "sous-table 'sups' Exposant lookups25" D.superior
Position2: "sous-table 'cpsp' Chasses pour composition en capitales lookups0" dx=40 dy=0 dh=80 dv=0
EndChar

StartChar: E
Encoding: 69 69 11
Width: 999
GlyphClass: 2
Flags: MW
LayerCount: 2
Fore
SplineSet
928 1328 m 1,0,-1
 928 1119 l 1,1,-1
 382 1119 l 1,2,-1
 382 768 l 1,3,-1
 807 768 l 1,4,-1
 807 567 l 1,5,-1
 382 567 l 1,6,-1
 382 209 l 1,7,-1
 929 209 l 1,8,-1
 928 0 l 1,9,-1
 118 0 l 1,10,-1
 118 1328 l 1,11,-1
 928 1328 l 1,0,-1
EndSplineSet
Validated: 1
Substitution2: "sous-table 'sups' Exposant lookups25" E.superior
Position2: "sous-table 'cpsp' Chasses pour composition en capitales lookups0" dx=40 dy=0 dh=80 dv=0
EndChar

StartChar: Eogonek
Encoding: 280 280 12
Width: 999
GlyphClass: 2
Flags: MW
LayerCount: 2
Fore
SplineSet
842 0 m 1,0,1
 749 -52 749 -52 749 -118 c 128,-1,2
 749 -184 749 -184 814 -184 c 0,3,4
 847 -184 847 -184 861.5 -177.5 c 128,-1,5
 876 -171 876 -171 887 -171 c 128,-1,6
 898 -171 898 -171 905 -188 c 2,7,-1
 943 -282 l 1,8,9
 868 -331 868 -331 765.5 -331 c 128,-1,10
 663 -331 663 -331 611.5 -291 c 128,-1,11
 560 -251 560 -251 560 -188 c 0,12,13
 560 -83 560 -83 692 0 c 1,14,-1
 118 0 l 1,15,-1
 118 1328 l 1,16,-1
 928 1328 l 1,17,-1
 928 1119 l 1,18,-1
 382 1119 l 1,19,-1
 382 768 l 1,20,-1
 807 768 l 1,21,-1
 807 567 l 1,22,-1
 382 567 l 1,23,-1
 382 209 l 1,24,-1
 929 209 l 1,25,-1
 928 0 l 1,26,-1
 842 0 l 1,0,1
EndSplineSet
Validated: 1
Position2: "sous-table 'cpsp' Chasses pour composition en capitales lookups0" dx=40 dy=0 dh=80 dv=0
EndChar

StartChar: F
Encoding: 70 70 13
Width: 940
GlyphClass: 2
Flags: MW
LayerCount: 2
Fore
SplineSet
890 1328 m 1,0,-1
 890 1119 l 1,1,-1
 373 1119 l 1,2,-1
 373 743 l 1,3,-1
 806 743 l 1,4,-1
 806 534 l 1,5,-1
 373 534 l 1,6,-1
 373 0 l 1,7,-1
 109 0 l 1,8,-1
 109 1328 l 1,9,-1
 890 1328 l 1,0,-1
EndSplineSet
Validated: 1
Substitution2: "sous-table 'sups' Exposant lookups25" F.superior
Position2: "sous-table 'cpsp' Chasses pour composition en capitales lookups0" dx=40 dy=0 dh=80 dv=0
EndChar

StartChar: G
Encoding: 71 71 14
Width: 1305
GlyphClass: 2
Flags: MW
LayerCount: 2
Fore
SplineSet
764 193 m 0,0,1
 870 193 870 193 978 244 c 1,2,-1
 978 476 l 1,3,-1
 825 476 l 2,4,5
 801 476 801 476 786.5 490 c 128,-1,6
 772 504 772 504 772 524 c 2,7,-1
 772 672 l 1,8,-1
 1216 672 l 1,9,-1
 1216 128 l 1,10,11
 1027 -14 1027 -14 763 -14 c 0,12,13
 445 -14 445 -14 248 178 c 0,14,15
 54 366 54 366 54 665 c 0,16,17
 54 966 54 966 240 1153 c 0,18,19
 428 1343 428 1343 738 1343 c 0,20,21
 1039 1343 1039 1343 1218 1168 c 1,22,-1
 1143 1050 l 2,23,24
 1126 1022 1126 1022 1097.5 1015.5 c 128,-1,25
 1069 1009 1069 1009 1037 1028.5 c 128,-1,26
 1005 1048 1005 1048 974 1064.5 c 128,-1,27
 943 1081 943 1081 908 1094 c 0,28,29
 832 1120 832 1120 734 1120 c 128,-1,30
 636 1120 636 1120 561 1087.5 c 128,-1,31
 486 1055 486 1055 433 996 c 0,32,33
 323 874 323 874 323 665 c 0,34,35
 323 443 323 443 442 316 c 0,36,37
 557 193 557 193 764 193 c 0,0,1
EndSplineSet
Validated: 1
Substitution2: "sous-table 'sups' Exposant lookups25" G.superior
Position2: "sous-table 'cpsp' Chasses pour composition en capitales lookups0" dx=40 dy=0 dh=80 dv=0
EndChar

StartChar: H
Encoding: 72 72 15
Width: 1292
GlyphClass: 2
Flags: MW
LayerCount: 2
Fore
SplineSet
1179 0 m 1,0,-1
 915 0 l 1,1,-1
 915 575 l 1,2,-1
 377 575 l 1,3,-1
 377 0 l 1,4,-1
 113 0 l 1,5,-1
 113 1328 l 1,6,-1
 377 1328 l 1,7,-1
 377 761 l 1,8,-1
 915 761 l 1,9,-1
 915 1328 l 1,10,-1
 1179 1328 l 1,11,-1
 1179 0 l 1,0,-1
EndSplineSet
Validated: 1
Substitution2: "sous-table 'sups' Exposant lookups25" H.superior
Position2: "sous-table 'cpsp' Chasses pour composition en capitales lookups0" dx=40 dy=0 dh=80 dv=0
EndChar

StartChar: Hbar
Encoding: 294 294 16
Width: 1347
GlyphClass: 2
Flags: MW
LayerCount: 2
Fore
SplineSet
1206 1102 m 1,0,-1
 1326 1102 l 1,1,-1
 1326 949 l 1,2,-1
 1206 949 l 1,3,-1
 1206 0 l 1,4,-1
 942 0 l 1,5,-1
 942 575 l 1,6,-1
 404 575 l 1,7,-1
 404 0 l 1,8,-1
 140 0 l 1,9,-1
 140 949 l 1,10,-1
 21 949 l 1,11,-1
 21 1102 l 1,12,-1
 140 1102 l 1,13,-1
 140 1328 l 1,14,-1
 404 1328 l 1,15,-1
 404 1102 l 1,16,-1
 942 1102 l 1,17,-1
 942 1328 l 1,18,-1
 1206 1328 l 1,19,-1
 1206 1102 l 1,0,-1
404 761 m 1,20,-1
 942 761 l 1,21,-1
 942 949 l 1,22,-1
 404 949 l 1,23,-1
 404 761 l 1,20,-1
EndSplineSet
Validated: 1
Position2: "sous-table 'cpsp' Chasses pour composition en capitales lookups0" dx=40 dy=0 dh=80 dv=0
EndChar

StartChar: I
Encoding: 73 73 17
Width: 546
GlyphClass: 2
Flags: MW
LayerCount: 2
Fore
SplineSet
405 0 m 1,0,-1
 141 0 l 1,1,-1
 141 1328 l 1,2,-1
 405 1328 l 1,3,-1
 405 0 l 1,0,-1
EndSplineSet
Validated: 1
Substitution2: "sous-table 'sups' Exposant lookups25" I.superior
Position2: "sous-table 'cpsp' Chasses pour composition en capitales lookups0" dx=40 dy=0 dh=80 dv=0
EndChar

StartChar: Iogonek
Encoding: 302 302 18
Width: 546
GlyphClass: 2
Flags: MW
LayerCount: 2
Fore
SplineSet
365 0 m 1,0,1
 272 -52 272 -52 272 -118 c 128,-1,2
 272 -184 272 -184 337 -184 c 0,3,4
 370 -184 370 -184 384.5 -177.5 c 128,-1,5
 399 -171 399 -171 410 -171 c 128,-1,6
 421 -171 421 -171 428 -188 c 2,7,-1
 466 -282 l 1,8,9
 391 -331 391 -331 288.5 -331 c 128,-1,10
 186 -331 186 -331 134.5 -291 c 128,-1,11
 83 -251 83 -251 83 -188 c 0,12,13
 83 -83 83 -83 215 0 c 1,14,-1
 141 0 l 1,15,-1
 141 1328 l 1,16,-1
 405 1328 l 1,17,-1
 405 0 l 1,18,-1
 365 0 l 1,0,1
EndSplineSet
Validated: 1
Position2: "sous-table 'cpsp' Chasses pour composition en capitales lookups0" dx=40 dy=0 dh=80 dv=0
EndChar

StartChar: J
Encoding: 74 74 19
Width: 678
GlyphClass: 2
Flags: MW
LayerCount: 2
Fore
SplineSet
364 20 m 0,0,1
 291 -14 291 -14 196 -14 c 128,-1,2
 101 -14 101 -14 14 10 c 1,3,-1
 28 166 l 2,4,5
 33 213 33 213 84 213 c 0,6,7
 98 213 98 213 117 207 c 128,-1,8
 136 201 136 201 170.5 201 c 128,-1,9
 205 201 205 201 234 215.5 c 128,-1,10
 263 230 263 230 282 262 c 0,11,12
 320 326 320 326 320 468 c 2,13,-1
 320 1328 l 1,14,-1
 582 1328 l 1,15,-1
 582 475 l 2,16,17
 582 122 582 122 364 20 c 0,0,1
EndSplineSet
Validated: 1
Substitution2: "sous-table 'sups' Exposant lookups25" J.superior
Position2: "sous-table 'cpsp' Chasses pour composition en capitales lookups0" dx=40 dy=0 dh=80 dv=0
EndChar

StartChar: K
Encoding: 75 75 20
Width: 1120
GlyphClass: 2
Flags: MW
LayerCount: 2
Fore
SplineSet
359 777 m 1,0,-1
 401 777 l 2,1,2
 461 777 461 777 486 817 c 1,3,-1
 747 1274 l 1,4,5
 787 1328 787 1328 860 1328 c 2,6,-1
 1089 1328 l 1,7,-1
 747 781 l 1,8,9
 710 728 710 728 668 706 c 1,10,11
 724 686 724 686 768 621 c 1,12,-1
 1116 0 l 1,13,-1
 883 0 l 2,14,15
 814 0 814 0 781 49 c 1,16,-1
 516 533 l 1,17,18
 487 579 487 579 424 579 c 2,19,-1
 359 579 l 1,20,-1
 359 0 l 1,21,-1
 96 0 l 1,22,-1
 96 1328 l 1,23,-1
 359 1328 l 1,24,-1
 359 777 l 1,0,-1
EndSplineSet
Validated: 1
Substitution2: "sous-table 'sups' Exposant lookups25" K.superior
Position2: "sous-table 'cpsp' Chasses pour composition en capitales lookups0" dx=40 dy=0 dh=80 dv=0
EndChar

StartChar: L
Encoding: 76 76 21
Width: 866
GlyphClass: 2
Flags: MW
LayerCount: 2
Fore
SplineSet
371 216 m 1,0,-1
 832 216 l 1,1,-1
 832 0 l 1,2,-1
 108 0 l 1,3,-1
 108 1328 l 1,4,-1
 371 1328 l 1,5,-1
 371 216 l 1,0,-1
EndSplineSet
Validated: 1
Substitution2: "sous-table 'sups' Exposant lookups25" L.superior
Position2: "sous-table 'cpsp' Chasses pour composition en capitales lookups0" dx=40 dy=0 dh=80 dv=0
EndChar

StartChar: Lslash
Encoding: 321 321 22
Width: 886
GlyphClass: 2
Flags: MW
LayerCount: 2
Fore
SplineSet
407 810 m 1,0,-1
 689 972 l 1,1,-1
 689 795 l 2,2,3
 689 758 689 758 659 743 c 1,4,-1
 407 592 l 1,5,-1
 407 216 l 1,6,-1
 868 216 l 1,7,-1
 868 0 l 1,8,-1
 144 0 l 1,9,-1
 144 463 l 1,10,-1
 20 396 l 1,11,-1
 20 577 l 2,12,13
 20 608 20 608 48 624 c 2,14,-1
 144 678 l 1,15,-1
 144 1328 l 1,16,-1
 407 1328 l 1,17,-1
 407 810 l 1,0,-1
EndSplineSet
Validated: 1
Position2: "sous-table 'cpsp' Chasses pour composition en capitales lookups0" dx=40 dy=0 dh=80 dv=0
EndChar

StartChar: M
Encoding: 77 77 24
Width: 1790
GlyphClass: 2
Flags: MW
LayerCount: 2
Fore
SplineSet
363 958 m 1,0,1
 371 890 371 890 371 831 c 2,2,-1
 371 0 l 1,3,-1
 139 0 l 1,4,-1
 139 1328 l 1,5,-1
 338 1328 l 2,6,7
 390 1328 390 1328 404 1315 c 128,-1,8
 418 1302 418 1302 426 1287 c 2,9,-1
 838 567 l 1,10,11
 872 504 872 504 897 436 c 1,12,13
 935 530 935 530 956 569 c 2,14,-1
 1365 1287 l 2,15,16
 1380 1316 1380 1316 1395 1321 c 0,17,18
 1418 1328 1418 1328 1453 1328 c 2,19,-1
 1651 1328 l 1,20,-1
 1651 0 l 1,21,-1
 1420 0 l 1,22,-1
 1420 831 l 2,23,24
 1420 888 1420 888 1426 954 c 1,25,-1
 1007 212 l 1,26,27
 976 154 976 154 916 154 c 2,28,-1
 879 154 l 2,29,30
 818 154 818 154 787 212 c 1,31,-1
 363 958 l 1,0,1
EndSplineSet
Validated: 1
Substitution2: "sous-table 'sups' Exposant lookups25" M.superior
Position2: "sous-table 'cpsp' Chasses pour composition en capitales lookups0" dx=40 dy=0 dh=80 dv=0
EndChar

StartChar: N
Encoding: 78 78 25
Width: 1349
GlyphClass: 2
Flags: MW
LayerCount: 2
Fore
SplineSet
260 1328 m 2,0,1
 307 1328 307 1328 322 1314 c 128,-1,2
 337 1300 337 1300 348 1287 c 2,3,-1
 1002 425 l 1,4,5
 996 491 996 491 996 550 c 2,6,-1
 996 1328 l 1,7,-1
 1227 1328 l 1,8,-1
 1227 0 l 1,9,-1
 1092 0 l 2,10,11
 1038 0 1038 0 1000 45 c 1,12,-1
 348 902 l 1,13,14
 354 840 354 840 354 787 c 2,15,-1
 354 0 l 1,16,-1
 122 0 l 1,17,-1
 122 1328 l 1,18,-1
 260 1328 l 2,0,1
EndSplineSet
Validated: 1
Substitution2: "sous-table 'sups' Exposant lookups25" N.superior
Position2: "sous-table 'cpsp' Chasses pour composition en capitales lookups0" dx=40 dy=0 dh=80 dv=0
EndChar

StartChar: Eng
Encoding: 330 330 26
Width: 1313
GlyphClass: 2
Flags: MW
LayerCount: 2
Fore
SplineSet
843 -150 m 0,0,1
 965 -150 965 -150 965 15 c 2,2,-1
 965 52 l 1,3,-1
 342 902 l 1,4,5
 348 840 348 840 348 787 c 2,6,-1
 348 0 l 1,7,-1
 116 0 l 1,8,-1
 116 1328 l 1,9,-1
 254 1328 l 2,10,11
 301 1328 301 1328 316 1314 c 128,-1,12
 331 1300 331 1300 342 1287 c 1,13,-1
 972 426 l 1,14,15
 966 490 966 490 966 550 c 2,16,-1
 966 1328 l 1,17,-1
 1197 1328 l 1,18,-1
 1197 42 l 2,19,20
 1197 -221 1197 -221 1018 -300 c 0,21,22
 957 -327 957 -327 891 -327 c 0,23,24
 888 -327 888 -327 886 -327 c 0,25,26
 783 -327 783 -327 697 -290 c 1,27,-1
 723 -186 l 1,28,29
 736 -139 736 -139 776 -139 c 0,30,31
 789 -139 789 -139 803 -144.5 c 128,-1,32
 817 -150 817 -150 843 -150 c 0,0,1
EndSplineSet
Validated: 1
Substitution2: "sous-table 'ss03' Style 3 lookups33" Eng.ss03
Substitution2: "sous-table 'ss02' Style 2 lookups31" Eng.ss02
Substitution2: "sous-table 'ss01' Style 1 lookups29" Eng.ss01
Position2: "sous-table 'cpsp' Chasses pour composition en capitales lookups0" dx=40 dy=0 dh=80 dv=0
EndChar

StartChar: O
Encoding: 79 79 27
Width: 1385
GlyphClass: 2
Flags: MW
LayerCount: 2
Fore
SplineSet
1338 664 m 0,0,1
 1338 519 1338 519 1292 394.5 c 128,-1,2
 1246 270 1246 270 1162 179 c 0,3,4
 982 -14 982 -14 694 -14 c 256,5,6
 406 -14 406 -14 226 179 c 0,7,8
 48 370 48 370 48 665 c 128,-1,9
 48 960 48 960 226 1150 c 0,10,11
 408 1343 408 1343 694 1343 c 256,12,13
 981 1343 981 1343 1162 1149 c 0,14,15
 1338 959 1338 959 1338 664 c 0,0,1
1070 664 m 0,16,17
 1070 771 1070 771 1044 855 c 128,-1,18
 1018 939 1018 939 970 998 c 0,19,20
 869 1120 869 1120 694 1120 c 256,21,22
 518 1120 518 1120 418 998 c 0,23,24
 317 876 317 876 317 665 c 0,25,26
 317 452 317 452 418 330 c 0,27,28
 517 210 517 210 694 210 c 256,29,30
 870 210 870 210 970 330 c 0,31,32
 1070 452 1070 452 1070 664 c 0,16,17
EndSplineSet
Validated: 1
Substitution2: "sous-table 'sups' Exposant lookups25" O.superior
Position2: "sous-table 'cpsp' Chasses pour composition en capitales lookups0" dx=40 dy=0 dh=80 dv=0
EndChar

StartChar: Oslash
Encoding: 216 216 28
Width: 1394
GlyphClass: 2
Flags: MW
LayerCount: 2
Fore
SplineSet
1157 1160 m 1,0,1
 1346 969 1346 969 1346 665 c 0,2,3
 1346 370 1346 370 1168 179 c 0,4,5
 989 -14 989 -14 699 -14 c 0,6,7
 532 -14 532 -14 396 54 c 1,8,-1
 336 -33 l 1,9,10
 284 -103 284 -103 193 -103 c 2,11,-1
 90 -103 l 1,12,-1
 261 146 l 1,13,14
 160 238 160 238 104.5 371 c 128,-1,15
 49 504 49 504 49 657 c 0,16,17
 49 805 49 805 96 934 c 0,18,19
 142 1060 142 1060 228 1150 c 0,20,21
 412 1343 412 1343 696 1343 c 0,22,23
 698 1343 698 1343 699 1343 c 0,24,25
 881 1343 881 1343 1028 1260 c 1,26,-1
 1073 1325 l 1,27,28
 1103 1365 1103 1365 1117 1373 c 0,29,30
 1141 1389 1141 1389 1180 1389 c 2,31,-1
 1315 1389 l 1,32,-1
 1157 1160 l 1,0,1
403 352 m 1,33,-1
 896 1068 l 1,34,35
 812 1120 812 1120 711 1120 c 128,-1,36
 610 1120 610 1120 539 1088.5 c 128,-1,37
 468 1057 468 1057 419 998 c 0,38,39
 318 876 318 876 318 672.5 c 128,-1,40
 318 469 318 469 403 352 c 1,33,-1
1011 948 m 1,41,-1
 528 246 l 1,42,43
 601 210 601 210 694 210 c 128,-1,44
 787 210 787 210 857.5 241 c 128,-1,45
 928 272 928 272 977 330 c 0,46,47
 1078 451 1078 451 1078 641 c 128,-1,48
 1078 831 1078 831 1011 948 c 1,41,-1
EndSplineSet
Validated: 1
Position2: "sous-table 'cpsp' Chasses pour composition en capitales lookups0" dx=40 dy=0 dh=80 dv=0
EndChar

StartChar: OE
Encoding: 338 338 29
Width: 1790
GlyphClass: 2
Flags: MW
LayerCount: 2
Fore
SplineSet
982 1183 m 1,0,-1
 982 1328 l 1,1,-1
 1726 1328 l 1,2,-1
 1726 1119 l 1,3,-1
 1215 1119 l 1,4,-1
 1215 768 l 1,5,-1
 1611 768 l 1,6,-1
 1611 567 l 1,7,-1
 1215 567 l 1,8,-1
 1215 209 l 1,9,-1
 1726 209 l 1,10,-1
 1726 0 l 1,11,-1
 982 0 l 1,12,-1
 982 145 l 1,13,14
 829 -14 829 -14 606 -14 c 0,15,16
 354 -14 354 -14 198 179 c 128,-1,17
 42 372 42 372 43 665 c 0,18,19
 44 960 44 960 198 1150 c 0,20,21
 355 1344 355 1344 590 1344 c 0,22,23
 591 1344 591 1344 592 1344 c 0,24,25
 828 1343 828 1343 982 1183 c 1,0,-1
929.5 472.5 m 128,-1,27
 951 558 951 558 951 664.5 c 128,-1,28
 951 771 951 771 929.5 856.5 c 128,-1,29
 908 942 908 942 866 1002 c 0,30,31
 780 1127 780 1127 632 1127 c 0,32,33
 481 1127 481 1127 396 1002 c 0,34,35
 312 879 312 879 312 665 c 0,36,37
 312 334 312 334 496 234 c 0,38,39
 556 202 556 202 631.5 202 c 128,-1,40
 707 202 707 202 766 234.5 c 128,-1,41
 825 267 825 267 866.5 327 c 128,-1,26
 908 387 908 387 929.5 472.5 c 128,-1,27
EndSplineSet
Validated: 33
Position2: "sous-table 'cpsp' Chasses pour composition en capitales lookups0" dx=40 dy=0 dh=80 dv=0
EndChar

StartChar: P
Encoding: 80 80 30
Width: 1090
GlyphClass: 2
Flags: MW
LayerCount: 2
Fore
SplineSet
378 461 m 1,0,-1
 378 0 l 1,1,-1
 115 0 l 1,2,-1
 115 1328 l 1,3,-1
 542 1328 l 2,4,5
 788 1328 788 1328 918 1208 c 0,6,7
 1037 1097 1037 1097 1037 902 c 0,8,9
 1037 590 1037 590 760 494 c 0,10,11
 667 461 667 461 542 461 c 2,12,-1
 378 461 l 1,0,-1
378 665 m 1,13,-1
 542 665 l 2,14,15
 662 665 662 665 718 728.5 c 128,-1,16
 774 792 774 792 774 898.5 c 128,-1,17
 774 1005 774 1005 717 1065.5 c 128,-1,18
 660 1126 660 1126 542 1126 c 2,19,-1
 378 1126 l 1,20,-1
 378 665 l 1,13,-1
EndSplineSet
Validated: 1
Substitution2: "sous-table 'sups' Exposant lookups25" P.superior
Position2: "sous-table 'cpsp' Chasses pour composition en capitales lookups0" dx=40 dy=0 dh=80 dv=0
EndChar

StartChar: Thorn
Encoding: 222 222 31
Width: 1090
GlyphClass: 2
Flags: MW
LayerCount: 2
Fore
SplineSet
379 238 m 1,0,-1
 379 0 l 1,1,-1
 116 0 l 1,2,-1
 116 1328 l 1,3,-1
 379 1328 l 1,4,-1
 379 1104 l 1,5,-1
 542 1104 l 2,6,7
 791 1104 791 1104 920 983 c 0,8,9
 1039 871 1039 871 1039 680 c 0,10,11
 1039 475 1039 475 916 360 c 0,12,13
 786 238 786 238 542 238 c 2,14,-1
 379 238 l 1,0,-1
379 441 m 1,15,-1
 542 441 l 2,16,17
 663 441 663 441 719.5 504.5 c 128,-1,18
 776 568 776 568 776 674 c 128,-1,19
 776 780 776 780 718.5 841 c 128,-1,20
 661 902 661 902 542 902 c 2,21,-1
 379 902 l 1,22,-1
 379 441 l 1,15,-1
EndSplineSet
Validated: 1
Position2: "sous-table 'cpsp' Chasses pour composition en capitales lookups0" dx=40 dy=0 dh=80 dv=0
EndChar

StartChar: Q
Encoding: 81 81 32
Width: 1405
GlyphClass: 2
Flags: MW
LayerCount: 2
Fore
SplineSet
1348 653 m 0,0,1
 1348 496 1348 496 1287.5 358.5 c 128,-1,2
 1227 221 1227 221 1118 129 c 1,3,-1
 1459 -257 l 1,4,-1
 1243 -257 l 2,5,6
 1145 -257 1145 -257 1091 -198 c 1,7,-1
 907 15 l 1,8,9
 811 -14 811 -14 685 -14 c 128,-1,10
 559 -14 559 -14 440 37 c 128,-1,11
 321 88 321 88 236 179 c 0,12,13
 58 370 58 370 58 665 c 128,-1,14
 58 960 58 960 236 1150 c 0,15,16
 418 1343 418 1343 704 1343 c 256,17,18
 991 1343 991 1343 1172 1149 c 0,19,20
 1348 959 1348 959 1348 653 c 0,0,1
1080 664 m 0,21,22
 1080 771 1080 771 1054 855 c 128,-1,23
 1028 939 1028 939 980 998 c 0,24,25
 879 1120 879 1120 704 1120 c 256,26,27
 528 1120 528 1120 428 998 c 0,28,29
 327 876 327 876 327 665 c 0,30,31
 327 452 327 452 428 330 c 0,32,33
 527 210 527 210 704 210 c 256,34,35
 880 210 880 210 980 330 c 0,36,37
 1080 452 1080 452 1080 664 c 0,21,22
EndSplineSet
Validated: 1
Substitution2: "sous-table 'sups' Exposant lookups25" Q.superior
Position2: "sous-table 'cpsp' Chasses pour composition en capitales lookups0" dx=40 dy=0 dh=80 dv=0
EndChar

StartChar: R
Encoding: 82 82 33
Width: 1153
GlyphClass: 2
Flags: MW
LayerCount: 2
Fore
SplineSet
382 511 m 1,0,-1
 382 0 l 1,1,-1
 118 0 l 1,2,-1
 118 1328 l 1,3,-1
 518 1328 l 2,4,5
 773 1328 773 1328 902 1220 c 0,6,7
 1018 1122 1018 1122 1018 942 c 0,8,9
 1018 744 1018 744 863 626 c 0,10,11
 813 588 813 588 748 565 c 1,12,13
 801 535 801 535 836 484 c 1,14,-1
 1133 0 l 1,15,-1
 896 0 l 2,16,17
 833 0 833 0 799 53 c 1,18,-1
 557 467 l 1,19,20
 530 511 530 511 471 511 c 2,21,-1
 382 511 l 1,0,-1
762 924 m 0,22,23
 762 1126 762 1126 518 1126 c 2,24,-1
 382 1126 l 1,25,-1
 382 698 l 1,26,-1
 516 698 l 2,27,28
 700 698 700 698 748 834 c 0,29,30
 762 875 762 875 762 924 c 0,22,23
EndSplineSet
Validated: 1
Substitution2: "sous-table 'sups' Exposant lookups25" R.superior
Position2: "sous-table 'cpsp' Chasses pour composition en capitales lookups0" dx=40 dy=0 dh=80 dv=0
EndChar

StartChar: S
Encoding: 83 83 34
Width: 968
GlyphClass: 2
Flags: MW
LayerCount: 2
Fore
SplineSet
821 1078 m 1,0,1
 802 1041 802 1041 773.5 1041 c 128,-1,2
 745 1041 745 1041 723 1055 c 128,-1,3
 701 1069 701 1069 672 1086 c 0,4,5
 592 1130 592 1130 507.5 1130 c 128,-1,6
 423 1130 423 1130 377.5 1086 c 128,-1,7
 332 1042 332 1042 332 984 c 128,-1,8
 332 926 332 926 356.5 896.5 c 128,-1,9
 381 867 381 867 421.5 845.5 c 128,-1,10
 462 824 462 824 513.5 807 c 128,-1,11
 565 790 565 790 619 770.5 c 128,-1,12
 673 751 673 751 724.5 724.5 c 128,-1,13
 776 698 776 698 816 658 c 0,14,15
 906 570 906 570 906 419 c 0,16,17
 906 232 906 232 790 112 c 0,18,19
 667 -14 667 -14 462 -14 c 0,20,21
 282 -14 282 -14 124 89 c 0,22,23
 75 121 75 121 38 161 c 1,24,-1
 116 286 l 2,25,26
 136 319 136 319 167 319 c 128,-1,27
 198 319 198 319 223.5 300.5 c 128,-1,28
 249 282 249 282 283 260 c 0,29,30
 373 200 373 200 466 200 c 128,-1,31
 559 200 559 200 609 246 c 128,-1,32
 659 292 659 292 659 382 c 0,33,34
 659 470 659 470 570 518 c 0,35,36
 525 542 525 542 478 556 c 0,37,38
 434 569 434 569 374 589 c 0,39,40
 317 608 317 608 268 632 c 0,41,42
 216 659 216 659 177 700 c 0,43,44
 88 794 88 794 88 958 c 0,45,46
 88 1114 88 1114 198 1224 c 0,47,48
 317 1343 317 1343 510 1343 c 0,49,50
 743 1343 743 1343 888 1202 c 1,51,-1
 821 1078 l 1,0,1
EndSplineSet
Validated: 1
Substitution2: "sous-table 'sups' Exposant lookups25" S.superior
Position2: "sous-table 'cpsp' Chasses pour composition en capitales lookups0" dx=40 dy=0 dh=80 dv=0
EndChar

StartChar: Scedilla
Encoding: 350 350 35
Width: 968
GlyphClass: 2
Flags: MW
LayerCount: 2
Fore
SplineSet
544 -56 m 1,0,1
 706 -93 706 -93 706 -201 c 0,2,3
 706 -265 706 -265 640 -305 c 0,4,5
 575 -344 575 -344 465 -344 c 0,6,7
 392 -344 392 -344 324 -324 c 1,8,-1
 347 -246 l 1,9,10
 353 -222 353 -222 371.5 -222 c 128,-1,11
 390 -222 390 -222 405.5 -228 c 128,-1,12
 421 -234 421 -234 449.5 -234 c 128,-1,13
 478 -234 478 -234 492.5 -223 c 128,-1,14
 507 -212 507 -212 507 -197 c 0,15,16
 507 -171 507 -171 474.5 -159.5 c 128,-1,17
 442 -148 442 -148 370 -138 c 1,18,-1
 412 -12 l 1,19,20
 252 0 252 0 114 96 c 0,21,22
 72 126 72 126 38 161 c 1,23,-1
 116 286 l 2,24,25
 136 319 136 319 167 319 c 128,-1,26
 198 319 198 319 223.5 300.5 c 128,-1,27
 249 282 249 282 283 260 c 0,28,29
 373 200 373 200 466 200 c 128,-1,30
 559 200 559 200 609 246 c 128,-1,31
 659 292 659 292 659 382 c 0,32,33
 659 470 659 470 570 518 c 0,34,35
 530 540 530 540 478.5 555.5 c 128,-1,36
 427 571 427 571 373.5 589 c 128,-1,37
 320 607 320 607 268.5 632.5 c 128,-1,38
 217 658 217 658 177 700 c 0,39,40
 88 793 88 793 88 958 c 0,41,42
 88 1114 88 1114 198 1224 c 0,43,44
 317 1343 317 1343 510 1343 c 0,45,46
 743 1343 743 1343 888 1202 c 1,47,-1
 821 1078 l 1,48,49
 803 1041 803 1041 774 1041 c 128,-1,50
 745 1041 745 1041 723 1055 c 0,51,52
 702 1070 702 1070 672 1086 c 0,53,54
 592 1130 592 1130 507.5 1130 c 128,-1,55
 423 1130 423 1130 377.5 1086 c 128,-1,56
 332 1042 332 1042 332 984 c 128,-1,57
 332 926 332 926 356.5 896.5 c 128,-1,58
 381 867 381 867 421.5 845.5 c 128,-1,59
 462 824 462 824 513.5 807 c 128,-1,60
 565 790 565 790 619 770.5 c 128,-1,61
 673 751 673 751 724.5 724.5 c 128,-1,62
 776 698 776 698 816 658 c 0,63,64
 906 570 906 570 906 419 c 0,65,66
 906 256 906 256 816 142 c 0,67,68
 723 24 723 24 558 -6 c 1,69,-1
 544 -56 l 1,0,1
EndSplineSet
Validated: 1
Substitution2: "sous-table 'salt' Alternatives stylistiques dans Latin lookup 8" uni0218
Position2: "sous-table 'cpsp' Chasses pour composition en capitales lookups0" dx=40 dy=0 dh=80 dv=0
EndChar

StartChar: T
Encoding: 84 84 36
Width: 1014
GlyphClass: 2
Flags: MW
LayerCount: 2
Fore
SplineSet
996 1328 m 1,0,-1
 996 1114 l 1,1,-1
 638 1114 l 1,2,-1
 638 0 l 1,3,-1
 376 0 l 1,4,-1
 376 1114 l 1,5,-1
 18 1114 l 1,6,-1
 18 1328 l 1,7,-1
 996 1328 l 1,0,-1
EndSplineSet
Validated: 1
Substitution2: "sous-table 'sups' Exposant lookups25" T.superior
Position2: "sous-table 'cpsp' Chasses pour composition en capitales lookups0" dx=40 dy=0 dh=80 dv=0
EndChar

StartChar: Tbar
Encoding: 358 358 37
Width: 1014
GlyphClass: 2
Flags: MW
LayerCount: 2
Fore
SplineSet
996 1328 m 1,0,-1
 996 1114 l 1,1,-1
 638 1114 l 1,2,-1
 638 782 l 1,3,-1
 934 782 l 1,4,-1
 934 634 l 1,5,-1
 638 634 l 1,6,-1
 638 0 l 1,7,-1
 376 0 l 1,8,-1
 376 634 l 1,9,-1
 152 634 l 1,10,-1
 152 782 l 1,11,-1
 376 782 l 1,12,-1
 376 1114 l 1,13,-1
 18 1114 l 1,14,-1
 18 1328 l 1,15,-1
 996 1328 l 1,0,-1
EndSplineSet
Validated: 1
Position2: "sous-table 'cpsp' Chasses pour composition en capitales lookups0" dx=40 dy=0 dh=80 dv=0
EndChar

StartChar: U
Encoding: 85 85 38
Width: 1337
GlyphClass: 2
Flags: MW
LayerCount: 2
Fore
SplineSet
669 212 m 256,0,1
 807 212 807 212 886 300 c 0,2,3
 963 387 963 387 963 536 c 2,4,-1
 963 1328 l 1,5,-1
 1225 1328 l 1,6,-1
 1225 536 l 2,7,8
 1225 293 1225 293 1076 140 c 0,9,10
 924 -15 924 -15 669 -15 c 256,11,12
 413 -15 413 -15 261 140 c 0,13,14
 112 293 112 293 112 536 c 2,15,-1
 112 1328 l 1,16,-1
 375 1328 l 1,17,-1
 375 536 l 2,18,19
 375 387 375 387 452 300 c 0,20,21
 531 212 531 212 669 212 c 256,0,1
EndSplineSet
Validated: 1
Substitution2: "sous-table 'sups' Exposant lookups25" U.superior
Position2: "sous-table 'cpsp' Chasses pour composition en capitales lookups0" dx=40 dy=0 dh=80 dv=0
EndChar

StartChar: Uogonek
Encoding: 370 370 39
Width: 1337
GlyphClass: 2
Flags: MW
LayerCount: 2
Fore
SplineSet
757 -184 m 0,0,1
 790 -184 790 -184 804.5 -177.5 c 128,-1,2
 819 -171 819 -171 830 -171 c 128,-1,3
 841 -171 841 -171 848 -188 c 2,4,-1
 886 -282 l 1,5,6
 811 -331 811 -331 708.5 -331 c 128,-1,7
 606 -331 606 -331 554.5 -291 c 128,-1,8
 503 -251 503 -251 503 -188 c 0,9,10
 503 -90 503 -90 615 -13 c 1,11,12
 382 4 382 4 246 156 c 0,13,14
 112 305 112 305 112 536 c 2,15,-1
 112 1328 l 1,16,-1
 375 1328 l 1,17,-1
 375 536 l 2,18,19
 374 387 374 387 452 300 c 0,20,21
 531 212 531 212 669 212 c 256,22,23
 808 212 808 212 886 300 c 0,24,25
 964 387 964 387 963 536 c 2,26,-1
 963 1328 l 1,27,-1
 1225 1328 l 1,28,-1
 1225 536 l 2,29,30
 1225 319 1225 319 1105 172 c 0,31,32
 983 23 983 23 773 -7 c 1,33,34
 692 -60 692 -60 692 -122 c 128,-1,35
 692 -184 692 -184 757 -184 c 0,0,1
EndSplineSet
Validated: 33
Position2: "sous-table 'cpsp' Chasses pour composition en capitales lookups0" dx=40 dy=0 dh=80 dv=0
EndChar

StartChar: V
Encoding: 86 86 40
Width: 1211
GlyphClass: 2
Flags: MW
LayerCount: 2
Fore
SplineSet
1 1328 m 1,0,-1
 212 1328 l 2,1,2
 275 1328 275 1328 300 1270 c 1,3,-1
 550 486 l 1,4,5
 584 393 584 393 608 297 c 1,6,7
 631 409 631 409 662 488 c 1,8,-1
 911 1270 l 2,9,10
 919 1293 919 1293 942 1310.5 c 128,-1,11
 965 1328 965 1328 998 1328 c 2,12,-1
 1210 1328 l 1,13,-1
 724 0 l 1,14,-1
 487 0 l 1,15,-1
 1 1328 l 1,0,-1
EndSplineSet
Validated: 1
Substitution2: "sous-table 'sups' Exposant lookups25" V.superior
Position2: "sous-table 'cpsp' Chasses pour composition en capitales lookups0" dx=40 dy=0 dh=80 dv=0
EndChar

StartChar: W
Encoding: 87 87 41
Width: 1856
GlyphClass: 2
Flags: MW
LayerCount: 2
Fore
SplineSet
9 1328 m 1,0,-1
 229 1328 l 2,1,2
 299 1328 299 1328 317 1270 c 1,3,-1
 513 503 l 1,4,5
 530 443 530 443 545 364 c 1,6,7
 566 465 566 465 580 504 c 1,8,-1
 812 1270 l 2,9,10
 820 1293 820 1293 843 1310.5 c 128,-1,11
 866 1328 866 1328 898 1328 c 2,12,-1
 975 1328 l 2,13,14
 1043 1328 1043 1328 1062 1270 c 1,15,-1
 1294 503 l 1,16,17
 1310 456 1310 456 1329 367 c 1,18,19
 1344 446 1344 446 1359 502 c 1,20,-1
 1555 1270 l 1,21,22
 1562 1293 1562 1293 1585.5 1310.5 c 128,-1,23
 1609 1328 1609 1328 1641 1328 c 2,24,-1
 1847 1328 l 1,25,-1
 1453 0 l 1,26,-1
 1215 0 l 1,27,-1
 952 883 l 1,28,29
 941 914 941 914 930 965 c 1,30,31
 924 937 924 937 908 883 c 2,32,-1
 640 0 l 1,33,-1
 403 0 l 1,34,-1
 9 1328 l 1,0,-1
EndSplineSet
Validated: 1
Substitution2: "sous-table 'sups' Exposant lookups25" W.superior
Position2: "sous-table 'cpsp' Chasses pour composition en capitales lookups0" dx=40 dy=0 dh=80 dv=0
EndChar

StartChar: X
Encoding: 88 88 42
Width: 1128
GlyphClass: 2
Flags: MW
LayerCount: 2
Fore
SplineSet
386 683 m 1,0,-1
 21 1328 l 1,1,-1
 285 1328 l 2,2,3
 326 1328 326 1328 344 1299 c 1,4,-1
 584 838 l 1,5,-1
 810 1294 l 1,6,7
 832 1328 832 1328 862 1328 c 2,8,-1
 1113 1328 l 1,9,-1
 744 695 l 1,10,-1
 1121 0 l 1,11,-1
 860 0 l 2,12,13
 819 0 819 0 791 44 c 1,14,-1
 550 523 l 1,15,16
 548 518 548 518 545 513.5 c 128,-1,17
 542 509 542 509 540 504 c 2,18,-1
 316 45 l 1,19,20
 287 0 287 0 254 0 c 2,21,-1
 7 0 l 1,22,-1
 386 683 l 1,0,-1
EndSplineSet
Validated: 1
Substitution2: "sous-table 'sups' Exposant lookups25" X.superior
Position2: "sous-table 'cpsp' Chasses pour composition en capitales lookups0" dx=40 dy=0 dh=80 dv=0
EndChar

StartChar: Y
Encoding: 89 89 43
Width: 1064
GlyphClass: 2
Flags: MW
LayerCount: 2
Fore
SplineSet
662 512 m 1,0,-1
 662 0 l 1,1,-1
 402 0 l 1,2,-1
 402 514 l 1,3,-1
 -15 1328 l 1,4,-1
 218 1328 l 2,5,6
 274 1328 274 1328 303 1270 c 1,7,-1
 467 841 l 1,8,9
 512 755 512 755 534 696 c 1,10,11
 551 751 551 751 597 840 c 1,12,-1
 760 1270 l 1,13,14
 790 1328 790 1328 846 1328 c 2,15,-1
 1079 1328 l 1,16,-1
 662 512 l 1,0,-1
EndSplineSet
Validated: 1
Substitution2: "sous-table 'sups' Exposant lookups25" Y.superior
Position2: "sous-table 'cpsp' Chasses pour composition en capitales lookups0" dx=40 dy=0 dh=80 dv=0
EndChar

StartChar: Z
Encoding: 90 90 44
Width: 979
GlyphClass: 2
Flags: MW
LayerCount: 2
Fore
SplineSet
949 1328 m 1,0,-1
 949 1231 l 2,1,2
 949 1188 949 1188 924 1152 c 1,3,-1
 352 209 l 1,4,-1
 933 209 l 1,5,-1
 933 0 l 1,6,-1
 34 0 l 1,7,-1
 34 102 l 2,8,9
 34 142 34 142 57 174 c 1,10,-1
 629 1119 l 1,11,-1
 78 1119 l 1,12,-1
 78 1328 l 1,13,-1
 949 1328 l 1,0,-1
EndSplineSet
Validated: 1
Substitution2: "sous-table 'sups' Exposant lookups25" Z.superior
Position2: "sous-table 'cpsp' Chasses pour composition en capitales lookups0" dx=40 dy=0 dh=80 dv=0
EndChar

StartChar: a
Encoding: 97 97 45
Width: 1011
GlyphClass: 2
Flags: MW
LayerCount: 2
Fore
SplineSet
119 854 m 1,0,1
 289 1012 289 1012 534 1012 c 0,2,3
 706 1012 706 1012 807 904 c 0,4,5
 905 799 905 799 905 625 c 2,6,-1
 905 0 l 1,7,-1
 789 0 l 2,8,9
 753 0 753 0 734 10.5 c 128,-1,10
 715 21 715 21 704 53 c 2,11,-1
 682 119 l 1,12,13
 600 48 600 48 549 25 c 0,14,15
 461 -15 461 -15 379.5 -15 c 128,-1,16
 298 -15 298 -15 245 2.5 c 128,-1,17
 192 20 192 20 154 54 c 0,18,19
 73 126 73 126 73 256 c 0,20,21
 73 458 73 458 376 538 c 0,22,23
 490 568 490 568 657 572 c 1,24,-1
 657 625 l 2,25,26
 657 811 657 811 502 811 c 0,27,28
 500 811 500 811 498 811 c 0,29,30
 420 812 420 812 345 770 c 0,31,32
 300 745 300 745 293 741 c 0,33,34
 269 728 269 728 241 728 c 0,35,36
 192 728 192 728 165 774 c 2,37,-1
 119 854 l 1,0,1
316 268 m 0,38,39
 316 158 316 158 441 158 c 0,40,41
 509 158 509 158 558.5 182.5 c 128,-1,42
 608 207 608 207 657 258 c 1,43,-1
 657 418 l 1,44,45
 384 407 384 407 332 324 c 0,46,47
 316 298 316 298 316 268 c 0,38,39
EndSplineSet
Validated: 33
Substitution2: "sous-table 'ordn' Ordinaux dans Latin lookup 39" a.superior
Substitution2: "sous-table 'sups' Exposant lookups25" a.superior
EndChar

StartChar: aogonek
Encoding: 261 261 46
Width: 1011
GlyphClass: 2
Flags: MW
LayerCount: 2
Fore
SplineSet
871 -187 m 0,0,1
 904 -187 904 -187 918.5 -180.5 c 128,-1,2
 933 -174 933 -174 944 -174 c 128,-1,3
 955 -174 955 -174 962 -191 c 2,4,-1
 1000 -285 l 1,5,6
 925 -334 925 -334 822.5 -334 c 128,-1,7
 720 -334 720 -334 668.5 -294 c 128,-1,8
 617 -254 617 -254 617 -191 c 0,9,10
 617 -81 617 -81 757 2 c 1,11,12
 718 10 718 10 704 53 c 2,13,-1
 682 119 l 1,14,15
 600 48 600 48 549 25 c 0,16,17
 461 -15 461 -15 379.5 -15 c 128,-1,18
 298 -15 298 -15 245 2.5 c 128,-1,19
 192 20 192 20 154 54 c 0,20,21
 73 126 73 126 73 256 c 0,22,23
 73 458 73 458 376 538 c 0,24,25
 490 568 490 568 657 572 c 1,26,-1
 657 625 l 2,27,28
 657 811 657 811 502 811 c 0,29,30
 500 811 500 811 498 811 c 0,31,32
 420 812 420 812 345 770 c 0,33,34
 300 745 300 745 293 741 c 0,35,36
 269 728 269 728 241 728 c 0,37,38
 192 728 192 728 165 774 c 2,39,-1
 119 854 l 1,40,41
 289 1012 289 1012 534 1012 c 0,42,43
 706 1012 706 1012 807 904 c 0,44,45
 905 799 905 799 905 625 c 2,46,-1
 905 0 l 1,47,48
 806 -52 806 -52 806 -119.5 c 128,-1,49
 806 -187 806 -187 871 -187 c 0,0,1
316 268 m 0,50,51
 316 158 316 158 441 158 c 0,52,53
 509 158 509 158 558.5 182.5 c 128,-1,54
 608 207 608 207 657 258 c 1,55,-1
 657 418 l 1,56,57
 384 407 384 407 332 324 c 0,58,59
 316 298 316 298 316 268 c 0,50,51
EndSplineSet
Validated: 33
EndChar

StartChar: ae
Encoding: 230 230 47
Width: 1587
GlyphClass: 2
Flags: MW
LayerCount: 2
Fore
SplineSet
801 859 m 1,0,1
 921 1009 921 1009 1126 1009 c 0,2,3
 1298 1009 1298 1009 1410 882 c 0,4,5
 1524 751 1524 751 1525 538 c 0,6,7
 1525 456 1525 456 1497 444 c 0,8,9
 1486 440 1486 440 1469 440 c 2,10,-1
 902 440 l 1,11,12
 916 306 916 306 980 243.5 c 128,-1,13
 1044 181 1044 181 1126.5 181 c 128,-1,14
 1209 181 1209 181 1249.5 193.5 c 128,-1,15
 1290 206 1290 206 1316 220.5 c 128,-1,16
 1342 235 1342 235 1360.5 247.5 c 128,-1,17
 1379 260 1379 260 1399 260 c 0,18,19
 1434 260 1434 260 1451 237 c 2,20,-1
 1519 149 l 1,21,22
 1379 -15 1379 -15 1120 -15 c 0,23,24
 891 -15 891 -15 776 175 c 1,25,26
 662 -15 662 -15 386 -15 c 0,27,28
 383 -15 383 -15 383 -15 c 0,29,30
 161 -16 161 -16 94 146 c 0,31,32
 72 199 72 199 72 257 c 0,33,34
 73 322 73 322 101.5 378.5 c 128,-1,35
 130 435 130 435 198 482 c 0,36,37
 351 588 351 588 661 595 c 1,38,-1
 661 625 l 2,39,40
 661 721 661 721 620.5 770.5 c 128,-1,41
 580 820 580 820 514 820 c 128,-1,42
 448 820 448 820 411 805.5 c 128,-1,43
 374 791 374 791 346 774 c 128,-1,44
 318 757 318 757 294 742.5 c 128,-1,45
 270 728 270 728 242 728 c 0,46,47
 193 728 193 728 166 774 c 2,48,-1
 119 855 l 1,49,50
 294 1012 294 1012 507 1012 c 128,-1,51
 720 1012 720 1012 801 859 c 1,0,1
316 279 m 0,52,53
 316 158 316 158 448 158 c 0,54,55
 596 158 596 158 644 292 c 0,56,57
 660 338 660 338 661 404 c 2,58,-1
 661 441 l 1,59,60
 316 424 316 424 316 279 c 0,52,53
1115 828 m 0,61,62
 927 828 927 828 902 593 c 1,63,-1
 1299 593 l 1,64,65
 1300 749 1300 749 1198 808 c 0,66,67
 1164 828 1164 828 1115 828 c 0,61,62
EndSplineSet
Validated: 33
EndChar

StartChar: b
Encoding: 98 98 48
Width: 1099
GlyphClass: 2
Flags: MW
LayerCount: 2
Fore
SplineSet
378 876 m 1,0,1
 507 1009 507 1009 667 1009 c 0,2,3
 668 1009 668 1009 670 1009 c 0,4,5
 837 1010 837 1010 936 878 c 0,6,7
 1036 745 1036 745 1036 522 c 0,8,9
 1036 280 1036 280 921 132.5 c 128,-1,10
 806 -15 806 -15 619 -15 c 0,11,12
 492 -14 492 -14 412 60 c 0,13,14
 386 84 386 84 363 112 c 1,15,-1
 352 48 l 2,16,17
 343 0 343 0 293 0 c 2,18,-1
 124 0 l 1,19,-1
 124 1437 l 1,20,-1
 378 1437 l 1,21,-1
 378 876 l 1,0,1
774 512 m 0,22,23
 774 811 774 811 579 811 c 0,24,25
 466 811 466 811 378 700 c 1,26,-1
 378 262 l 1,27,28
 447 177 447 177 554 177 c 256,29,30
 774 177 774 177 774 512 c 0,22,23
EndSplineSet
Validated: 33
Substitution2: "sous-table 'ordn' Ordinaux dans Latin lookup 39" b.superior
Substitution2: "sous-table 'sups' Exposant lookups25" b.superior
EndChar

StartChar: c
Encoding: 99 99 49
Width: 857
GlyphClass: 2
Flags: MW
LayerCount: 2
Fore
SplineSet
836 149 m 1,0,1
 699 -15 699 -15 467 -15 c 0,2,3
 294 -15 294 -15 178 120 c 0,4,5
 56 263 56 263 55 499 c 0,6,7
 56 724 56 724 170 862 c 0,8,9
 291 1008 291 1008 503 1009 c 0,10,11
 698 1009 698 1009 828 867 c 1,12,-1
 761 776 l 1,13,14
 737 745 737 745 713 745 c 128,-1,15
 689 745 689 745 673 756 c 0,16,17
 656 766 656 766 636 780 c 0,18,19
 582 816 582 816 524.5 816 c 128,-1,20
 467 816 467 816 428.5 794 c 128,-1,21
 390 772 390 772 365 731 c 0,22,23
 315 649 315 649 315 496.5 c 128,-1,24
 315 344 315 344 368 260.5 c 128,-1,25
 421 177 421 177 514 177 c 0,26,27
 587 178 587 178 641 222 c 0,28,29
 661 238 661 238 677.5 252 c 128,-1,30
 694 266 694 266 720 266 c 128,-1,31
 746 266 746 266 762 243 c 1,32,-1
 836 149 l 1,0,1
EndSplineSet
Validated: 1
Substitution2: "sous-table 'ordn' Ordinaux dans Latin lookup 39" c.superior
Substitution2: "sous-table 'sups' Exposant lookups25" c.superior
EndChar

StartChar: ccedilla
Encoding: 231 231 50
Width: 857
GlyphClass: 2
Flags: MW
LayerCount: 2
Fore
SplineSet
430 -234 m 0,0,1
 477 -234 477 -234 477 -197 c 0,2,3
 477 -171 477 -171 449 -159.5 c 128,-1,4
 421 -148 421 -148 357 -138 c 1,5,-1
 398 -9 l 1,6,7
 248 18 248 18 154 148 c 0,8,9
 55 285 55 285 55 495 c 0,10,11
 55 723 55 723 170 862 c 0,12,13
 291 1008 291 1008 503 1009 c 0,14,15
 698 1009 698 1009 828 867 c 1,16,-1
 761 776 l 1,17,18
 737 745 737 745 713 745 c 128,-1,19
 689 745 689 745 673 756 c 0,20,21
 656 766 656 766 636 780 c 0,22,23
 582 816 582 816 524.5 816 c 128,-1,24
 467 816 467 816 428.5 794 c 128,-1,25
 390 772 390 772 365 731 c 0,26,27
 315 649 315 649 315 496.5 c 128,-1,28
 315 344 315 344 368 260.5 c 128,-1,29
 421 177 421 177 514 177 c 0,30,31
 587 178 587 178 641 222 c 0,32,33
 661 238 661 238 677.5 252 c 128,-1,34
 694 266 694 266 720 266 c 128,-1,35
 746 266 746 266 762 243 c 1,36,-1
 836 149 l 1,37,38
 719 11 719 11 541 -10 c 1,39,-1
 530 -56 l 1,40,41
 611 -77 611 -77 636 -105 c 0,42,43
 676 -148 676 -148 676 -191 c 128,-1,44
 676 -234 676 -234 659.5 -260 c 128,-1,45
 643 -286 643 -286 613 -305 c 0,46,47
 551 -344 551 -344 448 -344 c 0,48,49
 383 -344 383 -344 319 -324 c 1,50,-1
 342 -246 l 2,51,52
 349 -222 349 -222 370 -222 c 256,53,54
 383 -222 383 -222 396 -228 c 128,-1,55
 409 -234 409 -234 430 -234 c 0,0,1
EndSplineSet
Validated: 1
EndChar

StartChar: c_h.dlig
Encoding: 1114114 -1 51
Width: 1917
GlyphClass: 3
Flags: MW
LayerCount: 2
Fore
SplineSet
1396 811 m 0,0,1
 1287 811 1287 811 1192 716 c 1,2,-1
 1192 0 l 1,3,-1
 938 0 l 1,4,-1
 938 1319 l 1,5,6
 926 1366 926 1366 842 1382 c 0,7,8
 818 1386 818 1386 783.5 1386 c 128,-1,9
 749 1386 749 1386 717.5 1371 c 128,-1,10
 686 1356 686 1356 665 1331 c 0,11,12
 624 1282 624 1282 624 1224 c 128,-1,13
 624 1166 624 1166 638 1125.5 c 128,-1,14
 652 1085 652 1085 674 1047 c 0,15,16
 712 983 712 983 781 912 c 0,17,18
 807 890 807 890 828 867 c 1,19,-1
 761 776 l 1,20,21
 737 745 737 745 713 745 c 128,-1,22
 689 745 689 745 673 756 c 0,23,24
 656 766 656 766 636 780 c 0,25,26
 582 816 582 816 524.5 816 c 128,-1,27
 467 816 467 816 428.5 794 c 128,-1,28
 390 772 390 772 365 731 c 0,29,30
 315 649 315 649 315 496.5 c 128,-1,31
 315 344 315 344 368 260.5 c 128,-1,32
 421 177 421 177 514 177 c 0,33,34
 587 178 587 178 641 222 c 0,35,36
 661 238 661 238 677.5 252 c 128,-1,37
 694 266 694 266 720 266 c 128,-1,38
 746 266 746 266 762 243 c 1,39,-1
 836 149 l 1,40,41
 699 -15 699 -15 467 -15 c 0,42,43
 294 -15 294 -15 178 120 c 0,44,45
 56 263 56 263 55 499 c 0,46,47
 56 724 56 724 170 862 c 0,48,49
 291 1008 291 1008 503 1009 c 0,50,51
 534 1009 534 1009 564 1005 c 1,52,53
 506 1112 506 1112 506 1190.5 c 128,-1,54
 506 1269 506 1269 528.5 1324 c 128,-1,55
 551 1379 551 1379 595 1421 c 0,56,57
 691 1513 691 1513 852 1513 c 0,58,59
 948 1513 948 1513 1021.5 1487 c 128,-1,60
 1095 1461 1095 1461 1127.5 1449 c 128,-1,61
 1160 1437 1160 1437 1192 1437 c 1,62,-1
 1192 893 l 1,63,64
 1319 1009 1319 1009 1474 1009 c 0,65,66
 1632 1009 1632 1009 1721 903 c 0,67,68
 1806 802 1806 802 1806 632 c 2,69,-1
 1806 0 l 1,70,-1
 1552 0 l 1,71,-1
 1552 632 l 2,72,73
 1552 811 1552 811 1396 811 c 0,0,1
EndSplineSet
Validated: 1
Ligature2: "sous-table 'dlig' Ligatures facultatives  dans Latin lookup 36" c h
EndChar

StartChar: c_k.dlig
Encoding: 1114115 -1 52
Width: 1800
GlyphClass: 3
Flags: MW
LayerCount: 2
Fore
SplineSet
554 1006 m 1,0,1
 492 1112 492 1112 492 1190.5 c 128,-1,2
 492 1269 492 1269 514.5 1324 c 128,-1,3
 537 1379 537 1379 581 1421 c 0,4,5
 677 1513 677 1513 838 1513 c 0,6,7
 934 1513 934 1513 1007.5 1487 c 128,-1,8
 1081 1461 1081 1461 1113.5 1449 c 128,-1,9
 1146 1437 1146 1437 1178 1437 c 1,10,-1
 1178 619 l 1,11,-1
 1217 619 l 2,12,13
 1256 619 1256 619 1279 652 c 1,14,-1
 1461 950 l 1,15,16
 1493 993 1493 993 1544 993 c 2,17,-1
 1776 993 l 1,18,-1
 1536 628 l 1,19,20
 1503 585 1503 585 1460 558 c 1,21,22
 1491 535 1491 535 1526 481 c 1,23,-1
 1787 0 l 1,24,-1
 1559 0 l 2,25,26
 1501 0 1501 0 1475 44 c 1,27,-1
 1293 414 l 2,28,29
 1281 437 1281 437 1267.5 444 c 128,-1,30
 1254 451 1254 451 1229 451 c 2,31,-1
 1178 451 l 1,32,-1
 1178 0 l 1,33,-1
 924 0 l 1,34,-1
 924 1319 l 1,35,36
 912 1366 912 1366 828 1382 c 0,37,38
 804 1386 804 1386 769.5 1386 c 128,-1,39
 735 1386 735 1386 703.5 1371 c 128,-1,40
 672 1356 672 1356 651 1331 c 0,41,42
 610 1282 610 1282 610 1224.5 c 128,-1,43
 610 1167 610 1167 625 1127 c 128,-1,44
 640 1087 640 1087 664 1050 c 0,45,46
 703 988 703 988 775 916 c 1,47,48
 803 894 803 894 828 867 c 1,49,-1
 761 776 l 1,50,51
 737 745 737 745 713 745 c 128,-1,52
 689 745 689 745 673 756 c 0,53,54
 656 766 656 766 636 780 c 0,55,56
 582 816 582 816 524.5 816 c 128,-1,57
 467 816 467 816 428.5 794 c 128,-1,58
 390 772 390 772 365 731 c 0,59,60
 315 649 315 649 315 496.5 c 128,-1,61
 315 344 315 344 368 260.5 c 128,-1,62
 421 177 421 177 514 177 c 0,63,64
 587 178 587 178 641 222 c 0,65,66
 661 238 661 238 677.5 252 c 128,-1,67
 694 266 694 266 720 266 c 128,-1,68
 746 266 746 266 762 243 c 1,69,-1
 836 149 l 1,70,71
 699 -15 699 -15 467 -15 c 0,72,73
 294 -15 294 -15 178 120 c 0,74,75
 56 263 56 263 55 499 c 0,76,77
 56 724 56 724 170 862 c 0,78,79
 291 1008 291 1008 503 1009 c 0,80,81
 530 1009 530 1009 554 1006 c 1,0,1
EndSplineSet
Validated: 1
Ligature2: "sous-table 'dlig' Ligatures facultatives  dans Latin lookup 36" c k
EndChar

StartChar: c_t.dlig
Encoding: 1114116 -1 53
Width: 1550
GlyphClass: 3
Flags: MW
LayerCount: 2
Fore
SplineSet
578 1003 m 1,0,1
 553 1074 553 1074 553 1148 c 128,-1,2
 553 1222 553 1222 575.5 1287 c 128,-1,3
 598 1352 598 1352 644 1402 c 0,4,5
 746 1513 746 1513 920 1513 c 256,6,7
 922 1513 922 1513 923 1513 c 0,8,9
 1094 1514 1094 1514 1186 1410 c 0,10,11
 1266 1320 1266 1320 1265 1185 c 2,12,-1
 1265 986 l 1,13,-1
 1497 986 l 1,14,-1
 1497 806 l 1,15,-1
 1265 806 l 1,16,-1
 1265 281 l 2,17,18
 1265 188 1265 188 1331 188 c 0,19,20
 1358 188 1358 188 1373 198 c 0,21,22
 1401 218 1401 218 1411 218 c 0,23,24
 1427 218 1427 218 1443 195 c 2,25,-1
 1520 72 l 1,26,27
 1417 -15 1417 -15 1271 -15 c 0,28,29
 1082 -14 1082 -14 1028 148 c 0,30,31
 1011 200 1011 200 1011 264 c 2,32,-1
 1011 806 l 1,33,-1
 928 806 l 2,34,35
 908 806 908 806 894 819.5 c 128,-1,36
 880 833 880 833 880 859 c 2,37,-1
 880 960 l 1,38,-1
 1039 991 l 1,39,40
 1093 1137 1093 1137 1093 1228 c 0,41,42
 1093 1410 1093 1410 920 1410 c 0,43,44
 806 1410 806 1410 736 1332 c 0,45,46
 671 1260 671 1260 671 1155 c 0,47,48
 671 1038 671 1038 749 936 c 1,49,50
 786 912 786 912 828 867 c 1,51,-1
 761 776 l 1,52,53
 737 745 737 745 713 745 c 128,-1,54
 689 745 689 745 673 756 c 0,55,56
 656 766 656 766 636 780 c 0,57,58
 582 816 582 816 524.5 816 c 128,-1,59
 467 816 467 816 428.5 794 c 128,-1,60
 390 772 390 772 365 731 c 0,61,62
 315 649 315 649 315 496.5 c 128,-1,63
 315 344 315 344 368 260.5 c 128,-1,64
 421 177 421 177 514 177 c 0,65,66
 587 178 587 178 641 222 c 0,67,68
 661 238 661 238 677.5 252 c 128,-1,69
 694 266 694 266 720 266 c 128,-1,70
 746 266 746 266 762 243 c 1,71,-1
 836 149 l 1,72,73
 699 -15 699 -15 467 -15 c 0,74,75
 294 -15 294 -15 178 120 c 0,76,77
 56 263 56 263 55 499 c 0,78,79
 56 724 56 724 170 862 c 0,80,81
 291 1008 291 1008 503 1009 c 0,82,83
 542 1009 542 1009 578 1003 c 1,0,1
EndSplineSet
Validated: 33
LCarets2: 1 0
Ligature2: "sous-table 'dlig' Ligatures facultatives  dans Latin lookup 36" c t
EndChar

StartChar: ccedilla_t.dlig
Encoding: 1114117 -1 54
Width: 1550
GlyphClass: 3
Flags: MW
LayerCount: 2
Fore
SplineSet
578 1003 m 1,0,1
 553 1074 553 1074 553 1148 c 128,-1,2
 553 1222 553 1222 575.5 1287 c 128,-1,3
 598 1352 598 1352 644 1402 c 0,4,5
 746 1513 746 1513 920 1513 c 256,6,7
 922 1513 922 1513 923 1513 c 0,8,9
 1094 1514 1094 1514 1186 1410 c 0,10,11
 1266 1320 1266 1320 1265 1185 c 2,12,-1
 1265 986 l 1,13,-1
 1497 986 l 1,14,-1
 1497 806 l 1,15,-1
 1265 806 l 1,16,-1
 1265 281 l 2,17,18
 1265 188 1265 188 1331 188 c 0,19,20
 1358 188 1358 188 1373 198 c 0,21,22
 1401 218 1401 218 1411 218 c 0,23,24
 1427 218 1427 218 1443 195 c 2,25,-1
 1520 72 l 1,26,27
 1417 -15 1417 -15 1271 -15 c 0,28,29
 1082 -14 1082 -14 1028 148 c 0,30,31
 1011 200 1011 200 1011 264 c 2,32,-1
 1011 806 l 1,33,-1
 928 806 l 2,34,35
 908 806 908 806 894 819.5 c 128,-1,36
 880 833 880 833 880 859 c 2,37,-1
 880 960 l 1,38,-1
 1039 991 l 1,39,40
 1093 1137 1093 1137 1093 1228 c 0,41,42
 1093 1410 1093 1410 920 1410 c 0,43,44
 806 1410 806 1410 736 1332 c 0,45,46
 671 1260 671 1260 671 1155 c 0,47,48
 671 1038 671 1038 749 936 c 1,49,50
 786 912 786 912 828 867 c 1,51,-1
 761 776 l 1,52,53
 737 745 737 745 713 745 c 128,-1,54
 689 745 689 745 673 756 c 0,55,56
 656 766 656 766 636 780 c 0,57,58
 582 816 582 816 524.5 816 c 128,-1,59
 467 816 467 816 428.5 794 c 128,-1,60
 390 772 390 772 365 731 c 0,61,62
 315 649 315 649 315 496.5 c 128,-1,63
 315 344 315 344 368 260.5 c 128,-1,64
 421 177 421 177 514 177 c 0,65,66
 587 178 587 178 641 222 c 0,67,68
 661 238 661 238 677.5 252 c 128,-1,69
 694 266 694 266 720 266 c 128,-1,70
 746 266 746 266 762 243 c 1,71,-1
 836 149 l 1,72,73
 721 11 721 11 539 -10 c 1,74,-1
 527 -56 l 1,75,76
 689 -93 689 -93 689 -201 c 0,77,78
 688 -265 688 -265 622 -305 c 0,79,80
 557 -344 557 -344 448 -344 c 0,81,82
 375 -344 375 -344 307 -324 c 1,83,-1
 330 -246 l 1,84,85
 336 -222 336 -222 354.5 -222 c 128,-1,86
 373 -222 373 -222 388.5 -228 c 128,-1,87
 404 -234 404 -234 432.5 -234 c 128,-1,88
 461 -234 461 -234 475.5 -223 c 128,-1,89
 490 -212 490 -212 490 -197 c 0,90,91
 490 -171 490 -171 457.5 -159.5 c 128,-1,92
 425 -148 425 -148 353 -138 c 1,93,-1
 396 -8 l 1,94,95
 247 20 247 20 154 150 c 0,96,97
 55 289 55 289 55 499 c 256,98,99
 56 724 56 724 170 862 c 0,100,101
 291 1008 291 1008 503 1009 c 0,102,103
 542 1009 542 1009 578 1003 c 1,0,1
EndSplineSet
Validated: 33
LCarets2: 1 0
Ligature2: "sous-table 'dlig' Ligatures facultatives  dans Latin lookup 36" ccedilla t
EndChar

StartChar: d
Encoding: 100 100 55
Width: 1099
GlyphClass: 2
Flags: MW
LayerCount: 2
Fore
SplineSet
483 1012 m 0,0,1
 625 1012 625 1012 721 920 c 1,2,-1
 721 1437 l 1,3,-1
 975 1437 l 1,4,-1
 975 0 l 1,5,-1
 818 0 l 2,6,7
 767 0 767 0 757 46 c 1,8,-1
 735 135 l 1,9,10
 603 -15 603 -15 422 -15 c 0,11,12
 262 -15 262 -15 164 118 c 0,13,14
 64 256 64 256 63 494 c 0,15,16
 63 720 63 720 178 864 c 0,17,18
 296 1012 296 1012 483 1012 c 0,0,1
512 186 m 0,19,20
 635 186 635 186 721 297 c 1,21,-1
 721 735 l 1,22,23
 654 820 654 820 543 820 c 0,24,25
 386 820 386 820 340 639 c 0,26,27
 324 577 324 577 325 504 c 0,28,29
 329 186 329 186 512 186 c 0,19,20
EndSplineSet
Validated: 33
Substitution2: "sous-table 'ordn' Ordinaux dans Latin lookup 39" d.superior
Substitution2: "sous-table 'sups' Exposant lookups25" d.superior
EndChar

StartChar: dcroat
Encoding: 273 273 57
Width: 1165
GlyphClass: 2
Flags: MW
LayerCount: 2
Fore
SplineSet
516 981 m 0,0,1
 666 981 666 981 774 886 c 1,2,-1
 774 1090 l 1,3,-1
 545 1090 l 1,4,-1
 545 1245 l 1,5,-1
 774 1245 l 1,6,-1
 774 1437 l 1,7,-1
 1028 1437 l 1,8,-1
 1028 1245 l 1,9,-1
 1174 1245 l 1,10,-1
 1174 1090 l 1,11,-1
 1028 1090 l 1,12,-1
 1028 0 l 1,13,-1
 873 0 l 2,14,15
 821 0 821 0 811 46 c 1,16,-1
 788 137 l 1,17,18
 645 -15 645 -15 453 -15 c 0,19,20
 279 -15 279 -15 176 110 c 0,21,22
 69 240 69 240 69 481 c 0,23,24
 69 703 69 703 190 840 c 0,25,26
 314 980 314 980 516 981 c 0,0,1
576 787 m 0,27,28
 331 787 331 787 331 477 c 0,29,30
 331 244 331 244 454 200 c 0,31,32
 494 186 494 186 556 186 c 0,33,34
 675 186 675 186 774 298 c 1,35,-1
 774 705 l 1,36,37
 697 787 697 787 576 787 c 0,27,28
EndSplineSet
Validated: 1
EndChar

StartChar: eth
Encoding: 240 240 58
Width: 1099
GlyphClass: 2
Flags: MW
LayerCount: 2
Fore
SplineSet
799 1169 m 1,0,1
 1034 956 1034 956 1034 588 c 0,2,3
 1034 150 1034 150 749 26 c 0,4,5
 656 -14 656 -14 545.5 -14 c 128,-1,6
 435 -14 435 -14 349 18 c 128,-1,7
 263 50 263 50 199 111 c 0,8,9
 63 241 63 241 63 459 c 0,10,11
 64 640 64 640 184 768 c 0,12,13
 308 900 308 900 503 900 c 0,14,15
 681 900 681 900 797 778 c 1,16,17
 758 964 758 964 606 1066 c 1,18,-1
 413 943 l 1,19,-1
 365 1023 l 2,20,21
 354 1042 354 1042 354 1058 c 0,22,23
 353 1086 353 1086 388 1106 c 2,24,-1
 453 1142 l 1,25,26
 390 1166 390 1166 344 1178 c 0,27,28
 272 1198 272 1198 273 1254 c 0,29,30
 272 1273 272 1273 281 1299 c 2,31,-1
 311 1386 l 1,32,33
 515 1353 515 1353 671 1262 c 1,34,-1
 841 1370 l 1,35,-1
 892 1288 l 2,36,37
 903 1270 903 1270 903 1254 c 0,38,39
 904 1228 904 1228 872 1210 c 1,40,-1
 799 1169 l 1,0,1
794 543 m 1,41,42
 722 707 722 707 556 707 c 0,43,44
 443 707 443 707 376 634 c 0,45,46
 314 566 314 566 314 478 c 0,47,48
 315 389 315 389 333 337 c 0,49,50
 350 289 350 289 382 250 c 0,51,52
 443 178 443 178 543 178 c 0,53,54
 783 178 783 178 794 543 c 1,41,42
EndSplineSet
Validated: 33
EndChar

StartChar: e
Encoding: 101 101 59
Width: 1031
GlyphClass: 2
Flags: MW
LayerCount: 2
Fore
SplineSet
960 149 m 1,0,1
 820 -15 820 -15 551 -15 c 0,2,3
 548 -15 548 -15 548 -15 c 0,4,5
 336 -16 336 -16 204 120 c 0,6,7
 63 265 63 265 63 521 c 0,8,9
 63 727 63 727 190 864 c 0,10,11
 323 1008 323 1008 539 1009 c 0,12,13
 731 1008 731 1008 848 890 c 0,14,15
 969 768 969 768 969 557 c 0,16,17
 968 476 968 476 938 464 c 0,18,19
 926 460 926 460 910 460 c 2,20,-1
 316 460 l 1,21,22
 339 181 339 181 573 181 c 256,23,24
 574 181 574 181 576 181 c 0,25,26
 665 180 665 180 794 252 c 0,27,28
 819 266 819 266 844 266 c 128,-1,30
 869 266 869 266 887 243 c 2,31,-1
 960 149 l 1,0,1
544 828 m 0,32,33
 355 828 355 828 321 612 c 1,34,-1
 741 612 l 1,35,36
 741 758 741 758 632 810 c 0,37,38
 595 828 595 828 544 828 c 0,32,33
EndSplineSet
Validated: 33
Substitution2: "sous-table 'ordn' Ordinaux dans Latin lookup 39" e.superior
Substitution2: "sous-table 'sups' Exposant lookups25" e.superior
EndChar

StartChar: eogonek
Encoding: 281 281 60
Width: 1031
GlyphClass: 2
Flags: MW
LayerCount: 2
Fore
SplineSet
571 -127 m 0,0,1
 571 -187 571 -187 636 -187 c 0,2,3
 669 -187 669 -187 683.5 -180.5 c 128,-1,4
 698 -174 698 -174 709 -174 c 128,-1,5
 720 -174 720 -174 727 -191 c 2,6,-1
 765 -285 l 1,7,8
 690 -334 690 -334 587.5 -334 c 128,-1,9
 485 -334 485 -334 433.5 -294 c 128,-1,10
 382 -254 382 -254 382 -191 c 0,11,12
 382 -91 382 -91 499 -12 c 1,13,14
 303 5 303 5 188 138 c 0,15,16
 63 282 63 282 63 521 c 0,17,18
 63 727 63 727 190 864 c 0,19,20
 323 1008 323 1008 539 1009 c 0,21,22
 731 1008 731 1008 848 890 c 0,23,24
 969 768 969 768 969 557 c 0,25,26
 968 476 968 476 938 464 c 0,27,28
 926 460 926 460 910 460 c 2,29,-1
 316 460 l 1,30,31
 339 181 339 181 573 181 c 256,32,33
 574 181 574 181 576 181 c 0,34,35
 665 180 665 180 794 252 c 0,36,37
 819 266 819 266 844 266 c 128,-1,39
 869 266 869 266 887 243 c 2,40,-1
 960 149 l 1,41,42
 848 21 848 21 657 -7 c 1,43,44
 571 -58 571 -58 571 -127 c 0,0,1
544 828 m 0,45,46
 355 828 355 828 321 612 c 1,47,-1
 741 612 l 1,48,49
 741 758 741 758 632 810 c 0,50,51
 595 828 595 828 544 828 c 0,45,46
EndSplineSet
Validated: 33
EndChar

StartChar: f
Encoding: 102 102 61
Width: 648
GlyphClass: 2
Flags: MW
LayerCount: 2
Fore
SplineSet
506 1423 m 0,0,1
 578 1423 578 1423 641 1405 c 1,2,-1
 635 1278 l 2,3,4
 633 1249 633 1249 611 1241 c 128,-1,5
 589 1233 589 1233 556.5 1233 c 128,-1,6
 524 1233 524 1233 494 1224 c 0,7,8
 464 1216 464 1216 444 1194 c 0,9,10
 402 1150 402 1150 402 1047 c 2,11,-1
 402 986 l 1,12,-1
 632 986 l 1,13,-1
 632 806 l 1,14,-1
 410 806 l 1,15,-1
 410 0 l 1,16,-1
 156 0 l 1,17,-1
 156 806 l 1,18,-1
 85 820 l 1,19,20
 20 831 20 831 20 883 c 2,21,-1
 20 986 l 1,22,-1
 156 986 l 1,23,-1
 156 1055 l 2,24,25
 156 1225 156 1225 252.5 1324 c 128,-1,26
 349 1423 349 1423 506 1423 c 0,0,1
EndSplineSet
Validated: 1
Substitution2: "sous-table 'ordn' Ordinaux dans Latin lookup 39" f.superior
Substitution2: "sous-table 'sups' Exposant lookups25" f.superior
EndChar

StartChar: f_b.liga
Encoding: 1114118 -1 62
Width: 1730
GlyphClass: 3
Flags: MW
LayerCount: 2
Fore
SplineSet
1021 876 m 1,0,1
 1150 1009 1150 1009 1310 1009 c 0,2,3
 1311 1009 1311 1009 1313 1009 c 0,4,5
 1480 1010 1480 1010 1579 878 c 0,6,7
 1679 745 1679 745 1679 522 c 0,8,9
 1679 280 1679 280 1564 132.5 c 128,-1,10
 1449 -15 1449 -15 1262 -15 c 0,11,12
 1136 -14 1136 -14 1056 60 c 0,13,14
 1030 84 1030 84 1006 112 c 1,15,-1
 995 48 l 2,16,17
 986 0 986 0 936 0 c 2,18,-1
 767 0 l 1,19,-1
 767 1272 l 1,20,21
 694 1297 694 1297 635.5 1297 c 128,-1,22
 577 1297 577 1297 534.5 1278.5 c 128,-1,23
 492 1260 492 1260 464 1226 c 0,24,25
 406 1158 406 1158 406 1048 c 2,26,-1
 406 986 l 1,27,-1
 643 986 l 1,28,-1
 643 806 l 1,29,-1
 414 806 l 1,30,-1
 414 0 l 1,31,-1
 160 0 l 1,32,-1
 160 806 l 1,33,-1
 85 820 l 2,34,35
 21 831 21 831 21 883 c 2,36,-1
 21 986 l 1,37,-1
 160 986 l 1,38,-1
 160 1048 l 2,39,40
 160 1341 160 1341 424 1429 c 0,41,42
 517 1460 517 1460 605 1460 c 128,-1,43
 693 1460 693 1460 733 1456 c 0,44,45
 772 1453 772 1453 814 1449 c 0,46,47
 930 1438 930 1438 1007 1437 c 1,48,-1
 1032 1437 l 1,49,-1
 1021 1429 l 1,50,-1
 1021 876 l 1,0,1
1417 512 m 0,51,52
 1417 811 1417 811 1222 811 c 0,53,54
 1109 811 1109 811 1021 700 c 1,55,-1
 1021 262 l 1,56,57
 1090 177 1090 177 1197 177 c 256,58,59
 1417 177 1417 177 1417 512 c 0,51,52
EndSplineSet
Validated: 33
LCarets2: 1 0
Ligature2: "sous-table 'liga' Ligatures standard dans Latin lookup 37" f b
EndChar

StartChar: f_f_b.liga
Encoding: 1114119 -1 63
Width: 2313
GlyphClass: 3
Flags: MW
LayerCount: 2
Fore
SplineSet
1355 1274 m 1,0,1
 1290 1297 1290 1297 1231 1297 c 128,-1,2
 1172 1297 1172 1297 1130.5 1278.5 c 128,-1,3
 1089 1260 1089 1260 1061 1226 c 0,4,5
 1004 1158 1004 1158 1004 1048 c 2,6,-1
 1004 986 l 1,7,-1
 1237 986 l 1,8,-1
 1237 806 l 1,9,-1
 1012 806 l 1,10,-1
 1012 0 l 1,11,-1
 758 0 l 1,12,-1
 758 806 l 1,13,-1
 411 806 l 1,14,-1
 411 0 l 1,15,-1
 157 0 l 1,16,-1
 157 806 l 1,17,-1
 85 820 l 1,18,19
 20 831 20 831 20 883 c 2,20,-1
 20 986 l 1,21,-1
 157 986 l 1,22,-1
 157 1037 l 2,23,24
 156 1208 156 1208 254 1307 c 128,-1,25
 352 1406 352 1406 523 1406 c 0,26,27
 577 1406 577 1406 645 1388 c 1,28,-1
 640 1261 l 1,29,30
 637 1215 637 1215 566 1215 c 0,31,32
 445 1214 445 1214 415 1118 c 0,33,34
 404 1082 404 1082 404 1029 c 2,35,-1
 404 986 l 1,36,-1
 758 986 l 1,37,-1
 758 1048 l 2,38,39
 758 1341 758 1341 1020 1429 c 0,40,41
 1112 1460 1112 1460 1201 1460 c 0,42,43
 1291 1460 1291 1460 1332 1456 c 0,44,45
 1367 1453 1367 1453 1417 1448 c 0,46,47
 1537 1437 1537 1437 1612 1437 c 0,48,49
 1618 1437 1618 1437 1624 1437 c 1,50,-1
 1609 1426 l 1,51,-1
 1609 876 l 1,52,53
 1738 1009 1738 1009 1898 1009 c 0,54,55
 1899 1009 1899 1009 1901 1009 c 0,56,57
 2068 1010 2068 1010 2167 878 c 0,58,59
 2267 745 2267 745 2267 522 c 0,60,61
 2267 280 2267 280 2152 132.5 c 128,-1,62
 2037 -15 2037 -15 1850 -15 c 0,63,64
 1724 -14 1724 -14 1644 60 c 0,65,66
 1618 84 1618 84 1594 112 c 1,67,-1
 1583 48 l 2,68,69
 1574 0 1574 0 1524 0 c 2,70,-1
 1355 0 l 1,71,-1
 1355 1274 l 1,0,1
2005 512 m 0,72,73
 2005 811 2005 811 1810 811 c 0,74,75
 1697 811 1697 811 1609 700 c 1,76,-1
 1609 262 l 1,77,78
 1678 177 1678 177 1785 177 c 256,79,80
 2005 177 2005 177 2005 512 c 0,72,73
EndSplineSet
Validated: 33
LCarets2: 2 0 0
Ligature2: "sous-table 'liga' Ligatures standard dans Latin lookup 37" f f b
EndChar

StartChar: uniFB00
Encoding: 64256 64256 64
Width: 1230
GlyphClass: 3
Flags: MW
LayerCount: 2
Fore
SplineSet
1218 1295 m 1,0,1
 1218 1249 1218 1249 1146 1249 c 0,2,3
 1026 1249 1026 1249 998 1152 c 0,4,5
 988 1116 988 1116 988 1063 c 2,6,-1
 988 986 l 1,7,-1
 1215 986 l 1,8,-1
 1215 806 l 1,9,-1
 996 806 l 1,10,-1
 996 0 l 1,11,-1
 742 0 l 1,12,-1
 742 806 l 1,13,-1
 407 806 l 1,14,-1
 407 0 l 1,15,-1
 153 0 l 1,16,-1
 153 806 l 1,17,-1
 84 820 l 1,18,19
 20 831 20 831 20 883 c 2,20,-1
 20 986 l 1,21,-1
 153 986 l 1,22,-1
 153 1037 l 2,23,24
 154 1207 154 1207 250 1307 c 0,25,26
 346 1406 346 1406 514 1406 c 0,27,28
 566 1406 566 1406 634 1388 c 1,29,-1
 628 1261 l 2,30,31
 625 1215 625 1215 557 1215 c 0,32,33
 438 1214 438 1214 410 1118 c 0,34,35
 400 1082 400 1082 399 1029 c 2,36,-1
 399 986 l 1,37,-1
 742 986 l 1,38,-1
 742 1071 l 2,39,40
 742 1240 742 1240 838 1340 c 0,41,42
 934 1439 934 1439 1103 1439 c 0,43,44
 1163 1439 1163 1439 1223 1421 c 1,45,-1
 1218 1295 l 1,0,1
EndSplineSet
Validated: 1
Ligature2: "sous-table 'liga' Ligatures standard dans Latin lookup 37" f f
EndChar

StartChar: f_h.liga
Encoding: 1114120 -1 65
Width: 1730
GlyphClass: 3
Flags: MW
LayerCount: 2
Fore
SplineSet
1230 811 m 0,0,1
 1121 811 1121 811 1026 716 c 1,2,-1
 1026 0 l 1,3,-1
 772 0 l 1,4,-1
 772 1271 l 1,5,6
 703 1297 703 1297 640.5 1297 c 128,-1,7
 578 1297 578 1297 536 1278 c 0,8,9
 492 1260 492 1260 464 1226 c 0,10,11
 406 1156 406 1156 406 1048 c 2,12,-1
 406 986 l 1,13,-1
 645 986 l 1,14,-1
 645 806 l 1,15,-1
 414 806 l 1,16,-1
 414 0 l 1,17,-1
 160 0 l 1,18,-1
 160 806 l 1,19,-1
 85 820 l 2,20,21
 21 831 21 831 21 883 c 2,22,-1
 21 986 l 1,23,-1
 160 986 l 1,24,-1
 160 1048 l 2,25,26
 160 1341 160 1341 425 1429 c 0,27,28
 518 1460 518 1460 608 1460 c 128,-1,29
 698 1460 698 1460 740 1456 c 0,30,31
 773 1453 773 1453 826 1448 c 0,32,33
 946 1437 946 1437 1022 1437 c 0,34,35
 1028 1437 1028 1437 1034 1437 c 1,36,-1
 1026 1431 l 1,37,-1
 1026 893 l 1,38,39
 1153 1009 1153 1009 1308 1009 c 0,40,41
 1466 1009 1466 1009 1555 903 c 0,42,43
 1640 802 1640 802 1640 632 c 2,44,-1
 1640 0 l 1,45,-1
 1386 0 l 1,46,-1
 1386 632 l 2,47,48
 1386 811 1386 811 1230 811 c 0,0,1
EndSplineSet
Validated: 1
LCarets2: 1 0
Ligature2: "sous-table 'liga' Ligatures standard dans Latin lookup 37" f h
EndChar

StartChar: f_f_h.liga
Encoding: 1114121 -1 66
Width: 2313
GlyphClass: 3
Flags: MW
LayerCount: 2
Fore
SplineSet
1354 1274 m 1,0,1
 1289 1297 1289 1297 1230.5 1297 c 128,-1,2
 1172 1297 1172 1297 1130.5 1278.5 c 128,-1,3
 1089 1260 1089 1260 1061 1226 c 0,4,5
 1004 1158 1004 1158 1004 1048 c 2,6,-1
 1004 986 l 1,7,-1
 1237 986 l 1,8,-1
 1237 806 l 1,9,-1
 1012 806 l 1,10,-1
 1012 0 l 1,11,-1
 758 0 l 1,12,-1
 758 806 l 1,13,-1
 411 806 l 1,14,-1
 411 0 l 1,15,-1
 157 0 l 1,16,-1
 157 806 l 1,17,-1
 85 820 l 1,18,19
 20 831 20 831 20 883 c 2,20,-1
 20 986 l 1,21,-1
 157 986 l 1,22,-1
 157 1037 l 2,23,24
 156 1208 156 1208 254 1307 c 128,-1,25
 352 1406 352 1406 523 1406 c 0,26,27
 577 1406 577 1406 645 1388 c 1,28,-1
 640 1261 l 1,29,30
 637 1215 637 1215 566 1215 c 0,31,32
 445 1214 445 1214 415 1118 c 0,33,34
 404 1082 404 1082 404 1029 c 2,35,-1
 404 986 l 1,36,-1
 758 986 l 1,37,-1
 758 1048 l 2,38,39
 758 1341 758 1341 1020 1429 c 0,40,41
 1112 1460 1112 1460 1201 1460 c 0,42,43
 1291 1460 1291 1460 1332 1456 c 0,44,45
 1367 1453 1367 1453 1417 1448 c 0,46,47
 1537 1437 1537 1437 1612 1437 c 0,48,49
 1618 1437 1618 1437 1624 1437 c 1,50,-1
 1608 1425 l 1,51,-1
 1608 893 l 1,52,53
 1735 1009 1735 1009 1890 1009 c 0,54,55
 2048 1009 2048 1009 2137 903 c 0,56,57
 2222 802 2222 802 2222 632 c 2,58,-1
 2222 0 l 1,59,-1
 1968 0 l 1,60,-1
 1968 632 l 2,61,62
 1968 811 1968 811 1812 811 c 0,63,64
 1703 811 1703 811 1608 716 c 1,65,-1
 1608 0 l 1,66,-1
 1354 0 l 1,67,-1
 1354 1274 l 1,0,1
EndSplineSet
Validated: 33
LCarets2: 2 0 0
Ligature2: "sous-table 'liga' Ligatures standard dans Latin lookup 37" f f h
EndChar

StartChar: f_igrave.liga
Encoding: 1114122 -1 68
Width: 1135
GlyphClass: 3
Flags: MW
LayerCount: 2
Fore
SplineSet
546 1281 m 2,0,1
 546 1248 546 1248 495.5 1248 c 128,-1,2
 445 1248 445 1248 425.5 1213 c 128,-1,3
 406 1178 406 1178 406 1097 c 2,4,-1
 406 986 l 1,5,-1
 1003 986 l 1,6,-1
 1003 0 l 1,7,-1
 749 0 l 1,8,-1
 749 806 l 1,9,-1
 414 806 l 1,10,-1
 414 0 l 1,11,-1
 160 0 l 1,12,-1
 160 806 l 1,13,-1
 85 820 l 2,14,15
 21 831 21 831 21 883 c 2,16,-1
 21 986 l 1,17,-1
 160 986 l 1,18,-1
 160 1097 l 2,19,20
 160 1254 160 1254 237 1342 c 128,-1,21
 314 1430 314 1430 457 1430 c 0,22,23
 516 1430 516 1430 546 1418 c 1,24,-1
 546 1414 l 1,25,-1
 753 1414 l 2,26,27
 794 1414 794 1414 814 1400.5 c 128,-1,28
 834 1387 834 1387 849 1361 c 2,29,-1
 983 1126 l 1,30,-1
 839 1126 l 2,31,32
 789 1126 789 1126 756 1161 c 2,33,-1
 546 1381 l 1,34,-1
 546 1281 l 2,0,1
EndSplineSet
Validated: 1
Ligature2: "sous-table 'liga' Ligatures standard dans Latin lookup 37" f igrave
EndChar

StartChar: f_imacron.liga
Encoding: 1114126 -1 72
Width: 1153
GlyphClass: 3
Flags: MW
LayerCount: 2
Fore
SplineSet
558 1281 m 2,0,1
 558 1248 558 1248 507.5 1248 c 128,-1,2
 457 1248 457 1248 437.5 1213 c 128,-1,3
 418 1178 418 1178 418 1097 c 2,4,-1
 418 986 l 1,5,-1
 1015 986 l 1,6,-1
 1015 0 l 1,7,-1
 761 0 l 1,8,-1
 761 806 l 1,9,-1
 426 806 l 1,10,-1
 426 0 l 1,11,-1
 172 0 l 1,12,-1
 172 806 l 1,13,-1
 97 820 l 2,14,15
 33 831 33 831 33 883 c 2,16,-1
 33 986 l 1,17,-1
 172 986 l 1,18,-1
 172 1097 l 2,19,20
 172 1254 172 1254 249 1342 c 128,-1,21
 326 1430 326 1430 469 1430 c 0,22,23
 528 1430 528 1430 558 1418 c 1,24,-1
 558 1281 l 2,0,1
598 1329 m 1,25,-1
 1181 1329 l 1,26,-1
 1181 1168 l 1,27,-1
 598 1168 l 1,28,-1
 598 1329 l 1,25,-1
EndSplineSet
Validated: 1
Ligature2: "sous-table 'liga' Ligatures standard dans Latin lookup 37" f imacron
EndChar

StartChar: f_iogonek.liga
Encoding: 1114128 -1 74
Width: 1135
GlyphClass: 3
Flags: MW
LayerCount: 2
Fore
SplineSet
685 -191 m 0,0,1
 685 -83 685 -83 821 0 c 1,2,-1
 749 0 l 1,3,-1
 749 806 l 1,4,-1
 414 806 l 1,5,-1
 414 0 l 1,6,-1
 160 0 l 1,7,-1
 160 806 l 1,8,-1
 85 820 l 2,9,10
 21 831 21 831 21 883 c 2,11,-1
 21 986 l 1,12,-1
 160 986 l 1,13,-1
 160 1097 l 2,14,15
 160 1254 160 1254 237 1342 c 128,-1,16
 314 1430 314 1430 457 1430 c 0,17,18
 516 1430 516 1430 546 1418 c 1,19,-1
 546 1281 l 2,20,21
 546 1248 546 1248 495.5 1248 c 128,-1,22
 445 1248 445 1248 425.5 1213 c 128,-1,23
 406 1178 406 1178 406 1097 c 2,24,-1
 406 986 l 1,25,-1
 1003 986 l 1,26,-1
 1003 0 l 1,27,-1
 973 0 l 1,28,29
 874 -52 874 -52 874 -119.5 c 128,-1,30
 874 -187 874 -187 939 -187 c 0,31,32
 972 -187 972 -187 986.5 -180.5 c 128,-1,33
 1001 -174 1001 -174 1012 -174 c 128,-1,34
 1023 -174 1023 -174 1030 -191 c 2,35,-1
 1068 -285 l 1,36,37
 993 -334 993 -334 890.5 -334 c 128,-1,38
 788 -334 788 -334 736.5 -294 c 128,-1,39
 685 -254 685 -254 685 -191 c 0,0,1
1041 1281 m 256,40,41
 1041 1216 1041 1216 993 1170 c 128,-1,42
 945 1124 945 1124 878 1123 c 0,43,44
 814 1123 814 1123 767.5 1169.5 c 128,-1,45
 721 1216 721 1216 721 1281 c 256,46,47
 721 1347 721 1347 767.5 1393.5 c 128,-1,48
 814 1440 814 1440 862.5 1440 c 128,-1,49
 911 1440 911 1440 941 1428 c 128,-1,50
 971 1416 971 1416 993 1394 c 0,51,52
 1041 1346 1041 1346 1041 1281 c 256,40,41
EndSplineSet
Validated: 1
LCarets2: 1 0
Ligature2: "sous-table 'liga' Ligatures standard dans Latin lookup 37" f iogonek
EndChar

StartChar: f_dotlessi.liga
Encoding: 1114129 -1 75
Width: 1135
GlyphClass: 3
Flags: MW
LayerCount: 2
Fore
SplineSet
546 1281 m 2,0,1
 546 1248 546 1248 495.5 1248 c 128,-1,2
 445 1248 445 1248 425.5 1213 c 128,-1,3
 406 1178 406 1178 406 1097 c 2,4,-1
 406 986 l 1,5,-1
 1003 986 l 1,6,-1
 1003 0 l 1,7,-1
 749 0 l 1,8,-1
 749 806 l 1,9,-1
 414 806 l 1,10,-1
 414 0 l 1,11,-1
 160 0 l 1,12,-1
 160 806 l 1,13,-1
 85 820 l 2,14,15
 21 831 21 831 21 883 c 2,16,-1
 21 986 l 1,17,-1
 160 986 l 1,18,-1
 160 1097 l 2,19,20
 160 1254 160 1254 237 1342 c 128,-1,21
 314 1430 314 1430 457 1430 c 0,22,23
 516 1430 516 1430 546 1418 c 1,24,-1
 546 1281 l 2,0,1
EndSplineSet
Validated: 1
Ligature2: "sous-table 'liga' Ligatures standard dans Latin lookup 37" f dotlessi
EndChar

StartChar: f_f_igrave.liga
Encoding: 1114130 -1 77
Width: 1718
GlyphClass: 3
Flags: MW
LayerCount: 2
Fore
SplineSet
1137 1281 m 2,0,1
 1137 1248 1137 1248 1087 1248 c 128,-1,2
 1037 1248 1037 1248 1018.5 1213 c 128,-1,3
 1000 1178 1000 1178 1000 1097 c 2,4,-1
 1000 986 l 1,5,-1
 1589 986 l 1,6,-1
 1589 0 l 1,7,-1
 1335 0 l 1,8,-1
 1335 806 l 1,9,-1
 1008 806 l 1,10,-1
 1008 0 l 1,11,-1
 754 0 l 1,12,-1
 754 806 l 1,13,-1
 411 806 l 1,14,-1
 411 0 l 1,15,-1
 157 0 l 1,16,-1
 157 806 l 1,17,-1
 85 820 l 1,18,19
 20 831 20 831 20 883 c 2,20,-1
 20 986 l 1,21,-1
 157 986 l 1,22,-1
 157 1037 l 2,23,24
 157 1208 157 1208 254 1307 c 128,-1,25
 351 1406 351 1406 521 1406 c 0,26,27
 573 1406 573 1406 643 1388 c 1,28,-1
 637 1261 l 1,29,30
 634 1215 634 1215 564 1215 c 0,31,32
 444 1214 444 1214 414 1118 c 0,33,34
 403 1082 403 1082 403 1029 c 2,35,-1
 403 986 l 1,36,-1
 754 986 l 1,37,-1
 754 1097 l 2,38,39
 754 1338 754 1338 922 1408 c 0,40,41
 976 1430 976 1430 1041 1430 c 128,-1,42
 1106 1430 1106 1430 1137 1418 c 1,43,-1
 1137 1414 l 1,44,-1
 1347 1414 l 2,45,46
 1388 1414 1388 1414 1408 1400.5 c 128,-1,47
 1428 1387 1428 1387 1443 1361 c 2,48,-1
 1577 1126 l 1,49,-1
 1433 1126 l 2,50,51
 1383 1126 1383 1126 1350 1161 c 2,52,-1
 1137 1384 l 1,53,-1
 1137 1281 l 2,0,1
EndSplineSet
Validated: 1
Ligature2: "sous-table 'liga' Ligatures standard dans Latin lookup 37" f f igrave
EndChar

StartChar: f_f_imacron.liga
Encoding: 1114134 -1 81
Width: 1736
GlyphClass: 3
Flags: MW
LayerCount: 2
Fore
SplineSet
1149 1281 m 2,0,1
 1149 1248 1149 1248 1099 1248 c 128,-1,2
 1049 1248 1049 1248 1030.5 1213 c 128,-1,3
 1012 1178 1012 1178 1012 1097 c 2,4,-1
 1012 986 l 1,5,-1
 1601 986 l 1,6,-1
 1601 0 l 1,7,-1
 1347 0 l 1,8,-1
 1347 806 l 1,9,-1
 1020 806 l 1,10,-1
 1020 0 l 1,11,-1
 766 0 l 1,12,-1
 766 806 l 1,13,-1
 423 806 l 1,14,-1
 423 0 l 1,15,-1
 169 0 l 1,16,-1
 169 806 l 1,17,-1
 97 820 l 1,18,19
 32 831 32 831 32 883 c 2,20,-1
 32 986 l 1,21,-1
 169 986 l 1,22,-1
 169 1037 l 2,23,24
 169 1208 169 1208 266 1307 c 128,-1,25
 363 1406 363 1406 533 1406 c 0,26,27
 585 1406 585 1406 655 1388 c 1,28,-1
 649 1261 l 1,29,30
 646 1215 646 1215 576 1215 c 0,31,32
 456 1214 456 1214 426 1118 c 0,33,34
 415 1082 415 1082 415 1029 c 2,35,-1
 415 986 l 1,36,-1
 766 986 l 1,37,-1
 766 1097 l 2,38,39
 766 1338 766 1338 934 1408 c 0,40,41
 988 1430 988 1430 1053 1430 c 128,-1,42
 1118 1430 1118 1430 1149 1418 c 1,43,-1
 1149 1281 l 2,0,1
1188 1329 m 1,44,-1
 1771 1329 l 1,45,-1
 1771 1168 l 1,46,-1
 1188 1168 l 1,47,-1
 1188 1329 l 1,44,-1
EndSplineSet
Validated: 1
Ligature2: "sous-table 'liga' Ligatures standard dans Latin lookup 37" f f imacron
EndChar

StartChar: f_f_dotlessi.liga
Encoding: 1114137 -1 84
Width: 1718
GlyphClass: 3
Flags: MW
LayerCount: 2
Fore
SplineSet
1137 1281 m 2,0,1
 1137 1248 1137 1248 1087 1248 c 128,-1,2
 1037 1248 1037 1248 1018.5 1213 c 128,-1,3
 1000 1178 1000 1178 1000 1097 c 2,4,-1
 1000 986 l 1,5,-1
 1589 986 l 1,6,-1
 1589 0 l 1,7,-1
 1335 0 l 1,8,-1
 1335 806 l 1,9,-1
 1008 806 l 1,10,-1
 1008 0 l 1,11,-1
 754 0 l 1,12,-1
 754 806 l 1,13,-1
 411 806 l 1,14,-1
 411 0 l 1,15,-1
 157 0 l 1,16,-1
 157 806 l 1,17,-1
 85 820 l 1,18,19
 20 831 20 831 20 883 c 2,20,-1
 20 986 l 1,21,-1
 157 986 l 1,22,-1
 157 1037 l 2,23,24
 157 1208 157 1208 254 1307 c 128,-1,25
 351 1406 351 1406 521 1406 c 0,26,27
 573 1406 573 1406 643 1388 c 1,28,-1
 637 1261 l 1,29,30
 634 1215 634 1215 564 1215 c 0,31,32
 444 1214 444 1214 414 1118 c 0,33,34
 403 1082 403 1082 403 1029 c 2,35,-1
 403 986 l 1,36,-1
 754 986 l 1,37,-1
 754 1097 l 2,38,39
 754 1338 754 1338 922 1408 c 0,40,41
 976 1430 976 1430 1041 1430 c 128,-1,42
 1106 1430 1106 1430 1137 1418 c 1,43,-1
 1137 1281 l 2,0,1
EndSplineSet
Validated: 1
Ligature2: "sous-table 'liga' Ligatures standard dans Latin lookup 37" f f dotlessi
EndChar

StartChar: f_k.liga
Encoding: 1114140 -1 87
Width: 1613
GlyphClass: 3
Flags: MW
LayerCount: 2
Fore
SplineSet
733 1268 m 1,0,1
 662 1297 662 1297 605.5 1297 c 128,-1,2
 549 1297 549 1297 511 1278.5 c 128,-1,3
 473 1260 473 1260 447 1226 c 0,4,5
 394 1158 394 1158 394 1048 c 2,6,-1
 394 986 l 1,7,-1
 610 986 l 1,8,-1
 610 806 l 1,9,-1
 402 806 l 1,10,-1
 402 0 l 1,11,-1
 148 0 l 1,12,-1
 148 807 l 1,13,-1
 83 820 l 1,14,15
 19 831 19 831 19 883 c 2,16,-1
 19 986 l 1,17,-1
 148 986 l 1,18,-1
 148 1048 l 2,19,20
 148 1341 148 1341 400 1429 c 0,21,22
 488 1460 488 1460 573.5 1460 c 128,-1,23
 659 1460 659 1460 697.5 1456.5 c 128,-1,24
 736 1453 736 1453 776 1449 c 0,25,26
 882 1438 882 1438 961 1437 c 1,27,-1
 987 1437 l 1,28,-1
 987 619 l 1,29,-1
 1026 619 l 2,30,31
 1065 619 1065 619 1088 652 c 1,32,-1
 1270 950 l 1,33,34
 1302 993 1302 993 1353 993 c 2,35,-1
 1585 993 l 1,36,-1
 1345 628 l 1,37,38
 1312 585 1312 585 1269 558 c 1,39,40
 1300 535 1300 535 1335 481 c 1,41,-1
 1596 0 l 1,42,-1
 1368 0 l 2,43,44
 1310 0 1310 0 1284 44 c 1,45,-1
 1102 414 l 2,46,47
 1090 437 1090 437 1076.5 444 c 128,-1,48
 1063 451 1063 451 1038 451 c 2,49,-1
 987 451 l 1,50,-1
 987 0 l 1,51,-1
 733 0 l 1,52,-1
 733 1268 l 1,0,1
EndSplineSet
Validated: 1
Ligature2: "sous-table 'liga' Ligatures standard dans Latin lookup 37" f k
EndChar

StartChar: f_f_k.liga
Encoding: 1114141 -1 88
Width: 2197
GlyphClass: 3
Flags: MW
LayerCount: 2
Fore
SplineSet
1315 1268 m 1,0,1
 1244 1297 1244 1297 1186 1297 c 128,-1,2
 1128 1297 1128 1297 1090 1278 c 0,3,4
 1050 1260 1050 1260 1024 1226 c 0,5,6
 970 1155 970 1155 971 1048 c 2,7,-1
 971 986 l 1,8,-1
 1189 986 l 1,9,-1
 1189 806 l 1,10,-1
 979 806 l 1,11,-1
 979 0 l 1,12,-1
 725 0 l 1,13,-1
 725 806 l 1,14,-1
 403 806 l 1,15,-1
 403 0 l 1,16,-1
 149 0 l 1,17,-1
 149 807 l 1,18,-1
 83 820 l 1,19,20
 19 831 19 831 19 883 c 2,21,-1
 19 986 l 1,22,-1
 149 986 l 1,23,-1
 149 1037 l 2,24,25
 149 1209 149 1209 243 1307 c 0,26,27
 338 1406 338 1406 504 1406 c 0,28,29
 554 1406 554 1406 622 1388 c 1,30,-1
 616 1261 l 2,31,32
 613 1215 613 1215 547 1215 c 0,33,34
 432 1214 432 1214 405 1118 c 0,35,36
 395 1082 395 1082 395 1029 c 2,37,-1
 395 986 l 1,38,-1
 725 986 l 1,39,-1
 725 1048 l 2,40,41
 725 1341 725 1341 979 1429 c 0,42,43
 1068 1460 1068 1460 1154 1460 c 128,-1,44
 1240 1460 1240 1460 1281 1456 c 128,-1,45
 1322 1452 1322 1452 1364 1448 c 0,46,47
 1478 1437 1478 1437 1555 1437 c 0,48,49
 1560 1437 1560 1437 1567 1437 c 2,50,-1
 1569 1437 l 1,51,-1
 1569 619 l 1,52,-1
 1608 619 l 2,53,54
 1647 619 1647 619 1670 652 c 1,55,-1
 1852 950 l 1,56,57
 1884 993 1884 993 1935 993 c 2,58,-1
 2167 993 l 1,59,-1
 1927 628 l 1,60,61
 1894 585 1894 585 1851 558 c 1,62,63
 1882 535 1882 535 1917 481 c 1,64,-1
 2178 0 l 1,65,-1
 1950 0 l 2,66,67
 1892 0 1892 0 1866 44 c 1,68,-1
 1684 414 l 2,69,70
 1672 437 1672 437 1658.5 444 c 128,-1,71
 1645 451 1645 451 1620 451 c 2,72,-1
 1569 451 l 1,73,-1
 1569 0 l 1,74,-1
 1315 0 l 1,75,-1
 1315 1268 l 1,0,1
EndSplineSet
Validated: 33
LCarets2: 2 0 0
Ligature2: "sous-table 'liga' Ligatures standard dans Latin lookup 37" f f k
EndChar

StartChar: uniFB02
Encoding: 64258 64258 89
Width: 1135
GlyphClass: 3
Flags: MW
LayerCount: 2
Fore
SplineSet
591 1248 m 1,0,1
 401 1248 401 1248 401 1026 c 2,2,-1
 401 986 l 1,3,-1
 610 986 l 1,4,-1
 610 806 l 1,5,-1
 409 806 l 1,6,-1
 409 0 l 1,7,-1
 155 0 l 1,8,-1
 155 806 l 1,9,-1
 85 820 l 1,10,11
 20 831 20 831 20 883 c 2,12,-1
 20 986 l 1,13,-1
 155 986 l 1,14,-1
 155 1026 l 2,15,16
 156 1198 156 1198 250 1306 c 0,17,18
 357 1428 357 1428 549 1428 c 1,19,-1
 842 1416 l 1,20,-1
 1007 1416 l 1,21,-1
 1007 0 l 1,22,-1
 755 0 l 1,23,-1
 755 1241 l 1,24,-1
 591 1248 l 1,0,1
EndSplineSet
Validated: 1
Ligature2: "sous-table 'liga' Ligatures standard dans Latin lookup 37" f l
EndChar

StartChar: uniFB04
Encoding: 64260 64260 90
Width: 1718
GlyphClass: 3
Flags: MW
LayerCount: 2
Fore
SplineSet
1177 1248 m 0,0,1
 989 1248 989 1248 989 1026 c 2,2,-1
 989 986 l 1,3,-1
 1216 986 l 1,4,-1
 1216 806 l 1,5,-1
 997 806 l 1,6,-1
 997 0 l 1,7,-1
 743 0 l 1,8,-1
 743 806 l 1,9,-1
 407 806 l 1,10,-1
 407 0 l 1,11,-1
 153 0 l 1,12,-1
 153 806 l 1,13,-1
 84 820 l 1,14,15
 20 831 20 831 20 883 c 2,16,-1
 20 986 l 1,17,-1
 153 986 l 1,18,-1
 153 1037 l 2,19,20
 154 1207 154 1207 250 1307 c 0,21,22
 346 1406 346 1406 514 1406 c 0,23,24
 565 1406 565 1406 635 1388 c 1,25,-1
 629 1261 l 1,26,27
 626 1215 626 1215 557 1215 c 0,28,29
 438 1214 438 1214 410 1118 c 0,30,31
 400 1082 400 1082 400 1029 c 2,32,-1
 400 986 l 1,33,-1
 743 986 l 1,34,-1
 743 1026 l 2,35,36
 743 1198 743 1198 837 1306 c 0,37,38
 943 1428 943 1428 1135 1428 c 1,39,-1
 1449 1416 l 1,40,-1
 1591 1416 l 1,41,-1
 1591 0 l 1,42,-1
 1339 0 l 1,43,-1
 1339 1242 l 1,44,45
 1198 1248 1198 1248 1177 1248 c 0,0,1
EndSplineSet
Validated: 1
Ligature2: "sous-table 'liga' Ligatures standard dans Latin lookup 37" f f l
EndChar

StartChar: f_t.liga
Encoding: 1114142 -1 91
Width: 1302
GlyphClass: 3
Flags: MW
LayerCount: 2
Fore
SplineSet
504 1423 m 0,0,1
 576 1423 576 1423 636 1405 c 1,2,-1
 630 1278 l 1,3,4
 627 1233 627 1233 558 1233 c 0,5,6
 438 1233 438 1233 410 1136 c 0,7,8
 400 1100 400 1100 400 1047 c 2,9,-1
 400 986 l 1,10,-1
 770 986 l 1,11,-1
 824 1251 l 2,12,13
 833 1292 833 1292 880 1292 c 2,14,-1
 1012 1292 l 1,15,-1
 1012 986 l 1,16,-1
 1250 986 l 1,17,-1
 1250 806 l 1,18,-1
 1012 806 l 1,19,-1
 1012 281 l 2,20,21
 1012 237 1012 237 1030.5 212.5 c 128,-1,22
 1049 188 1049 188 1074 188 c 128,-1,23
 1099 188 1099 188 1111 192.5 c 128,-1,24
 1123 197 1123 197 1132 203 c 0,25,26
 1154 218 1154 218 1165 218 c 0,27,28
 1182 218 1182 218 1197 195 c 2,29,-1
 1274 72 l 1,30,31
 1169 -15 1169 -15 1031.5 -15 c 128,-1,32
 894 -15 894 -15 826 59.5 c 128,-1,33
 758 134 758 134 758 264 c 2,34,-1
 758 806 l 1,35,-1
 408 806 l 1,36,-1
 408 0 l 1,37,-1
 154 0 l 1,38,-1
 154 806 l 1,39,-1
 84 820 l 1,40,41
 20 831 20 831 20 883 c 2,42,-1
 20 986 l 1,43,-1
 154 986 l 1,44,-1
 154 1055 l 2,45,46
 154 1224 154 1224 250 1324 c 0,47,48
 346 1423 346 1423 504 1423 c 0,0,1
EndSplineSet
Validated: 1
Ligature2: "sous-table 'liga' Ligatures standard dans Latin lookup 37" f t
EndChar

StartChar: f_f_t.liga
Encoding: 1114143 -1 92
Width: 1886
GlyphClass: 3
Flags: MW
LayerCount: 2
Fore
SplineSet
1858 72 m 1,0,1
 1753 -15 1753 -15 1616 -15 c 128,-1,2
 1479 -15 1479 -15 1411.5 59.5 c 128,-1,3
 1344 134 1344 134 1344 264 c 2,4,-1
 1344 806 l 1,5,-1
 996 806 l 1,6,-1
 996 0 l 1,7,-1
 742 0 l 1,8,-1
 742 806 l 1,9,-1
 407 806 l 1,10,-1
 407 0 l 1,11,-1
 153 0 l 1,12,-1
 153 806 l 1,13,-1
 84 820 l 1,14,15
 20 831 20 831 20 883 c 2,16,-1
 20 986 l 1,17,-1
 153 986 l 1,18,-1
 153 1037 l 2,19,20
 154 1207 154 1207 250 1307 c 0,21,22
 346 1406 346 1406 514 1406 c 0,23,24
 566 1406 566 1406 634 1388 c 1,25,-1
 628 1261 l 2,26,27
 625 1215 625 1215 557 1215 c 0,28,29
 438 1214 438 1214 410 1118 c 0,30,31
 400 1082 400 1082 399 1029 c 2,32,-1
 399 986 l 1,33,-1
 742 986 l 1,34,-1
 742 1055 l 2,35,36
 742 1225 742 1225 838 1324 c 0,37,38
 934 1423 934 1423 1102 1423 c 0,39,40
 1162 1423 1162 1423 1222 1405 c 1,41,-1
 1218 1278 l 1,42,43
 1215 1233 1215 1233 1145 1233 c 0,44,45
 1026 1233 1026 1233 998 1136 c 0,46,47
 988 1100 988 1100 988 1047 c 2,48,-1
 988 986 l 1,49,-1
 1356 986 l 1,50,-1
 1409 1251 l 1,51,52
 1420 1292 1420 1292 1465 1292 c 2,53,-1
 1598 1292 l 1,54,-1
 1598 986 l 1,55,-1
 1834 986 l 1,56,-1
 1834 806 l 1,57,-1
 1598 806 l 1,58,-1
 1598 281 l 2,59,60
 1598 237 1598 237 1616 212.5 c 128,-1,61
 1634 188 1634 188 1659 188 c 128,-1,62
 1684 188 1684 188 1695.5 192.5 c 128,-1,63
 1707 197 1707 197 1716 203 c 0,64,65
 1738 218 1738 218 1753 218 c 128,-1,66
 1768 218 1768 218 1782 195 c 2,67,-1
 1858 72 l 1,0,1
EndSplineSet
Validated: 1
Ligature2: "sous-table 'liga' Ligatures standard dans Latin lookup 37" f f t
EndChar

StartChar: g
Encoding: 103 103 93
Width: 1099
GlyphClass: 2
Flags: MW
LayerCount: 2
Fore
SplineSet
484 1011 m 0,0,1
 640 1011 640 1011 744 898 c 1,2,-1
 757 948 l 2,3,4
 769 993 769 993 820 993 c 2,5,-1
 976 993 l 1,6,-1
 976 78 l 2,7,8
 976 -108 976 -108 844 -224 c 0,9,10
 708 -343 708 -343 480 -343 c 0,11,12
 247 -343 247 -343 111 -217 c 1,13,-1
 170 -121 l 2,14,15
 193 -85 193 -85 225.5 -85 c 128,-1,16
 258 -85 258 -85 278 -97 c 128,-1,17
 298 -109 298 -109 324 -124 c 0,18,19
 390 -163 390 -163 463 -163 c 128,-1,20
 536 -163 536 -163 582 -145 c 0,21,22
 629 -128 629 -128 660 -96 c 0,23,24
 722 -32 722 -32 722 65 c 2,25,-1
 722 131 l 1,26,27
 636 40 636 40 536 20 c 0,28,29
 500 13 500 13 432 13 c 128,-1,30
 364 13 364 13 291.5 47.5 c 128,-1,31
 219 82 219 82 168 146 c 0,32,33
 63 279 63 279 63 511 c 0,34,35
 63 724 63 724 178 866 c 0,36,37
 296 1011 296 1011 481 1011 c 0,38,39
 483 1011 483 1011 484 1011 c 0,0,1
325 511 m 256,40,41
 325 213 325 213 524 213 c 0,42,43
 587 213 587 213 633 241 c 128,-1,44
 679 269 679 269 722 323 c 1,45,-1
 722 736 l 1,46,47
 651 820 651 820 548 820 c 128,-1,48
 445 820 445 820 385 744 c 128,-1,49
 325 668 325 668 325 511 c 256,40,41
EndSplineSet
Validated: 1
Substitution2: "sous-table 'ordn' Ordinaux dans Latin lookup 39" g.superior
Substitution2: "sous-table 'ss04' Style 4 lookups34" g.salt
Substitution2: "sous-table 'salt' Alternatives stylistiques lookups28" g.salt
Substitution2: "sous-table 'sups' Exposant lookups25" g.superior
EndChar

StartChar: g.salt
Encoding: 1114144 -1 94
Width: 971
GlyphClass: 2
Flags: MW
LayerCount: 2
Fore
SplineSet
237 422 m 1,0,1
 82 510 82 510 82 689 c 0,2,3
 82 834 82 834 190 924 c 0,4,5
 295 1010 295 1010 461 1010 c 0,6,7
 579 1010 579 1010 673 960 c 1,8,-1
 949 960 l 1,9,-1
 949 865 l 2,10,11
 949 822 949 822 895 811 c 2,12,-1
 817 795 l 1,13,14
 835 745 835 745 835 680 c 128,-1,15
 835 615 835 615 806.5 555.5 c 128,-1,16
 778 496 778 496 728 454 c 0,17,18
 623 367 623 367 461 367 c 0,19,20
 414 367 414 367 368 375 c 1,21,22
 331 351 331 351 331 320.5 c 128,-1,23
 331 290 331 290 357 277 c 128,-1,24
 383 264 383 264 425 258.5 c 128,-1,25
 467 253 467 253 521 251.5 c 128,-1,26
 575 250 575 250 631.5 245 c 128,-1,27
 688 240 688 240 742 228 c 128,-1,28
 796 216 796 216 838 189 c 0,29,30
 932 129 932 129 932 1 c 0,31,32
 932 -139 932 -139 811 -239 c 0,33,34
 681 -347 681 -347 470 -347 c 0,35,36
 266 -347 266 -347 150 -267 c 0,37,38
 47 -196 47 -196 47 -76.5 c 128,-1,39
 47 43 47 43 190 103 c 1,40,41
 112 148 112 148 112 247 c 0,42,43
 112 320 112 320 182 384 c 0,44,45
 205 405 205 405 237 422 c 1,0,1
267 -53 m 0,46,47
 267 -167 267 -167 482.5 -167 c 128,-1,48
 698 -167 698 -167 698 -42 c 256,49,50
 698 26 698 26 581 42 c 0,51,52
 530 49 530 49 456 52.5 c 128,-1,53
 382 56 382 56 341 61 c 1,54,55
 267 14 267 14 267 -53 c 0,46,47
611 683 m 0,56,57
 611 834 611 834 461.5 834 c 128,-1,58
 312 834 312 834 312 683 c 0,59,60
 312 615 312 615 348.5 572.5 c 128,-1,61
 385 530 385 530 461.5 530 c 128,-1,62
 538 530 538 530 574.5 572 c 128,-1,63
 611 614 611 614 611 683 c 0,56,57
EndSplineSet
Validated: 1
Substitution2: "sous-table 'sups' Exposant lookups25" g.superior.salt
Substitution2: "sous-table 'ordn' Ordinaux dans Latin lookup 39" g.superior.salt
EndChar

StartChar: h
Encoding: 104 104 95
Width: 1099
GlyphClass: 2
Flags: MW
LayerCount: 2
Fore
SplineSet
583 811 m 0,0,1
 474 811 474 811 379 716 c 1,2,-1
 379 0 l 1,3,-1
 125 0 l 1,4,-1
 125 1437 l 1,5,-1
 379 1437 l 1,6,-1
 379 893 l 1,7,8
 506 1009 506 1009 661 1009 c 0,9,10
 819 1009 819 1009 908 903 c 0,11,12
 993 802 993 802 993 632 c 2,13,-1
 993 0 l 1,14,-1
 739 0 l 1,15,-1
 739 632 l 2,16,17
 739 811 739 811 583 811 c 0,0,1
EndSplineSet
Validated: 1
Substitution2: "sous-table 'ordn' Ordinaux dans Latin lookup 39" h.superior
Substitution2: "sous-table 'sups' Exposant lookups25" h.superior
EndChar

StartChar: hbar
Encoding: 295 295 97
Width: 1121
GlyphClass: 2
Flags: MW
LayerCount: 2
Fore
SplineSet
718 732.5 m 128,-1,1
 678 780 678 780 583.5 780 c 128,-1,2
 489 780 489 780 390 683 c 1,3,-1
 390 0 l 1,4,-1
 136 0 l 1,5,-1
 136 1094 l 1,6,-1
 -1 1094 l 1,7,-1
 -1 1251 l 1,8,-1
 136 1251 l 1,9,-1
 136 1437 l 1,10,-1
 390 1437 l 1,11,-1
 390 1251 l 1,12,-1
 659 1251 l 1,13,-1
 659 1094 l 1,14,-1
 390 1094 l 1,15,-1
 390 860 l 1,16,17
 518 977 518 977 676 977 c 0,18,19
 836 977 836 977 926 871 c 0,20,21
 1012 769 1012 769 1012 600 c 2,22,-1
 1012 0 l 1,23,-1
 758 0 l 1,24,-1
 758 600 l 2,25,0
 758 685 758 685 718 732.5 c 128,-1,1
EndSplineSet
Validated: 1
EndChar

StartChar: dotlessi
Encoding: 305 305 100
Width: 503
GlyphClass: 2
Flags: MW
LayerCount: 2
Fore
SplineSet
379 993 m 1,0,-1
 379 0 l 1,1,-1
 125 0 l 1,2,-1
 125 993 l 1,3,-1
 379 993 l 1,0,-1
EndSplineSet
Validated: 1
EndChar

StartChar: ij.salt
Encoding: 1114145 -1 101
Width: 1082
GlyphClass: 2
Flags: MW
LayerCount: 2
Fore
SplineSet
691 80 m 1,0,1
 597 -14 597 -14 457 -14 c 0,2,3
 291 -14 291 -14 199 92 c 0,4,5
 112 192 112 192 112 362 c 2,6,-1
 112 993 l 1,7,-1
 366 993 l 1,8,-1
 366 362 l 2,9,10
 366 276 366 276 410 229 c 128,-1,11
 454 182 454 182 536 182 c 128,-1,12
 618 182 618 182 660 223 c 0,13,14
 676 238 676 238 691 260 c 1,15,-1
 691 993 l 1,16,-1
 945 993 l 1,17,-1
 945 30 l 2,18,19
 945 -237 945 -237 729 -317 c 0,20,21
 653 -345 653 -345 582 -345 c 0,22,23
 469 -345 469 -345 408 -326 c 1,24,-1
 425 -190 l 2,25,26
 427 -170 427 -170 441 -163.5 c 128,-1,27
 455 -157 455 -157 498.5 -157 c 128,-1,28
 542 -157 542 -157 579 -147.5 c 128,-1,29
 616 -138 616 -138 641 -116 c 0,30,31
 691 -73 691 -73 691 30 c 2,32,-1
 691 80 l 1,0,1
395 1339.5 m 128,-1,34
 408 1311 408 1311 408 1278.5 c 128,-1,35
 408 1246 408 1246 395 1218 c 128,-1,36
 382 1190 382 1190 360 1168 c 0,37,38
 314 1122 314 1122 244 1121 c 0,39,40
 179 1121 179 1121 132.5 1167.5 c 128,-1,41
 86 1214 86 1214 86 1262.5 c 128,-1,42
 86 1311 86 1311 98 1340 c 0,43,44
 110 1368 110 1368 132 1390 c 0,45,46
 179 1437 179 1437 228 1437 c 0,47,48
 278 1437 278 1437 307.5 1424.5 c 128,-1,49
 337 1412 337 1412 359.5 1390 c 128,-1,33
 382 1368 382 1368 395 1339.5 c 128,-1,34
971 1339.5 m 128,-1,51
 984 1311 984 1311 984 1278.5 c 128,-1,52
 984 1246 984 1246 971 1218 c 128,-1,54
 958 1190 958 1190 936 1168 c 0,55,56
 890 1122 890 1122 821 1121 c 0,57,58
 758 1122 758 1122 710 1168 c 0,59,60
 663 1214 663 1214 663 1278 c 0,61,62
 663 1343 663 1343 710 1390 c 128,-1,63
 757 1437 757 1437 806 1437 c 128,-1,64
 855 1437 855 1437 884.5 1424.5 c 128,-1,65
 914 1412 914 1412 936 1390 c 128,-1,50
 958 1368 958 1368 971 1339.5 c 128,-1,51
EndSplineSet
Validated: 1
LCarets2: 1 0
Ligature2: "sous-table 'dlig' Ligatures facultatives  dans Latin lookup 36" i j
EndChar

StartChar: uni0237
Encoding: 567 567 103
Width: 523
GlyphClass: 2
Flags: MW
LayerCount: 2
Fore
SplineSet
216 -320 m 0,0,1
 153 -346 153 -346 76 -346 c 128,-1,2
 -1 -346 -1 -346 -65 -328 c 1,3,-1
 -56 -192 l 2,4,5
 -54 -172 -54 -172 -41 -165.5 c 128,-1,6
 -28 -159 -28 -159 8.5 -159 c 128,-1,7
 45 -159 45 -159 70 -152.5 c 128,-1,8
 95 -146 95 -146 110 -130 c 0,9,10
 137 -101 137 -101 137 -24 c 2,11,-1
 137 993 l 1,12,-1
 391 993 l 1,13,-1
 391 -24 l 2,14,15
 391 -249 391 -249 216 -320 c 0,0,1
EndSplineSet
Validated: 1
EndChar

StartChar: k
Encoding: 107 107 104
Width: 983
GlyphClass: 2
Flags: MW
LayerCount: 2
Fore
SplineSet
361 1437 m 1,0,-1
 361 619 l 1,1,-1
 400 619 l 2,2,3
 439 619 439 619 462 652 c 1,4,-1
 644 950 l 1,5,6
 676 993 676 993 727 993 c 2,7,-1
 959 993 l 1,8,-1
 719 628 l 1,9,10
 686 585 686 585 643 558 c 1,11,12
 674 535 674 535 709 481 c 1,13,-1
 970 0 l 1,14,-1
 742 0 l 2,15,16
 684 0 684 0 658 44 c 1,17,-1
 476 414 l 2,18,19
 464 437 464 437 450.5 444 c 128,-1,20
 437 451 437 451 412 451 c 2,21,-1
 361 451 l 1,22,-1
 361 0 l 1,23,-1
 107 0 l 1,24,-1
 107 1437 l 1,25,-1
 361 1437 l 1,0,-1
EndSplineSet
Validated: 1
Substitution2: "sous-table 'ordn' Ordinaux dans Latin lookup 39" k.superior
Substitution2: "sous-table 'sups' Exposant lookups25" k.superior
EndChar

StartChar: kgreenlandic
Encoding: 312 312 105
Width: 983
GlyphClass: 2
Flags: MW
LayerCount: 2
Fore
SplineSet
360 993 m 1,0,-1
 360 619 l 1,1,-1
 399 619 l 2,2,3
 440 619 440 619 461 652 c 2,4,-1
 644 950 l 1,5,6
 676 993 676 993 727 993 c 2,7,-1
 959 993 l 1,8,-1
 718 628 l 1,9,10
 685 585 685 585 642 558 c 1,11,12
 673 535 673 535 708 481 c 1,13,-1
 970 0 l 1,14,-1
 742 0 l 2,15,16
 684 0 684 0 658 44 c 1,17,-1
 475 414 l 2,18,19
 463 437 463 437 450 444 c 128,-1,20
 437 451 437 451 411 451 c 2,21,-1
 360 451 l 1,22,-1
 360 0 l 1,23,-1
 106 0 l 1,24,-1
 106 993 l 1,25,-1
 360 993 l 1,0,-1
EndSplineSet
Validated: 1
EndChar

StartChar: lslash
Encoding: 322 322 106
Width: 540
GlyphClass: 2
Flags: MW
LayerCount: 2
Fore
SplineSet
405 1437 m 1,0,-1
 405 944 l 1,1,-1
 526 1002 l 1,2,-1
 526 856 l 2,3,4
 526 816 526 816 495 801 c 2,5,-1
 405 756 l 1,6,-1
 405 0 l 1,7,-1
 151 0 l 1,8,-1
 151 647 l 1,9,-1
 38 593 l 1,10,-1
 38 743 l 2,11,12
 38 777 38 777 67 791 c 2,13,-1
 151 834 l 1,14,-1
 151 1437 l 1,15,-1
 405 1437 l 1,0,-1
EndSplineSet
Validated: 1
EndChar

StartChar: m
Encoding: 109 109 108
Width: 1666
GlyphClass: 2
Flags: MW
LayerCount: 2
Fore
SplineSet
559 811 m 0,0,1
 462 811 462 811 382 723 c 1,2,-1
 382 0 l 1,3,-1
 128 0 l 1,4,-1
 128 993 l 1,5,-1
 284 993 l 2,6,7
 336 993 336 993 346 948 c 1,8,-1
 363 878 l 1,9,10
 425 942 425 942 469 966 c 0,11,12
 551 1009 551 1009 639.5 1009 c 128,-1,13
 728 1009 728 1009 789.5 958.5 c 128,-1,14
 851 908 851 908 881 825 c 1,15,16
 952 965 952 965 1110 998 c 0,17,18
 1158 1008 1158 1008 1224 1008 c 0,19,20
 1225 1009 1225 1009 1226 1009 c 0,21,-1
 1354 984 l 0,22,23
 1420 958 1420 958 1464 910 c 0,24,25
 1554 812 1554 812 1555 632 c 2,26,-1
 1555 0 l 1,27,-1
 1301 0 l 1,28,-1
 1301 632 l 2,29,30
 1301 811 1301 811 1141 811 c 0,31,32
 1139 811 1139 811 1139 811 c 0,33,34
 1022 812 1022 812 982 710 c 0,35,36
 969 677 969 677 969 638 c 0,37,38
 969 635 969 635 969 632 c 2,39,-1
 969 0 l 1,40,-1
 715 0 l 1,41,-1
 715 632 l 2,42,43
 715 811 715 811 559 811 c 0,0,1
EndSplineSet
Validated: 33
Substitution2: "sous-table 'ordn' Ordinaux dans Latin lookup 39" m.superior
Substitution2: "sous-table 'sups' Exposant lookups25" m.superior
EndChar

StartChar: n
Encoding: 110 110 109
Width: 1099
GlyphClass: 2
Flags: MW
LayerCount: 2
Fore
SplineSet
582 811 m 0,0,1
 473 811 473 811 378 716 c 1,2,-1
 378 0 l 1,3,-1
 124 0 l 1,4,-1
 124 993 l 1,5,-1
 280 993 l 2,6,7
 332 993 332 993 342 948 c 2,8,-1
 359 875 l 1,9,10
 493 1009 493 1009 660 1009 c 0,11,12
 818 1009 818 1009 907 903 c 0,13,14
 992 802 992 802 992 632 c 2,15,-1
 992 0 l 1,16,-1
 738 0 l 1,17,-1
 738 632 l 2,18,19
 738 811 738 811 582 811 c 0,0,1
EndSplineSet
Validated: 1
Substitution2: "sous-table 'ordn' Ordinaux dans Latin lookup 39" uni207F
Substitution2: "sous-table 'sups' Exposant lookups25" uni207F
EndChar

StartChar: eng
Encoding: 331 331 110
Width: 1099
GlyphClass: 2
Flags: MW
LayerCount: 2
Fore
SplineSet
582 811 m 0,0,1
 473 811 473 811 378 716 c 1,2,-1
 378 0 l 1,3,-1
 124 0 l 1,4,-1
 124 993 l 1,5,-1
 280 993 l 2,6,7
 332 993 332 993 342 948 c 2,8,-1
 359 875 l 1,9,10
 493 1009 493 1009 660 1009 c 0,11,12
 818 1009 818 1009 907 903 c 0,13,14
 992 802 992 802 992 632 c 2,15,-1
 992 43 l 2,16,17
 992 -234 992 -234 790 -318 c 0,18,19
 720 -347 720 -347 659 -347 c 128,-1,20
 598 -347 598 -347 575 -344.5 c 128,-1,21
 552 -342 552 -342 530 -338 c 0,22,23
 488 -329 488 -329 440 -307 c 1,24,-1
 468 -197 l 2,25,26
 481 -150 481 -150 524 -150 c 0,27,28
 539 -150 539 -150 555 -155 c 128,-1,29
 571 -160 571 -160 600 -160 c 0,30,31
 738 -160 738 -160 738 13 c 2,32,-1
 738 632 l 2,33,34
 738 811 738 811 582 811 c 0,0,1
EndSplineSet
Validated: 1
EndChar

StartChar: o
Encoding: 111 111 111
Width: 1101
GlyphClass: 2
Flags: MW
LayerCount: 2
Fore
SplineSet
552 1009 m 0,0,1
 662 1009 662 1009 751.5 973.5 c 128,-1,2
 841 938 841 938 905 872 c 0,3,4
 1039 733 1039 733 1039 499 c 0,5,6
 1039 264 1039 264 905 124 c 0,7,8
 772 -15 772 -15 552 -15 c 0,9,10
 331 -15 331 -15 196.5 123.5 c 128,-1,11
 62 262 62 262 62 499 c 0,12,13
 62 734 62 734 196 872 c 0,14,15
 329 1009 329 1009 549 1009 c 0,16,17
 550 1009 550 1009 552 1009 c 0,0,1
324 497 m 256,18,19
 324 179 324 179 550.5 179 c 128,-1,20
 777 179 777 179 777 497 c 256,21,22
 777 815 777 815 550.5 815 c 128,-1,23
 324 815 324 815 324 497 c 256,18,19
EndSplineSet
Validated: 1
Substitution2: "sous-table 'ordn' Ordinaux dans Latin lookup 39" o.superior
Substitution2: "sous-table 'sups' Exposant lookups25" o.superior
EndChar

StartChar: oslash
Encoding: 248 248 112
Width: 1114
GlyphClass: 2
Flags: MW
LayerCount: 2
Fore
SplineSet
570 1009 m 0,0,1
 692 1009 692 1009 798 956 c 1,2,-1
 848 1025 l 2,3,4
 877 1065 877 1065 893 1074 c 0,5,6
 922 1091 922 1091 963 1091 c 2,7,-1
 1088 1091 l 1,8,-1
 922 864 l 1,9,10
 1050 726 1050 726 1050 499 c 0,11,12
 1050 262 1050 262 915.5 123.5 c 128,-1,13
 781 -15 781 -15 559 -15 c 0,14,15
 424 -15 424 -15 318 37 c 1,16,-1
 290 -2 l 2,17,18
 237 -75 237 -75 137 -75 c 2,19,-1
 44 -75 l 1,20,-1
 194 130 l 1,21,22
 64 266 64 266 64 499 c 256,23,24
 64 732 64 732 200 872 c 0,25,26
 334 1009 334 1009 567 1009 c 0,27,28
 568 1009 568 1009 570 1009 c 0,0,1
310 497 m 0,29,30
 310 396 310 396 335 323 c 1,31,-1
 680 795 l 1,32,33
 630 823 630 823 559 823 c 0,34,35
 439 823 439 823 374.5 738.5 c 128,-1,36
 310 654 310 654 310 497 c 0,29,30
559 171 m 0,37,38
 676 171 676 171 740.5 255.5 c 128,-1,39
 805 340 805 340 805 497 c 0,40,41
 805 596 805 596 780 669 c 1,42,-1
 436 198 l 1,43,44
 487 171 487 171 559 171 c 0,37,38
EndSplineSet
Validated: 1
EndChar

StartChar: oe
Encoding: 339 339 113
Width: 1726
GlyphClass: 2
Flags: MW
LayerCount: 2
Fore
SplineSet
898 822 m 1,0,1
 1018 1009 1018 1009 1257 1009 c 0,2,3
 1434 1009 1434 1009 1546 882 c 0,4,5
 1661 752 1661 752 1661 538 c 0,6,7
 1661 456 1661 456 1633 444 c 0,8,9
 1622 440 1622 440 1605 440 c 2,10,-1
 1024 440 l 1,11,12
 1039 306 1039 306 1105 243.5 c 128,-1,13
 1171 181 1171 181 1275 181 c 0,14,15
 1356 182 1356 182 1436 224 c 0,16,17
 1466 240 1466 240 1489.5 253 c 128,-1,18
 1513 266 1513 266 1538.5 266 c 128,-1,19
 1564 266 1564 266 1582 243 c 2,20,-1
 1656 149 l 1,21,22
 1516 -15 1516 -15 1251 -15 c 0,23,24
 1146 -15 1146 -15 1053 31 c 128,-1,25
 960 77 960 77 900 175 c 1,26,27
 778 -15 778 -15 526 -15 c 0,28,29
 324 -14 324 -14 196 124 c 0,30,31
 66 265 66 265 66 499 c 0,32,33
 66 731 66 731 198 872 c 0,34,35
 326 1009 326 1009 532 1009 c 0,36,37
 533 1009 533 1009 535 1009 c 0,38,39
 777 1009 777 1009 898 822 c 1,0,1
771 497 m 256,40,41
 771 815 771 815 550 815 c 0,42,43
 435 815 435 815 381.5 734.5 c 128,-1,44
 328 654 328 654 328 497 c 256,45,46
 328 340 328 340 381.5 259.5 c 128,-1,47
 435 179 435 179 550 179 c 0,48,49
 771 179 771 179 771 497 c 256,40,41
1246 828 m 0,50,51
 1051 828 1051 828 1024 593 c 1,52,-1
 1435 593 l 1,53,54
 1435 750 1435 750 1331 808 c 0,55,56
 1295 828 1295 828 1246 828 c 0,50,51
EndSplineSet
Validated: 1
EndChar

StartChar: p
Encoding: 112 112 114
Width: 1099
GlyphClass: 2
Flags: MW
LayerCount: 2
Fore
SplineSet
615 -15 m 0,0,1
 475 -15 475 -15 377 76 c 1,2,-1
 377 -322 l 1,3,-1
 123 -322 l 1,4,-1
 123 993 l 1,5,-1
 279 993 l 2,6,7
 331 993 331 993 341 948 c 1,8,-1
 362 861 l 1,9,10
 429 935 429 935 482 963 c 0,11,12
 577 1012 577 1012 666 1012 c 128,-1,13
 755 1012 755 1012 821 978 c 128,-1,14
 887 944 887 944 935 880 c 0,15,16
 1036 744 1036 744 1036 504 c 0,17,18
 1036 280 1036 280 921 134 c 0,19,20
 803 -14 803 -14 615 -15 c 0,0,1
774 504 m 0,21,22
 774 811 774 811 589 811 c 0,23,24
 518 811 518 811 469 782.5 c 128,-1,25
 420 754 420 754 377 700 c 1,26,-1
 377 260 l 1,27,28
 446 177 446 177 555 177 c 0,29,30
 712 178 712 178 758 358 c 0,31,32
 774 420 774 420 774 504 c 0,21,22
EndSplineSet
Validated: 1
Substitution2: "sous-table 'ordn' Ordinaux dans Latin lookup 39" p.superior
Substitution2: "sous-table 'sups' Exposant lookups25" p.superior
EndChar

StartChar: thorn
Encoding: 254 254 115
Width: 1099
GlyphClass: 2
Flags: MW
LayerCount: 2
Fore
SplineSet
378 876 m 1,0,1
 504 1009 504 1009 677 1009 c 0,2,3
 838 1009 838 1009 936 878 c 0,4,5
 1036 743 1036 743 1036 504 c 0,6,7
 1036 280 1036 280 921 134 c 0,8,9
 803 -14 803 -14 616 -15 c 0,10,11
 533 -15 533 -15 478 14.5 c 128,-1,12
 423 44 423 44 378 95 c 1,13,-1
 378 -322 l 1,14,-1
 124 -322 l 1,15,-1
 124 1437 l 1,16,-1
 378 1437 l 1,17,-1
 378 876 l 1,0,1
774 504 m 0,18,19
 774 811 774 811 589 811 c 0,20,21
 518 811 518 811 469.5 782.5 c 128,-1,22
 421 754 421 754 378 700 c 1,23,-1
 378 262 l 1,24,25
 447 177 447 177 556 177 c 0,26,27
 712 178 712 178 758 358 c 0,28,29
 774 420 774 420 774 504 c 0,18,19
EndSplineSet
Validated: 1
EndChar

StartChar: q
Encoding: 113 113 116
Width: 1099
GlyphClass: 2
Flags: MW
LayerCount: 2
Fore
SplineSet
484 1012 m 0,0,1
 639 1012 639 1012 744 898 c 1,2,-1
 757 948 l 2,3,4
 769 993 769 993 820 993 c 2,5,-1
 976 993 l 1,6,-1
 976 -322 l 1,7,-1
 722 -322 l 1,8,-1
 722 119 l 1,9,10
 595 -15 595 -15 423 -15 c 0,11,12
 262 -15 262 -15 164 118 c 0,13,14
 63 255 63 255 63 494 c 0,15,16
 63 720 63 720 178 864 c 0,17,18
 296 1012 296 1012 484 1012 c 0,0,1
325 494 m 0,19,20
 325 186 325 186 511 186 c 0,21,22
 611 186 611 186 678 248 c 0,23,24
 700 268 700 268 722 296 c 1,25,-1
 722 736 l 1,26,27
 651 820 651 820 544 820 c 0,28,29
 386 820 386 820 340 640 c 0,30,31
 324 578 324 578 325 504 c 0,32,33
 325 499 325 499 325 494 c 0,19,20
EndSplineSet
Validated: 33
Substitution2: "sous-table 'ordn' Ordinaux dans Latin lookup 39" q.superior
Substitution2: "sous-table 'sups' Exposant lookups25" q.superior
EndChar

StartChar: r
Encoding: 114 114 117
Width: 728
GlyphClass: 2
Flags: MW
LayerCount: 2
Fore
SplineSet
640 758 m 1,0,-1
 545 767 l 1,1,2
 448 767 448 767 395 680 c 0,3,4
 378 652 378 652 364 616 c 1,5,-1
 364 0 l 1,6,-1
 110 0 l 1,7,-1
 110 993 l 1,8,-1
 259 993 l 2,9,10
 298 993 298 993 313.5 979 c 128,-1,11
 329 965 329 965 334 930 c 2,12,-1
 347 829 l 1,13,14
 444 1012 444 1012 591 1012 c 0,15,16
 656 1012 656 1012 698 981 c 1,17,-1
 679 791 l 2,18,19
 675 758 675 758 640 758 c 1,0,-1
EndSplineSet
Validated: 1
Substitution2: "sous-table 'ordn' Ordinaux dans Latin lookup 39" r.superior
Substitution2: "sous-table 'sups' Exposant lookups25" r.superior
EndChar

StartChar: s
Encoding: 115 115 118
Width: 817
GlyphClass: 2
Flags: MW
LayerCount: 2
Fore
SplineSet
700 793 m 2,0,1
 682 763 682 763 657 763 c 128,-1,2
 632 763 632 763 612 772 c 0,3,4
 594 782 594 782 570 794 c 0,5,6
 510 824 510 824 448 824 c 0,7,8
 387 824 387 824 354 796.5 c 128,-1,9
 321 769 321 769 321 730.5 c 128,-1,10
 321 692 321 692 340 671.5 c 128,-1,11
 359 651 359 651 390.5 635.5 c 128,-1,12
 422 620 422 620 461.5 607 c 128,-1,13
 501 594 501 594 543 579 c 128,-1,14
 585 564 585 564 624.5 543.5 c 128,-1,15
 664 523 664 523 696 493 c 0,16,17
 765 428 765 428 765 320 c 0,18,19
 765 169 765 169 666 79 c 0,20,21
 563 -15 563 -15 381 -15 c 0,22,23
 240 -15 240 -15 116 58 c 0,24,25
 78 80 78 80 51 106 c 1,26,-1
 110 202 l 1,27,28
 134 239 134 239 165.5 239 c 128,-1,29
 197 239 197 239 216 227 c 0,30,31
 236 214 236 214 259 200 c 0,32,33
 321 162 321 162 375 162 c 0,34,35
 432 162 432 162 456 171 c 128,-1,36
 480 180 480 180 496 196 c 0,37,38
 528 228 528 228 527 272 c 0,39,40
 526 317 526 317 494 340 c 0,41,42
 461 364 461 364 411 383 c 0,43,44
 371 398 371 398 304 420 c 0,45,46
 246 439 246 439 196 472 c 0,47,48
 80 549 80 549 80 702 c 0,49,50
 80 833 80 833 172 917 c 0,51,52
 272 1009 272 1009 442 1009 c 0,53,54
 638 1009 638 1009 757 885 c 1,55,-1
 700 793 l 2,0,1
EndSplineSet
Validated: 33
Substitution2: "sous-table 'ordn' Ordinaux dans Latin lookup 39" s.superior
Substitution2: "sous-table 'sups' Exposant lookups25" s.superior
EndChar

StartChar: scedilla
Encoding: 351 351 119
Width: 817
GlyphClass: 2
Flags: MW
LayerCount: 2
Fore
SplineSet
455 -56 m 1,0,1
 617 -93 617 -93 617 -201 c 0,2,3
 616 -265 616 -265 550 -305 c 0,4,5
 485 -344 485 -344 376 -344 c 0,6,7
 303 -344 303 -344 235 -324 c 1,8,-1
 258 -246 l 1,9,10
 264 -222 264 -222 282.5 -222 c 128,-1,11
 301 -222 301 -222 316.5 -228 c 128,-1,12
 332 -234 332 -234 360.5 -234 c 128,-1,13
 389 -234 389 -234 403.5 -223 c 128,-1,14
 418 -212 418 -212 418 -197 c 0,15,16
 418 -171 418 -171 385.5 -159.5 c 128,-1,17
 353 -148 353 -148 281 -138 c 1,18,-1
 323 -11 l 1,19,20
 154 8 154 8 51 106 c 1,21,-1
 110 202 l 1,22,23
 134 239 134 239 165.5 239 c 128,-1,24
 197 239 197 239 216 227 c 0,25,26
 236 214 236 214 259 200 c 0,27,28
 321 162 321 162 375 162 c 0,29,30
 432 162 432 162 456 171 c 128,-1,31
 480 180 480 180 496 196 c 0,32,33
 528 228 528 228 527 272 c 0,34,35
 526 317 526 317 494 340 c 0,36,37
 461 364 461 364 411 383 c 0,38,39
 371 398 371 398 304 420 c 0,40,41
 246 439 246 439 196 472 c 0,42,43
 80 549 80 549 80 702 c 0,44,45
 80 833 80 833 172 917 c 0,46,47
 272 1009 272 1009 442 1009 c 0,48,49
 638 1009 638 1009 757 885 c 1,50,-1
 700 793 l 2,51,52
 682 763 682 763 657 763 c 128,-1,53
 632 763 632 763 612 772 c 0,54,55
 594 782 594 782 570 794 c 0,56,57
 510 824 510 824 448 824 c 0,58,59
 387 824 387 824 354 796.5 c 128,-1,60
 321 769 321 769 321 730.5 c 128,-1,61
 321 692 321 692 340 671.5 c 128,-1,62
 359 651 359 651 390.5 635.5 c 128,-1,63
 422 620 422 620 461.5 607 c 128,-1,64
 501 594 501 594 543 579 c 128,-1,65
 585 564 585 564 624.5 543.5 c 128,-1,66
 664 523 664 523 696 493 c 0,67,68
 765 428 765 428 765 320 c 0,69,70
 765 117 765 117 596 30 c 0,71,72
 542 2 542 2 468 -8 c 1,73,-1
 455 -56 l 1,0,1
EndSplineSet
Validated: 33
Substitution2: "sous-table 'salt' Alternatives stylistiques dans Latin lookup 8" uni0219
EndChar

StartChar: s_t.dlig
Encoding: 1114146 -1 120
Width: 1492
GlyphClass: 3
Flags: MW
LayerCount: 2
Fore
SplineSet
1496 72 m 1,0,1
 1393 -15 1393 -15 1257.5 -15 c 128,-1,2
 1122 -15 1122 -15 1055.5 59.5 c 128,-1,3
 989 134 989 134 989 264 c 2,4,-1
 989 806 l 1,5,-1
 906 806 l 2,6,7
 886 806 886 806 872 819.5 c 128,-1,8
 858 833 858 833 858 859 c 2,9,-1
 858 960 l 1,10,-1
 1017 991 l 1,11,12
 1070 1134 1070 1134 1070 1225 c 0,13,14
 1070 1308 1070 1308 1040 1344 c 0,15,16
 986 1410 986 1410 891 1410 c 0,17,18
 773 1410 773 1410 709 1334 c 0,19,20
 650 1264 650 1264 650 1151 c 0,21,22
 650 999 650 999 770 885 c 1,23,-1
 713 836 l 1,24,-1
 687 793 l 2,25,26
 669 763 669 763 644 763 c 128,-1,27
 619 763 619 763 599.5 772.5 c 128,-1,28
 580 782 580 782 556 794 c 0,29,30
 494 824 494 824 434 824 c 128,-1,31
 374 824 374 824 341 796.5 c 128,-1,32
 308 769 308 769 308 730.5 c 128,-1,33
 308 692 308 692 327 671.5 c 128,-1,34
 346 651 346 651 377.5 635.5 c 128,-1,35
 409 620 409 620 448.5 607 c 128,-1,36
 488 594 488 594 530 579 c 128,-1,37
 572 564 572 564 612 544 c 0,38,39
 650 523 650 523 682 493 c 0,40,41
 752 427 752 427 752 317 c 0,42,43
 752 168 752 168 654 79 c 0,44,45
 550 -15 550 -15 368 -15 c 0,46,47
 226 -15 226 -15 102 58 c 0,48,49
 64 80 64 80 38 106 c 1,50,-1
 97 202 l 1,51,52
 121 239 121 239 152.5 239 c 128,-1,53
 184 239 184 239 204 227 c 0,54,55
 223 214 223 214 246 200 c 0,56,57
 308 162 308 162 362 162 c 0,58,59
 417 162 417 162 442.5 171 c 128,-1,60
 468 180 468 180 484 196 c 0,61,62
 514 226 514 226 514 271 c 128,-1,63
 514 316 514 316 481 340.5 c 128,-1,64
 448 365 448 365 398 383 c 128,-1,65
 348 401 348 401 290 420 c 128,-1,66
 232 439 232 439 183 472 c 0,67,68
 67 550 67 550 67 705 c 0,69,70
 67 834 67 834 158 917 c 0,71,72
 259 1009 259 1009 429 1009 c 0,73,74
 498 1009 498 1009 560 991 c 1,75,76
 533 1067 533 1067 533 1144 c 0,77,78
 533 1220 533 1220 553 1287 c 0,79,80
 573 1353 573 1353 616 1404 c 0,81,82
 708 1513 708 1513 888 1513 c 0,83,84
 889 1513 889 1513 891 1513 c 0,85,86
 1066 1513 1066 1513 1160 1409 c 0,87,88
 1244 1317 1244 1317 1243 1182 c 2,89,-1
 1243 986 l 1,90,-1
 1473 986 l 1,91,-1
 1473 806 l 1,92,-1
 1243 806 l 1,93,-1
 1243 281 l 2,94,95
 1243 188 1243 188 1308 188 c 0,96,97
 1334 188 1334 188 1349 198 c 0,98,99
 1377 218 1377 218 1387 218 c 0,100,101
 1404 218 1404 218 1419 195 c 2,102,-1
 1496 72 l 1,0,1
EndSplineSet
Validated: 33
LCarets2: 1 0
Ligature2: "sous-table 'dlig' Ligatures facultatives  dans Latin lookup 36" s t
EndChar

StartChar: glyph121
Encoding: 1114147 -1 121
Width: 1492
GlyphClass: 3
Flags: MW
LayerCount: 2
Fore
SplineSet
441 -56 m 1,0,1
 603 -93 603 -93 603 -201 c 0,2,3
 602 -265 602 -265 536 -305 c 0,4,5
 471 -344 471 -344 362 -344 c 0,6,7
 289 -344 289 -344 221 -324 c 1,8,-1
 244 -246 l 1,9,10
 250 -222 250 -222 268.5 -222 c 128,-1,11
 287 -222 287 -222 302.5 -228 c 128,-1,12
 318 -234 318 -234 346.5 -234 c 128,-1,13
 375 -234 375 -234 389.5 -223 c 128,-1,14
 404 -212 404 -212 404 -197 c 0,15,16
 404 -171 404 -171 371.5 -159.5 c 128,-1,17
 339 -148 339 -148 267 -138 c 1,18,-1
 309 -11 l 1,19,20
 138 8 138 8 38 106 c 1,21,-1
 97 202 l 1,22,23
 121 239 121 239 152.5 239 c 128,-1,24
 184 239 184 239 204 227 c 0,25,26
 223 214 223 214 246 200 c 0,27,28
 308 162 308 162 362 162 c 0,29,30
 417 162 417 162 442.5 171 c 128,-1,31
 468 180 468 180 484 196 c 0,32,33
 514 226 514 226 514 271 c 128,-1,34
 514 316 514 316 481 340.5 c 128,-1,35
 448 365 448 365 398 383 c 128,-1,36
 348 401 348 401 290 420 c 128,-1,37
 232 439 232 439 183 472 c 0,38,39
 67 550 67 550 67 705 c 0,40,41
 67 834 67 834 158 917 c 0,42,43
 259 1009 259 1009 429 1009 c 0,44,45
 498 1009 498 1009 560 991 c 1,46,47
 533 1067 533 1067 533 1144 c 0,48,49
 533 1220 533 1220 553 1287 c 0,50,51
 573 1353 573 1353 616 1404 c 0,52,53
 708 1513 708 1513 888 1513 c 0,54,55
 889 1513 889 1513 891 1513 c 0,56,57
 1066 1513 1066 1513 1160 1409 c 0,58,59
 1244 1317 1244 1317 1243 1182 c 2,60,-1
 1243 986 l 1,61,-1
 1473 986 l 1,62,-1
 1473 806 l 1,63,-1
 1243 806 l 1,64,-1
 1243 281 l 2,65,66
 1243 188 1243 188 1308 188 c 0,67,68
 1334 188 1334 188 1349 198 c 0,69,70
 1377 218 1377 218 1387 218 c 0,71,72
 1404 218 1404 218 1419 195 c 2,73,-1
 1496 72 l 1,74,75
 1393 -15 1393 -15 1257.5 -15 c 128,-1,76
 1122 -15 1122 -15 1055.5 59.5 c 128,-1,77
 989 134 989 134 989 264 c 2,78,-1
 989 806 l 1,79,-1
 906 806 l 2,80,81
 886 806 886 806 872 819.5 c 128,-1,82
 858 833 858 833 858 859 c 2,83,-1
 858 960 l 1,84,-1
 1017 991 l 1,85,86
 1070 1134 1070 1134 1070 1225 c 0,87,88
 1070 1308 1070 1308 1040 1344 c 0,89,90
 986 1410 986 1410 891 1410 c 0,91,92
 773 1410 773 1410 709 1334 c 0,93,94
 650 1264 650 1264 650 1151 c 0,95,96
 650 999 650 999 770 885 c 1,97,-1
 713 836 l 1,98,-1
 687 793 l 2,99,100
 669 763 669 763 644 763 c 128,-1,101
 619 763 619 763 599.5 772.5 c 128,-1,102
 580 782 580 782 556 794 c 0,103,104
 494 824 494 824 434 824 c 128,-1,105
 374 824 374 824 341 796.5 c 128,-1,106
 308 769 308 769 308 730.5 c 128,-1,107
 308 692 308 692 327 671.5 c 128,-1,108
 346 651 346 651 377.5 635.5 c 128,-1,109
 409 620 409 620 448.5 607 c 128,-1,110
 488 594 488 594 530 579 c 128,-1,111
 572 564 572 564 612 544 c 0,112,113
 650 523 650 523 682 493 c 0,114,115
 752 427 752 427 752 317 c 0,116,117
 752 189 752 189 676 101 c 0,118,119
 597 11 597 11 454 -9 c 1,120,-1
 441 -56 l 1,0,1
EndSplineSet
Validated: 33
EndChar

StartChar: germandbls
Encoding: 223 223 122
Width: 1136
GlyphClass: 2
Flags: MW
LayerCount: 2
Fore
SplineSet
596 1241 m 0,0,1
 369 1241 369 1241 369 940 c 2,2,-1
 369 0 l 1,3,-1
 115 0 l 1,4,-1
 115 947 l 2,5,6
 116 1158 116 1158 246 1288 c 0,7,8
 381 1423 381 1423 604 1423 c 0,9,10
 605 1423 605 1423 607 1423 c 128,-1,11
 609 1423 609 1423 610 1423 c 0,12,13
 812 1424 812 1424 926 1306 c 0,14,15
 1019 1210 1019 1210 1019 1090 c 0,16,17
 1019 960 1019 960 904 876 c 0,18,19
 826 819 826 819 807.5 796.5 c 128,-1,20
 789 774 789 774 789 745 c 128,-1,21
 789 716 789 716 811 693 c 128,-1,22
 833 670 833 670 865.5 647.5 c 128,-1,23
 898 625 898 625 936 600 c 0,24,25
 976 574 976 574 1008 537 c 0,26,27
 1084 449 1084 449 1084 323 c 0,28,29
 1084 163 1084 163 974 70 c 0,30,31
 873 -15 873 -15 721 -15 c 0,32,33
 719 -15 719 -15 717 -15 c 0,34,35
 596 -15 596 -15 482 58 c 0,36,37
 448 80 448 80 420 106 c 1,38,-1
 479 202 l 1,39,40
 503 239 503 239 534.5 239 c 128,-1,41
 566 239 566 239 586 227 c 0,42,43
 606 213 606 213 627 200 c 0,44,45
 687 162 687 162 724 162 c 0,46,47
 762 162 762 162 782 171 c 0,48,49
 803 181 803 181 816 196 c 0,50,51
 846 231 846 231 846 278 c 0,52,53
 846 327 846 327 822 356 c 128,-1,54
 798 385 798 385 762 408.5 c 128,-1,55
 726 432 726 432 684.5 455 c 128,-1,56
 643 478 643 478 607 509 c 0,57,58
 523 581 523 581 523 696 c 0,59,60
 524 824 524 824 648 918 c 0,61,62
 723 975 723 975 747.5 1012.5 c 128,-1,63
 772 1050 772 1050 772 1085.5 c 128,-1,64
 772 1121 772 1121 762 1149 c 128,-1,65
 752 1177 752 1177 730 1197 c 0,66,67
 682 1241 682 1241 596 1241 c 0,0,1
EndSplineSet
Validated: 33
EndChar

StartChar: longs
Encoding: 383 383 123
Width: 529
GlyphClass: 2
Flags: MW
LayerCount: 2
Fore
SplineSet
504 1423 m 0,0,1
 577 1423 577 1423 637 1405 c 1,2,-1
 628 1274 l 2,3,4
 626 1251 626 1251 605 1246 c 128,-1,5
 584 1241 584 1241 558 1241 c 0,6,7
 483 1241 483 1241 445.5 1197 c 128,-1,8
 408 1153 408 1153 408 1047 c 2,9,-1
 408 0 l 1,10,-1
 154 0 l 1,11,-1
 154 806 l 1,12,-1
 84 820 l 1,13,14
 20 831 20 831 20 883 c 2,15,-1
 20 986 l 1,16,-1
 154 986 l 1,17,-1
 154 1055 l 2,18,19
 154 1224 154 1224 250 1324 c 0,20,21
 346 1423 346 1423 504 1423 c 0,0,1
EndSplineSet
Validated: 1
EndChar

StartChar: t
Encoding: 116 116 124
Width: 710
GlyphClass: 2
Flags: MW
LayerCount: 2
Fore
SplineSet
680 72 m 1,0,1
 575 -15 575 -15 435 -15 c 128,-1,2
 295 -15 295 -15 226 59.5 c 128,-1,3
 157 134 157 134 157 264 c 2,4,-1
 157 806 l 1,5,-1
 67 806 l 2,6,7
 47 806 47 806 33 819.5 c 128,-1,8
 19 833 19 833 19 859 c 2,9,-1
 19 960 l 1,10,-1
 170 989 l 1,11,-1
 223 1251 l 2,12,13
 232 1292 232 1292 279 1292 c 2,14,-1
 411 1292 l 1,15,-1
 411 986 l 1,16,-1
 656 986 l 1,17,-1
 656 806 l 1,18,-1
 411 806 l 1,19,-1
 411 281 l 2,20,21
 411 188 411 188 484 188 c 0,22,23
 514 188 514 188 530 198 c 0,24,25
 559 218 559 218 570 218 c 0,26,27
 587 218 587 218 603 195 c 2,28,-1
 680 72 l 1,0,1
EndSplineSet
Validated: 1
Substitution2: "sous-table 'ordn' Ordinaux dans Latin lookup 39" t.superior
Substitution2: "sous-table 'sups' Exposant lookups25" t.superior
EndChar

StartChar: tbar
Encoding: 359 359 126
Width: 726
GlyphClass: 2
Flags: MW
LayerCount: 2
Fore
SplineSet
687 72 m 1,0,1
 582 -15 582 -15 442 -15 c 128,-1,2
 302 -15 302 -15 233 59.5 c 128,-1,3
 164 134 164 134 164 264 c 2,4,-1
 164 514 l 1,5,-1
 52 514 l 1,6,-1
 52 670 l 1,7,-1
 164 670 l 1,8,-1
 164 806 l 1,9,-1
 74 806 l 2,10,11
 54 806 54 806 40 819.5 c 128,-1,12
 26 833 26 833 26 859 c 2,13,-1
 26 960 l 1,14,-1
 177 989 l 1,15,-1
 230 1251 l 2,16,17
 239 1292 239 1292 286 1292 c 2,18,-1
 418 1292 l 1,19,-1
 418 986 l 1,20,-1
 663 986 l 1,21,-1
 663 806 l 1,22,-1
 418 806 l 1,23,-1
 418 670 l 1,24,-1
 688 670 l 1,25,-1
 688 514 l 1,26,-1
 418 514 l 1,27,-1
 418 281 l 2,28,29
 418 188 418 188 491 188 c 0,30,31
 521 188 521 188 537 198 c 0,32,33
 566 218 566 218 577 218 c 0,34,35
 594 218 594 218 610 195 c 2,36,-1
 687 72 l 1,0,1
EndSplineSet
Validated: 1
EndChar

StartChar: t_f.liga
Encoding: 1114148 -1 127
Width: 1296
GlyphClass: 3
Flags: MW
LayerCount: 2
Fore
SplineSet
1154 1423 m 0,0,1
 1228 1423 1228 1423 1288 1405 c 1,2,-1
 1283 1278 l 1,3,4
 1280 1233 1280 1233 1209 1233 c 0,5,6
 1086 1233 1086 1233 1056 1136 c 0,7,8
 1045 1100 1045 1100 1045 1047 c 2,9,-1
 1045 986 l 1,10,-1
 1280 986 l 1,11,-1
 1280 806 l 1,12,-1
 1054 806 l 1,13,-1
 1054 0 l 1,14,-1
 800 0 l 1,15,-1
 800 806 l 1,16,-1
 410 806 l 1,17,-1
 410 281 l 2,18,19
 410 188 410 188 482 188 c 0,20,21
 512 188 512 188 528 198 c 0,22,23
 557 218 557 218 568 218 c 0,24,25
 585 218 585 218 601 195 c 2,26,-1
 678 72 l 1,27,28
 573 -15 573 -15 422 -15 c 0,29,30
 296 -15 296 -15 225 60 c 0,31,32
 156 133 156 133 156 264 c 2,33,-1
 156 806 l 1,34,-1
 67 806 l 2,35,36
 47 806 47 806 33 819.5 c 128,-1,37
 19 833 19 833 19 859 c 2,38,-1
 19 960 l 1,39,-1
 169 988 l 1,40,-1
 222 1251 l 2,41,42
 231 1292 231 1292 278 1292 c 2,43,-1
 410 1292 l 1,44,-1
 410 986 l 1,45,-1
 800 986 l 1,46,-1
 800 1055 l 2,47,48
 800 1225 800 1225 898 1324 c 0,49,50
 996 1423 996 1423 1154 1423 c 0,0,1
EndSplineSet
Validated: 1
Ligature2: "sous-table 'liga' Ligatures standard dans Latin lookup 37" t f
EndChar

StartChar: t_iogonek.liga
Encoding: 1114149 -1 128
Width: 1199
GlyphClass: 3
Flags: MW
LayerCount: 2
Fore
SplineSet
1057 0 m 1,0,1
 965 -50 965 -50 965 -118.5 c 128,-1,2
 965 -187 965 -187 1023 -187 c 0,3,4
 1052 -187 1052 -187 1065 -180.5 c 128,-1,5
 1078 -174 1078 -174 1089 -174 c 128,-1,6
 1100 -174 1100 -174 1107 -191 c 2,7,-1
 1145 -285 l 1,8,9
 1070 -334 1070 -334 972.5 -334 c 128,-1,10
 875 -334 875 -334 825.5 -294 c 128,-1,11
 776 -254 776 -254 776 -191 c 0,12,13
 776 -83 776 -83 905 0 c 1,14,-1
 825 0 l 1,15,-1
 825 806 l 1,16,-1
 409 806 l 1,17,-1
 409 281 l 2,18,19
 409 188 409 188 481 188 c 0,20,21
 511 188 511 188 526 198 c 0,22,23
 555 218 555 218 566 218 c 0,24,25
 583 218 583 218 599 195 c 2,26,-1
 676 72 l 1,27,28
 571 -15 571 -15 421 -15 c 0,29,30
 295 -15 295 -15 224 60 c 0,31,32
 155 133 155 133 155 264 c 2,33,-1
 155 806 l 1,34,-1
 67 806 l 2,35,36
 47 806 47 806 32.5 819.5 c 128,-1,37
 18 833 18 833 18 859 c 2,38,-1
 18 960 l 1,39,-1
 168 988 l 1,40,-1
 221 1251 l 2,41,42
 230 1292 230 1292 277 1292 c 2,43,-1
 409 1292 l 1,44,-1
 409 986 l 1,45,-1
 1079 986 l 1,46,-1
 1079 0 l 1,47,-1
 1057 0 l 1,0,1
1109 1278 m 0,48,49
 1109 1246 1109 1246 1096 1218 c 0,50,51
 1084 1190 1084 1190 1062 1168 c 0,52,53
 1016 1122 1016 1122 950 1121 c 0,54,55
 886 1122 886 1122 841 1168 c 0,56,57
 795 1215 795 1215 795 1263 c 128,-1,58
 795 1311 795 1311 807.5 1339.5 c 128,-1,59
 820 1368 820 1368 841 1390 c 0,60,61
 886 1437 886 1437 950 1437 c 0,62,63
 1015 1437 1015 1437 1062 1389.5 c 128,-1,64
 1109 1342 1109 1342 1109 1278 c 0,48,49
EndSplineSet
Validated: 1
LCarets2: 1 0
Ligature2: "sous-table 'liga' Ligatures standard dans Latin lookup 37" t iogonek
EndChar

StartChar: t_dotlessi.liga
Encoding: 1114150 -1 129
Width: 1199
GlyphClass: 3
Flags: MW
LayerCount: 2
Fore
SplineSet
676 72 m 1,0,1
 571 -15 571 -15 421 -15 c 0,2,3
 295 -15 295 -15 224 60 c 0,4,5
 155 133 155 133 155 264 c 2,6,-1
 155 806 l 1,7,-1
 67 806 l 2,8,9
 47 806 47 806 32.5 819.5 c 128,-1,10
 18 833 18 833 18 859 c 2,11,-1
 18 960 l 1,12,-1
 168 988 l 1,13,-1
 221 1251 l 2,14,15
 230 1292 230 1292 277 1292 c 2,16,-1
 409 1292 l 1,17,-1
 409 986 l 1,18,-1
 1079 986 l 1,19,-1
 1079 0 l 1,20,-1
 825 0 l 1,21,-1
 825 806 l 1,22,-1
 409 806 l 1,23,-1
 409 281 l 2,24,25
 409 188 409 188 481 188 c 0,26,27
 511 188 511 188 526 198 c 0,28,29
 555 218 555 218 566 218 c 0,30,31
 583 218 583 218 599 195 c 2,32,-1
 676 72 l 1,0,1
EndSplineSet
Validated: 1
Ligature2: "sous-table 'liga' Ligatures standard dans Latin lookup 37" t dotlessi
EndChar

StartChar: t_t.liga
Encoding: 1114151 -1 130
Width: 1344
GlyphClass: 3
Flags: MW
LayerCount: 2
Fore
SplineSet
689 72 m 1,0,1
 582 -15 582 -15 441 -15 c 128,-1,2
 300 -15 300 -15 230.5 59.5 c 128,-1,3
 161 134 161 134 161 264 c 2,4,-1
 161 806 l 1,5,-1
 69 806 l 2,6,7
 49 806 49 806 34.5 819.5 c 128,-1,8
 20 833 20 833 20 859 c 2,9,-1
 20 960 l 1,10,-1
 174 989 l 1,11,-1
 227 1251 l 2,12,13
 236 1292 236 1292 283 1292 c 2,14,-1
 415 1292 l 1,15,-1
 415 986 l 1,16,-1
 797 986 l 1,17,-1
 851 1251 l 2,18,19
 860 1292 860 1292 907 1292 c 2,20,-1
 1039 1292 l 1,21,-1
 1039 986 l 1,22,-1
 1289 986 l 1,23,-1
 1289 806 l 1,24,-1
 1039 806 l 1,25,-1
 1039 281 l 2,26,27
 1039 237 1039 237 1059 212.5 c 128,-1,28
 1079 188 1079 188 1106 188 c 128,-1,29
 1133 188 1133 188 1146.5 192.5 c 128,-1,30
 1160 197 1160 197 1170 203 c 0,31,32
 1195 218 1195 218 1209 218 c 128,-1,33
 1223 218 1223 218 1237 195 c 2,34,-1
 1314 72 l 1,35,36
 1207 -15 1207 -15 1065.5 -15 c 128,-1,37
 924 -15 924 -15 854.5 59.5 c 128,-1,38
 785 134 785 134 785 264 c 2,39,-1
 785 806 l 1,40,-1
 415 806 l 1,41,-1
 415 281 l 2,42,43
 415 237 415 237 435 212.5 c 128,-1,44
 455 188 455 188 482 188 c 128,-1,45
 509 188 509 188 522.5 192.5 c 128,-1,46
 536 197 536 197 546 203 c 0,47,48
 570 218 570 218 580 218 c 0,49,50
 597 218 597 218 612 195 c 2,51,-1
 689 72 l 1,0,1
EndSplineSet
Validated: 1
Ligature2: "sous-table 'liga' Ligatures standard dans Latin lookup 37" t t
EndChar

StartChar: t_t_f.liga
Encoding: 1114152 -1 131
Width: 1930
GlyphClass: 3
Flags: MW
LayerCount: 2
Fore
SplineSet
1786 1423 m 0,0,1
 1860 1423 1860 1423 1923 1405 c 1,2,-1
 1917 1278 l 2,3,4
 1915 1249 1915 1249 1892.5 1241 c 128,-1,5
 1870 1233 1870 1233 1836 1233 c 128,-1,6
 1802 1233 1802 1233 1771 1224 c 0,7,8
 1740 1216 1740 1216 1718 1194 c 0,9,10
 1674 1150 1674 1150 1675 1047 c 2,11,-1
 1675 986 l 1,12,-1
 1913 986 l 1,13,-1
 1913 806 l 1,14,-1
 1683 806 l 1,15,-1
 1683 0 l 1,16,-1
 1429 0 l 1,17,-1
 1429 806 l 1,18,-1
 1033 806 l 1,19,-1
 1033 281 l 2,20,21
 1033 237 1033 237 1052.5 212.5 c 128,-1,22
 1072 188 1072 188 1098.5 188 c 128,-1,23
 1125 188 1125 188 1138 192.5 c 128,-1,24
 1151 197 1151 197 1161 203 c 0,25,26
 1186 218 1186 218 1200 218 c 128,-1,27
 1214 218 1214 218 1228 195 c 2,28,-1
 1304 72 l 1,29,30
 1199 -15 1199 -15 1058 -15 c 128,-1,31
 917 -15 917 -15 848 59.5 c 128,-1,32
 779 134 779 134 779 264 c 2,33,-1
 779 806 l 1,34,-1
 413 806 l 1,35,-1
 413 281 l 2,36,37
 413 237 413 237 432.5 212.5 c 128,-1,38
 452 188 452 188 479 188 c 128,-1,39
 506 188 506 188 519 192.5 c 128,-1,40
 532 197 532 197 542 203 c 0,41,42
 566 218 566 218 576 218 c 0,43,44
 593 218 593 218 608 195 c 2,45,-1
 685 72 l 1,46,47
 578 -15 578 -15 437.5 -15 c 128,-1,48
 297 -15 297 -15 228 59.5 c 128,-1,49
 159 134 159 134 159 264 c 2,50,-1
 159 806 l 1,51,-1
 68 806 l 2,52,53
 48 806 48 806 33.5 819.5 c 128,-1,54
 19 833 19 833 19 859 c 2,55,-1
 19 960 l 1,56,-1
 172 989 l 1,57,-1
 225 1251 l 2,58,59
 234 1292 234 1292 281 1292 c 2,60,-1
 413 1292 l 1,61,-1
 413 986 l 1,62,-1
 791 986 l 1,63,-1
 844 1251 l 1,64,65
 855 1292 855 1292 900 1292 c 2,66,-1
 1033 1292 l 1,67,-1
 1033 986 l 1,68,-1
 1429 986 l 1,69,-1
 1429 1055 l 2,70,71
 1429 1225 1429 1225 1527.5 1324 c 128,-1,72
 1626 1423 1626 1423 1786 1423 c 0,0,1
EndSplineSet
Validated: 33
Ligature2: "sous-table 'liga' Ligatures standard dans Latin lookup 37" t t f
EndChar

StartChar: t_t_dotlessi.liga
Encoding: 1114154 -1 133
Width: 1832
GlyphClass: 3
Flags: MW
LayerCount: 2
Fore
SplineSet
690 72 m 1,0,1
 583 -15 583 -15 441.5 -15 c 128,-1,2
 300 -15 300 -15 230.5 59.5 c 128,-1,3
 161 134 161 134 161 264 c 2,4,-1
 161 806 l 1,5,-1
 69 806 l 2,6,7
 49 806 49 806 34.5 819.5 c 128,-1,8
 20 833 20 833 20 859 c 2,9,-1
 20 960 l 1,10,-1
 174 989 l 1,11,-1
 227 1251 l 2,12,13
 236 1292 236 1292 283 1292 c 2,14,-1
 415 1292 l 1,15,-1
 415 986 l 1,16,-1
 798 986 l 1,17,-1
 852 1251 l 2,18,19
 861 1292 861 1292 908 1292 c 2,20,-1
 1040 1292 l 1,21,-1
 1040 986 l 1,22,-1
 1706 986 l 1,23,-1
 1706 0 l 1,24,-1
 1452 0 l 1,25,-1
 1452 806 l 1,26,-1
 1040 806 l 1,27,-1
 1040 281 l 2,28,29
 1040 237 1040 237 1060 212.5 c 128,-1,30
 1080 188 1080 188 1107 188 c 128,-1,31
 1134 188 1134 188 1147.5 192.5 c 128,-1,32
 1161 197 1161 197 1171 203 c 0,33,34
 1196 218 1196 218 1210.5 218 c 128,-1,35
 1225 218 1225 218 1239 195 c 2,36,-1
 1315 72 l 1,37,38
 1208 -15 1208 -15 1066.5 -15 c 128,-1,39
 925 -15 925 -15 855.5 59.5 c 128,-1,40
 786 134 786 134 786 264 c 2,41,-1
 786 806 l 1,42,-1
 415 806 l 1,43,-1
 415 281 l 2,44,45
 415 237 415 237 435 212.5 c 128,-1,46
 455 188 455 188 482 188 c 128,-1,47
 509 188 509 188 522.5 192.5 c 128,-1,48
 536 197 536 197 546 203 c 0,49,50
 570 218 570 218 580 218 c 0,51,52
 598 218 598 218 613 195 c 2,53,-1
 690 72 l 1,0,1
EndSplineSet
Validated: 1
Ligature2: "sous-table 'liga' Ligatures standard dans Latin lookup 37" t t dotlessi
EndChar

StartChar: u
Encoding: 117 117 134
Width: 1099
GlyphClass: 2
Flags: MW
LayerCount: 2
Fore
SplineSet
739 118 m 1,0,1
 606 -15 606 -15 439 -15 c 0,2,3
 281 -15 281 -15 192 91 c 0,4,5
 107 192 107 192 107 362 c 2,6,-1
 107 993 l 1,7,-1
 361 993 l 1,8,-1
 361 362 l 2,9,10
 361 182 361 182 517 182 c 0,11,12
 624 182 624 182 721 277 c 1,13,-1
 721 993 l 1,14,-1
 975 993 l 1,15,-1
 975 0 l 1,16,-1
 819 0 l 2,17,18
 767 0 767 0 757 46 c 1,19,-1
 739 118 l 1,0,1
EndSplineSet
Validated: 1
Substitution2: "sous-table 'ordn' Ordinaux dans Latin lookup 39" u.superior
Substitution2: "sous-table 'sups' Exposant lookups25" u.superior
EndChar

StartChar: uogonek
Encoding: 371 371 135
Width: 1099
GlyphClass: 2
Flags: MW
LayerCount: 2
Fore
SplineSet
739 118 m 1,0,1
 606 -15 606 -15 439 -15 c 0,2,3
 281 -15 281 -15 192 91 c 0,4,5
 107 192 107 192 107 362 c 2,6,-1
 107 993 l 1,7,-1
 361 993 l 1,8,-1
 361 362 l 2,9,10
 361 182 361 182 517 182 c 0,11,12
 624 182 624 182 721 277 c 1,13,-1
 721 993 l 1,14,-1
 975 993 l 1,15,-1
 975 0 l 1,16,-1
 972 0 l 1,17,18
 873 -52 873 -52 873 -119.5 c 128,-1,19
 873 -187 873 -187 938 -187 c 0,20,21
 971 -187 971 -187 985.5 -180.5 c 128,-1,22
 1000 -174 1000 -174 1011 -174 c 128,-1,23
 1022 -174 1022 -174 1029 -191 c 2,24,-1
 1067 -285 l 1,25,26
 992 -334 992 -334 889.5 -334 c 128,-1,27
 787 -334 787 -334 735.5 -294 c 128,-1,28
 684 -254 684 -254 684 -191 c 0,29,30
 684 -83 684 -83 820 0 c 1,31,-1
 819 0 l 2,32,33
 767 0 767 0 757 46 c 1,34,-1
 739 118 l 1,0,1
EndSplineSet
Validated: 1
EndChar

StartChar: v
Encoding: 118 118 136
Width: 969
GlyphClass: 2
Flags: MW
LayerCount: 2
Fore
SplineSet
600 0 m 1,0,-1
 369 0 l 1,1,-1
 11 993 l 1,2,-1
 221 993 l 2,3,4
 276 993 276 993 293 947 c 1,5,-1
 438 440 l 1,6,7
 469 348 469 348 487 255 c 1,8,9
 508 354 508 354 539 440 c 1,10,-1
 689 947 l 1,11,12
 705 993 705 993 757 993 c 2,13,-1
 958 993 l 1,14,-1
 600 0 l 1,0,-1
EndSplineSet
Validated: 1
Substitution2: "sous-table 'ordn' Ordinaux dans Latin lookup 39" v.superior
Substitution2: "sous-table 'sups' Exposant lookups25" v.superior
EndChar

StartChar: w
Encoding: 119 119 137
Width: 1526
GlyphClass: 2
Flags: MW
LayerCount: 2
Fore
SplineSet
7 993 m 1,0,-1
 209 993 l 2,1,2
 237 993 237 993 256.5 979.5 c 128,-1,3
 276 966 276 966 281 946 c 2,4,-1
 407 440 l 2,5,6
 432 337 432 337 444 266 c 1,7,8
 466 350 466 350 494 440 c 1,9,-1
 644 948 l 2,10,11
 658 994 658 994 712 994 c 2,12,-1
 824 994 l 2,13,14
 881 994 881 994 895 948 c 2,15,-1
 1039 440 l 1,16,17
 1067 348 1067 348 1087 265 c 1,18,19
 1107 372 1107 372 1126 441 c 1,20,-1
 1258 947 l 2,21,22
 1263 967 1263 967 1281.5 980 c 128,-1,23
 1300 993 1300 993 1326 993 c 2,24,-1
 1519 993 l 1,25,-1
 1210 0 l 1,26,-1
 1005 0 l 2,27,28
 970 0 970 0 957 44 c 2,29,-1
 793 596 l 1,30,31
 773 657 773 657 763 715 c 1,32,33
 751 655 751 655 733 595 c 2,34,-1
 566 44 l 2,35,36
 552 0 552 0 511 0 c 2,37,-1
 316 0 l 1,38,-1
 7 993 l 1,0,-1
EndSplineSet
Validated: 1
Substitution2: "sous-table 'ordn' Ordinaux dans Latin lookup 39" w.superior
Substitution2: "sous-table 'sups' Exposant lookups25" w.superior
EndChar

StartChar: x
Encoding: 120 120 138
Width: 941
GlyphClass: 2
Flags: MW
LayerCount: 2
Fore
SplineSet
304 512 m 1,0,-1
 28 993 l 1,1,-1
 272 993 l 2,2,3
 315 993 315 993 334 961 c 1,4,-1
 491 657 l 1,5,6
 503 686 503 686 516 707 c 1,7,-1
 624 957 l 1,8,9
 646 993 646 993 680 993 c 2,10,-1
 913 993 l 1,11,-1
 636 525 l 1,12,-1
 925 0 l 1,13,-1
 681 0 l 2,14,15
 637 0 637 0 610 46 c 1,16,-1
 452 361 l 1,17,18
 443 337 443 337 434 322 c 1,19,-1
 309 46 l 1,20,21
 279 0 279 0 242 0 c 2,22,-1
 16 0 l 1,23,-1
 304 512 l 1,0,-1
EndSplineSet
Validated: 1
Substitution2: "sous-table 'ordn' Ordinaux dans Latin lookup 39" x.superior
Substitution2: "sous-table 'sups' Exposant lookups25" x.superior
EndChar

StartChar: y
Encoding: 121 121 139
Width: 970
GlyphClass: 2
Flags: MW
LayerCount: 2
Fore
SplineSet
467 -269 m 1,0,1
 445 -322 445 -322 386 -322 c 2,2,-1
 195 -322 l 1,3,-1
 372 78 l 1,4,-1
 3 993 l 1,5,-1
 226 993 l 2,6,7
 276 993 276 993 296 947 c 1,8,-1
 462 456 l 1,9,10
 473 429 473 429 481 402 c 128,-1,11
 489 375 489 375 497 348 c 1,12,13
 515 412 515 412 534 458 c 1,14,-1
 689 947 l 2,15,16
 696 967 696 967 715 980 c 128,-1,17
 734 993 734 993 757 993 c 2,18,-1
 960 993 l 1,19,-1
 467 -269 l 1,0,1
EndSplineSet
Validated: 1
Substitution2: "sous-table 'ss04' Style 4 lookups34" y.salt
Substitution2: "sous-table 'salt' Alternatives stylistiques lookups28" y.salt
Substitution2: "sous-table 'sups' Exposant lookups25" y.superior
Substitution2: "sous-table 'ordn' Ordinaux dans Latin lookup 39" y.superior
EndChar

StartChar: z
Encoding: 122 122 140
Width: 814
GlyphClass: 2
Flags: MW
LayerCount: 2
Fore
SplineSet
761 889 m 2,0,1
 761 835 761 835 730 794 c 1,2,-1
 345 194 l 1,3,-1
 752 194 l 1,4,-1
 752 0 l 1,5,-1
 55 0 l 1,6,-1
 55 105 l 2,7,8
 55 153 55 153 88 192 c 1,9,-1
 472 799 l 1,10,-1
 79 799 l 1,11,-1
 79 993 l 1,12,-1
 761 993 l 1,13,-1
 761 889 l 2,0,1
EndSplineSet
Validated: 1
Substitution2: "sous-table 'ordn' Ordinaux dans Latin lookup 39" z.superior
Substitution2: "sous-table 'sups' Exposant lookups25" z.superior
EndChar

StartChar: ordfeminine
Encoding: 170 170 141
Width: 852
GlyphClass: 2
Flags: MW
LayerCount: 2
Fore
SplineSet
339 977 m 0,0,1
 339 928 339 928 401 928 c 128,-1,2
 463 928 463 928 517 978 c 1,3,-1
 517 1051 l 1,4,5
 339 1044 339 1044 339 977 c 0,0,1
193 1323 m 1,6,7
 297 1418 297 1418 456 1418 c 0,8,9
 566 1418 566 1418 631 1352 c 0,10,11
 695 1287 695 1287 695 1184 c 2,12,-1
 695 812 l 1,13,-1
 610 812 l 2,14,15
 585 812 585 812 572.5 819 c 128,-1,16
 560 826 560 826 549 849 c 1,17,-1
 537 880 l 1,18,19
 445 804 445 804 354.5 804 c 128,-1,20
 264 804 264 804 214 846.5 c 128,-1,21
 164 889 164 889 164 969 c 0,22,23
 164 1092 164 1092 344 1140 c 0,24,25
 412 1158 412 1158 517 1161 c 1,26,-1
 517 1184 l 2,27,28
 517 1273 517 1273 433 1273 c 0,29,30
 389 1273 389 1273 359 1259 c 0,31,32
 301 1232 301 1232 280 1232 c 0,33,34
 246 1232 246 1232 226 1265 c 1,35,-1
 193 1323 l 1,6,7
EndSplineSet
Validated: 1
Substitution2: "sous-table 'case' Formes sensibles +AOAA la casse lookups14" ordfeminine.case
EndChar

StartChar: ordmasculine
Encoding: 186 186 142
Width: 891
GlyphClass: 2
Flags: MW
LayerCount: 2
Fore
SplineSet
446 1416 m 0,0,1
 518 1416 518 1416 576.5 1395 c 128,-1,2
 635 1374 635 1374 677 1334 c 0,3,4
 766 1250 766 1250 766 1110 c 0,5,6
 766 968 766 968 677 883 c 0,7,8
 590 800 590 800 447 800 c 0,9,10
 302 800 302 800 214 883 c 0,11,12
 124 967 124 967 125 1110 c 0,13,14
 124 1250 124 1250 214 1334 c 0,15,16
 302 1416 302 1416 446 1416 c 0,0,1
447 948 m 0,17,18
 567 948 567 948 567 1109 c 256,19,20
 567 1193 567 1193 537.5 1231 c 128,-1,21
 508 1269 508 1269 445 1269 c 128,-1,22
 382 1269 382 1269 352.5 1231 c 128,-1,23
 323 1193 323 1193 323 1109 c 256,24,25
 323 1025 323 1025 352.5 986.5 c 128,-1,26
 382 948 382 948 447 948 c 0,17,18
EndSplineSet
Validated: 33
EndChar

StartChar: ordfeminine.case
Encoding: 1114155 -1 143
Width: 933
GlyphClass: 2
Flags: MW
LayerCount: 2
Fore
SplineSet
719 812 m 1,0,-1
 579 812 l 2,1,2
 539 812 539 812 527 846 c 2,3,-1
 505 912 l 1,4,-1
 317 912 l 1,5,-1
 296 847 l 1,6,7
 283 812 283 812 246 812 c 2,8,-1
 104 812 l 1,9,-1
 331 1398 l 1,10,-1
 494 1398 l 1,11,-1
 719 812 l 1,0,-1
361 1041 m 1,12,-1
 463 1041 l 1,13,-1
 425 1156 l 2,14,15
 418 1174 418 1174 412 1204 c 1,16,17
 409 1190 409 1190 405.5 1178 c 128,-1,18
 402 1166 402 1166 399 1155 c 2,19,-1
 361 1041 l 1,12,-1
EndSplineSet
Validated: 1
EndChar

StartChar: a.superior
Encoding: 1114156 -1 144
Width: 703
GlyphClass: 2
Flags: MW
LayerCount: 2
Fore
SplineSet
136 1327 m 1,0,1
 230 1409 230 1409 370 1409 c 0,2,3
 465 1408 465 1408 522 1350 c 0,4,5
 578 1293 578 1293 578 1203 c 2,6,-1
 578 886 l 1,7,-1
 497 886 l 2,8,9
 472 886 472 886 459.5 892.5 c 128,-1,10
 447 899 447 899 437 920 c 2,11,-1
 428 940 l 1,12,13
 390 909 390 909 356 893.5 c 128,-1,14
 322 878 322 878 259 878 c 128,-1,15
 196 878 196 878 155 915.5 c 128,-1,16
 114 953 114 953 114 1022 c 0,17,18
 114 1127 114 1127 262 1171 c 0,19,20
 318 1188 318 1188 406 1190 c 1,21,-1
 406 1203 l 2,22,23
 406 1271 406 1271 347 1269 c 0,24,25
 308 1268 308 1268 288 1258 c 0,26,27
 249 1239 249 1239 227 1239 c 0,28,29
 226 1239 226 1239 225 1239 c 0,30,31
 187 1239 187 1239 169 1270 c 2,32,-1
 136 1327 l 1,0,1
283 1031 m 0,33,34
 283 998 283 998 327 998 c 128,-1,35
 371 998 371 998 406 1031 c 1,36,-1
 406 1084 l 1,37,38
 283 1078 283 1078 283 1031 c 0,33,34
EndSplineSet
Validated: 33
EndChar

StartChar: b.superior
Encoding: 1114157 -1 145
Width: 757
GlyphClass: 2
Flags: MW
LayerCount: 2
Fore
SplineSet
317 1352 m 1,0,1
 375 1406 375 1406 461 1406 c 0,2,3
 540 1406 540 1406 590 1338 c 0,4,5
 644 1265 644 1265 644 1146 c 0,6,7
 644 1031 644 1031 582 954 c 0,8,9
 521 878 521 878 425 878 c 0,10,11
 379 878 379 878 352 895 c 128,-1,12
 325 912 325 912 302 937 c 1,13,14
 296 899 296 899 285.5 892.5 c 128,-1,15
 275 886 275 886 258 886 c 2,16,-1
 140 886 l 1,17,-1
 140 1623 l 1,18,-1
 317 1623 l 1,19,-1
 317 1352 l 1,0,1
382 1012 m 0,20,21
 460 1012 460 1012 460 1140.5 c 128,-1,22
 460 1269 460 1269 394 1269 c 0,23,24
 351 1269 351 1269 317 1233 c 1,25,-1
 317 1033 l 1,26,27
 342 1012 342 1012 382 1012 c 0,20,21
EndSplineSet
Validated: 1
EndChar

StartChar: c.superior
Encoding: 1114158 -1 146
Width: 580
GlyphClass: 2
Flags: MW
LayerCount: 2
Fore
SplineSet
530 969 m 1,0,1
 451 878 451 878 310 878 c 0,2,3
 212 878 212 878 143 948 c 0,4,5
 71 1021 71 1021 71 1145 c 0,6,7
 71 1324 71 1324 218 1386 c 0,8,9
 265 1406 265 1406 331 1406 c 0,10,11
 452 1406 452 1406 528 1326 c 1,12,-1
 480 1262 l 2,13,14
 464 1240 464 1240 448 1240 c 128,-1,15
 432 1240 432 1240 422 1245 c 128,-1,16
 412 1250 412 1250 402 1256 c 0,17,18
 375 1272 375 1272 345 1272 c 0,19,20
 252 1272 252 1272 252 1143 c 0,21,22
 252 1080 252 1080 276 1046 c 128,-1,23
 300 1012 300 1012 333.5 1012 c 128,-1,24
 367 1012 367 1012 380.5 1018 c 128,-1,25
 394 1024 394 1024 404 1032 c 0,26,27
 430 1052 430 1052 449 1051.5 c 128,-1,28
 468 1051 468 1051 479 1035 c 1,29,-1
 530 969 l 1,0,1
EndSplineSet
Validated: 1
EndChar

StartChar: d.superior
Encoding: 1114159 -1 147
Width: 757
GlyphClass: 2
Flags: MW
LayerCount: 2
Fore
SplineSet
339 1409 m 0,0,1
 394 1409 394 1409 439 1373 c 1,2,-1
 439 1623 l 1,3,-1
 616 1623 l 1,4,-1
 616 886 l 1,5,-1
 505 886 l 2,6,7
 471 886 471 886 463 915 c 2,8,-1
 454 949 l 1,9,10
 390 878 390 878 296 878 c 0,11,12
 216 878 216 878 166 948 c 0,13,14
 114 1021 114 1021 114 1140 c 0,15,16
 114 1257 114 1257 175 1333 c 0,17,18
 236 1409 236 1409 339 1409 c 0,0,1
375 1275 m 256,19,20
 296 1275 296 1275 296 1140 c 0,21,22
 296 1069 296 1069 315 1043 c 128,-1,23
 334 1017 334 1017 372 1017 c 128,-1,24
 410 1017 410 1017 439 1050 c 1,25,-1
 439 1252 l 1,26,27
 412 1275 412 1275 375 1275 c 256,19,20
EndSplineSet
Validated: 1
EndChar

StartChar: e.superior
Encoding: 1114160 -1 148
Width: 711
GlyphClass: 2
Flags: MW
LayerCount: 2
Fore
SplineSet
602 969 m 1,0,1
 523 878 523 878 375 878 c 0,2,3
 197 878 197 878 130 1033 c 0,4,5
 108 1084 108 1084 108 1142 c 0,6,7
 109 1204 109 1204 127 1250 c 128,-1,8
 145 1296 145 1296 178 1330 c 0,9,10
 250 1406 250 1406 367 1406 c 0,11,12
 473 1406 473 1406 538 1344 c 128,-1,14
 603 1282 603 1282 603 1172 c 0,15,16
 603 1128 603 1128 595.5 1114.5 c 128,-1,17
 588 1101 588 1101 564 1101 c 2,18,-1
 287 1101 l 1,19,20
 305 1014 305 1014 391 1014 c 0,21,22
 424 1014 424 1014 464 1032.5 c 128,-1,23
 504 1051 504 1051 521 1051 c 128,-1,24
 538 1051 538 1051 551 1035 c 2,25,-1
 602 969 l 1,0,1
445 1206 m 1,26,27
 445 1281 445 1281 370 1281 c 0,28,29
 302 1281 302 1281 287 1206 c 1,30,-1
 445 1206 l 1,26,27
EndSplineSet
Validated: 1
EndChar

StartChar: f.superior
Encoding: 1114161 -1 149
Width: 464
GlyphClass: 2
Flags: MW
LayerCount: 2
Fore
SplineSet
253 1604 m 0,0,1
 293 1618 293 1618 334.5 1618 c 128,-1,2
 376 1618 376 1618 414 1610 c 1,3,-1
 410 1520 l 2,4,5
 408 1486 408 1486 371.5 1486 c 128,-1,6
 335 1486 335 1486 317 1472 c 128,-1,7
 299 1458 299 1458 299 1415 c 2,8,-1
 299 1402 l 1,9,-1
 408 1402 l 1,10,-1
 408 1278 l 1,11,-1
 305 1278 l 1,12,-1
 305 886 l 1,13,-1
 128 886 l 1,14,-1
 128 1280 l 1,15,-1
 103 1287 l 1,16,17
 59 1296 59 1296 59 1330 c 2,18,-1
 59 1402 l 1,19,-1
 128 1402 l 1,20,-1
 128 1421 l 2,21,22
 128 1559 128 1559 253 1604 c 0,0,1
EndSplineSet
Validated: 1
EndChar

StartChar: g.superior
Encoding: 1114162 -1 150
Width: 747
GlyphClass: 2
Flags: MW
LayerCount: 2
Fore
SplineSet
383 1016 m 0,0,1
 423 1016 423 1016 457 1063 c 1,2,-1
 457 1257 l 1,3,4
 431 1290 431 1290 402.5 1290 c 128,-1,5
 374 1290 374 1290 358 1282 c 0,6,7
 308 1258 308 1258 308 1150 c 0,8,9
 308 1147 308 1147 308 1144 c 0,10,11
 308 1138 308 1138 308 1138 c 0,12,13
 306 1016 306 1016 383 1016 c 0,0,1
352 1408 m 0,14,15
 416 1408 416 1408 472 1352 c 1,16,-1
 479 1372 l 2,17,18
 488 1398 488 1398 518 1398 c 2,19,-1
 615 1398 l 1,20,-1
 615 932 l 2,21,22
 615 837 615 837 541 775 c 0,23,24
 465 712 465 712 338 712 c 0,25,26
 209 712 209 712 135 777 c 1,27,-1
 171 834 l 2,28,29
 184 855 184 855 204.5 855 c 128,-1,30
 225 855 225 855 235.5 849 c 128,-1,31
 246 843 246 843 259 836 c 0,32,33
 292 818 292 818 328 818 c 128,-1,34
 364 818 364 818 388 826 c 0,35,36
 410 835 410 835 426 850 c 0,37,38
 456 878 456 878 457 924 c 2,39,-1
 457 948 l 1,40,41
 409 903 409 903 378 898 c 128,-1,42
 347 893 347 893 311 893 c 128,-1,43
 275 893 275 893 235.5 911.5 c 128,-1,44
 196 930 196 930 168 964 c 0,45,46
 111 1033 111 1033 111 1146 c 0,47,48
 111 1260 111 1260 174 1333 c 0,49,50
 239 1408 239 1408 352 1408 c 0,14,15
EndSplineSet
Validated: 33
Substitution2: "sous-table 'ss04' Style 4 lookups34" g.superior.salt
Substitution2: "sous-table 'salt' Alternatives stylistiques lookups28" g.superior.salt
EndChar

StartChar: h.superior
Encoding: 1114163 -1 151
Width: 763
GlyphClass: 2
Flags: MW
LayerCount: 2
Fore
SplineSet
399 1269 m 0,0,1
 364 1269 364 1269 327 1241 c 1,2,-1
 327 886 l 1,3,-1
 150 886 l 1,4,-1
 150 1623 l 1,5,-1
 327 1623 l 1,6,-1
 327 1362 l 1,7,8
 382 1406 382 1406 439.5 1406 c 128,-1,9
 497 1406 497 1406 529 1391 c 0,10,11
 562 1376 562 1376 584 1350 c 0,12,13
 630 1297 630 1297 629 1211 c 2,14,-1
 629 886 l 1,15,-1
 452 886 l 1,16,-1
 452 1211 l 2,17,18
 452 1269 452 1269 399 1269 c 0,0,1
EndSplineSet
Validated: 33
EndChar

StartChar: i.superior
Encoding: 1114164 -1 152
Width: 378
GlyphClass: 2
Flags: MW
LayerCount: 2
Fore
SplineSet
278 1367 m 1,0,-1
 278 886 l 1,1,-1
 101 886 l 1,2,-1
 101 1367 l 1,3,-1
 278 1367 l 1,0,-1
295 1529 m 256,4,5
 294 1488 294 1488 272 1466 c 0,6,7
 234 1428 234 1428 201.5 1427.5 c 128,-1,8
 169 1427 169 1427 151 1435 c 128,-1,9
 133 1443 133 1443 119 1457 c 0,10,11
 89 1487 89 1487 89 1529 c 256,12,13
 89 1571 89 1571 111 1593 c 0,14,15
 149 1631 149 1631 180.5 1631 c 128,-1,16
 212 1631 212 1631 231 1623 c 128,-1,17
 250 1615 250 1615 264 1601 c 0,18,19
 295 1570 295 1570 295 1529 c 256,4,5
EndSplineSet
Validated: 1
EndChar

StartChar: j.superior
Encoding: 1114165 -1 153
Width: 388
GlyphClass: 2
Flags: MW
LayerCount: 2
Fore
SplineSet
93 714 m 0,0,1
 59 714 59 714 21 722 c 1,2,-1
 27 817 l 2,3,4
 29 844 29 844 56 844 c 0,5,6
 90 844 90 844 98 852 c 0,7,8
 109 864 109 864 109 903 c 2,9,-1
 109 1367 l 1,10,-1
 287 1367 l 1,11,-1
 287 903 l 2,12,13
 287 714 287 714 93 714 c 0,0,1
303 1529 m 256,14,15
 302 1488 302 1488 280 1466 c 0,16,17
 242 1428 242 1428 209.5 1427.5 c 128,-1,18
 177 1427 177 1427 159 1435 c 128,-1,19
 141 1443 141 1443 127 1457 c 0,20,21
 97 1487 97 1487 97 1529 c 256,22,23
 97 1571 97 1571 119 1593 c 0,24,25
 157 1631 157 1631 188.5 1631 c 128,-1,26
 220 1631 220 1631 239 1623 c 128,-1,27
 258 1615 258 1615 272 1601 c 0,28,29
 303 1570 303 1570 303 1529 c 256,14,15
EndSplineSet
Validated: 1
EndChar

StartChar: k.superior
Encoding: 1114166 -1 154
Width: 704
GlyphClass: 2
Flags: MW
LayerCount: 2
Fore
SplineSet
290 1623 m 1,0,-1
 290 1220 l 1,1,-1
 312 1220 l 2,2,3
 340 1220 340 1220 351 1240 c 2,4,-1
 422 1371 l 1,5,6
 438 1398 438 1398 478 1398 c 2,7,-1
 640 1398 l 1,8,-1
 531 1225 l 2,9,10
 510 1192 510 1192 478 1175 c 1,11,12
 505 1161 505 1161 522 1128 c 2,13,-1
 644 886 l 1,14,-1
 484 886 l 2,15,16
 438 886 438 886 426 915 c 2,17,-1
 358 1083 l 2,18,19
 349 1103 349 1103 321 1103 c 2,20,-1
 290 1103 l 1,21,-1
 290 886 l 1,22,-1
 113 886 l 1,23,-1
 113 1623 l 1,24,-1
 290 1623 l 1,0,-1
EndSplineSet
Validated: 1
EndChar

StartChar: l.superior
Encoding: 1114167 -1 155
Width: 374
GlyphClass: 2
Flags: MW
LayerCount: 2
Fore
SplineSet
275 1623 m 1,0,-1
 275 886 l 1,1,-1
 99 886 l 1,2,-1
 99 1623 l 1,3,-1
 275 1623 l 1,0,-1
EndSplineSet
Validated: 1
EndChar

StartChar: m.superior
Encoding: 1114168 -1 156
Width: 1132
GlyphClass: 2
Flags: MW
LayerCount: 2
Fore
SplineSet
428 1269 m 0,0,1
 396 1269 396 1269 369 1246 c 1,2,-1
 369 886 l 1,3,-1
 192 886 l 1,4,-1
 192 1398 l 1,5,-1
 303 1398 l 2,6,7
 335 1398 335 1398 341 1367 c 2,8,-1
 345 1343 l 1,9,10
 408 1406 408 1406 485.5 1406 c 128,-1,11
 563 1406 563 1406 601 1324 c 1,12,13
 651 1406 651 1406 754 1406 c 0,14,15
 951 1406 951 1406 951 1211 c 2,16,-1
 951 886 l 1,17,-1
 775 886 l 1,18,-1
 775 1211 l 2,19,20
 775 1269 775 1269 719 1269 c 0,21,22
 694 1269 694 1269 678 1254 c 128,-1,23
 662 1239 662 1239 662 1211 c 2,24,-1
 662 886 l 1,25,-1
 484 886 l 1,26,-1
 484 1211 l 2,27,28
 484 1269 484 1269 428 1269 c 0,0,1
EndSplineSet
Validated: 1
EndChar

StartChar: uni207F
Encoding: 8319 8319 157
Width: 761
GlyphClass: 2
Flags: MW
LayerCount: 2
Fore
SplineSet
295 1337 m 1,0,1
 366 1406 366 1406 451 1406 c 0,2,3
 533 1406 533 1406 580 1350 c 0,4,5
 625 1297 625 1297 625 1212 c 2,6,-1
 625 886 l 1,7,-1
 449 886 l 1,8,-1
 449 1212 l 2,9,10
 449 1268 449 1268 395 1268 c 0,11,12
 358 1268 358 1268 324 1240 c 1,13,-1
 324 886 l 1,14,-1
 148 886 l 1,15,-1
 148 1399 l 1,16,-1
 242 1399 l 2,17,18
 276 1399 276 1399 287 1364 c 2,19,-1
 295 1337 l 1,0,1
EndSplineSet
Validated: 1
EndChar

StartChar: o.superior
Encoding: 1114169 -1 158
Width: 757
GlyphClass: 2
Flags: MW
LayerCount: 2
Fore
SplineSet
379 1406 m 256,0,1
 498 1406 498 1406 572 1336 c 0,2,3
 646 1265 646 1265 646 1143 c 0,4,5
 646 1020 646 1020 572 949 c 0,6,7
 498 878 498 878 379 878 c 256,8,9
 260 878 260 878 186 949 c 0,10,11
 110 1021 110 1021 111 1143 c 0,12,13
 110 1264 110 1264 186 1336 c 0,14,15
 260 1406 260 1406 379 1406 c 256,0,1
379 1013 m 256,16,17
 424 1013 424 1013 444 1043.5 c 128,-1,18
 464 1074 464 1074 464 1142.5 c 128,-1,19
 464 1211 464 1211 444 1241 c 128,-1,20
 424 1271 424 1271 379 1271 c 256,21,22
 334 1271 334 1271 313.5 1241 c 128,-1,23
 293 1211 293 1211 293 1142.5 c 128,-1,24
 293 1074 293 1074 313.5 1043.5 c 128,-1,25
 334 1013 334 1013 379 1013 c 256,16,17
EndSplineSet
Validated: 33
EndChar

StartChar: p.superior
Encoding: 1114170 -1 159
Width: 757
GlyphClass: 2
Flags: MW
LayerCount: 2
Fore
SplineSet
417 878 m 0,0,1
 361 878 361 878 318 913 c 1,2,-1
 318 729 l 1,3,-1
 141 729 l 1,4,-1
 141 1398 l 1,5,-1
 252 1398 l 2,6,7
 288 1398 288 1398 294 1370 c 2,8,-1
 301 1335 l 1,9,10
 370 1409 370 1409 462 1409 c 0,11,12
 541 1409 541 1409 592 1339 c 0,13,14
 645 1266 645 1266 645 1150 c 0,15,16
 645 1031 645 1031 583 954 c 0,17,18
 522 878 522 878 417 878 c 0,0,1
383 1012 m 0,19,20
 462 1012 462 1012 462 1140.5 c 128,-1,21
 462 1269 462 1269 399 1269 c 0,22,23
 351 1269 351 1269 318 1234 c 1,24,-1
 318 1033 l 1,25,26
 344 1012 344 1012 383 1012 c 0,19,20
EndSplineSet
Validated: 1
EndChar

StartChar: q.superior
Encoding: 1114171 -1 160
Width: 757
GlyphClass: 2
Flags: MW
LayerCount: 2
Fore
SplineSet
343 1409 m 0,0,1
 402 1409 402 1409 458 1356 c 1,2,-1
 463 1370 l 2,3,4
 473 1398 473 1398 505 1398 c 2,5,-1
 616 1398 l 1,6,-1
 616 729 l 1,7,-1
 439 729 l 1,8,-1
 439 934 l 1,9,10
 379 878 379 878 296 878 c 0,11,12
 216 878 216 878 166 948 c 0,13,14
 114 1021 114 1021 114 1140 c 0,15,16
 114 1257 114 1257 175 1333 c 0,17,18
 236 1409 236 1409 343 1409 c 0,0,1
375 1275 m 0,19,20
 296 1275 296 1275 296 1146 c 128,-1,21
 296 1017 296 1017 363 1017 c 0,22,23
 405 1017 405 1017 439 1053 c 1,24,-1
 439 1252 l 1,25,26
 412 1275 412 1275 375 1275 c 0,19,20
EndSplineSet
Validated: 1
EndChar

StartChar: r.superior
Encoding: 1114172 -1 161
Width: 512
GlyphClass: 2
Flags: MW
LayerCount: 2
Fore
SplineSet
359 1238 m 1,0,1
 311 1238 311 1238 286 1186 c 1,2,-1
 286 886 l 1,3,-1
 109 886 l 1,4,-1
 109 1398 l 1,5,-1
 215 1398 l 2,6,7
 241 1398 241 1398 251 1389 c 128,-1,8
 261 1380 261 1380 265 1357 c 2,9,-1
 270 1320 l 1,10,11
 322 1409 322 1409 393 1409 c 0,12,13
 427 1409 427 1409 449 1390 c 1,14,-1
 436 1256 l 1,15,16
 433 1234 433 1234 410 1234 c 1,17,-1
 359 1238 l 1,0,1
EndSplineSet
Validated: 1
EndChar

StartChar: s.superior
Encoding: 1114173 -1 162
Width: 570
GlyphClass: 2
Flags: MW
LayerCount: 2
Fore
SplineSet
450 1272 m 2,0,1
 437 1252 437 1252 416 1252 c 256,2,3
 401 1252 401 1252 379 1262 c 0,4,5
 340 1280 340 1280 304 1280 c 0,6,7
 303 1280 303 1280 302 1280 c 0,8,9
 264 1267 264 1267 264 1252 c 128,-1,10
 264 1237 264 1237 281 1228.5 c 128,-1,11
 298 1220 298 1220 323 1212 c 128,-1,12
 348 1204 348 1204 377.5 1194.5 c 128,-1,13
 407 1185 407 1185 432 1168 c 0,14,15
 491 1128 491 1128 491 1057 c 0,16,17
 491 977 491 977 434 928 c 0,18,19
 376 878 376 878 267 878 c 0,20,21
 186 878 186 878 114 916 c 0,22,23
 92 928 92 928 78 942 c 1,24,-1
 119 1010 l 2,25,26
 132 1033 132 1033 155 1033 c 128,-1,27
 178 1033 178 1033 189 1028 c 0,28,29
 200 1022 200 1022 212 1016 c 0,30,31
 241 1000 241 1000 273 1000 c 0,32,33
 325 1000 325 1000 325 1026 c 0,34,35
 325 1042 325 1042 308 1050.5 c 128,-1,36
 291 1059 291 1059 266 1066.5 c 128,-1,37
 241 1074 241 1074 211 1084 c 0,38,39
 182 1093 182 1093 156 1111 c 0,40,41
 97 1152 97 1152 97 1239 c 0,42,43
 97 1352 97 1352 214 1392 c 0,44,45
 255 1406 255 1406 310 1406 c 128,-1,47
 365 1406 365 1406 413.5 1386 c 128,-1,48
 462 1366 462 1366 490 1337 c 1,49,-1
 450 1272 l 2,0,1
EndSplineSet
Validated: 1
EndChar

StartChar: t.superior
Encoding: 1114174 -1 163
Width: 506
GlyphClass: 2
Flags: MW
LayerCount: 2
Fore
SplineSet
438 922 m 1,0,1
 377 878 377 878 293.5 878 c 128,-1,2
 210 878 210 878 169 922 c 128,-1,3
 128 966 128 966 128 1037 c 2,4,-1
 128 1278 l 1,5,-1
 91 1278 l 2,6,7
 59 1278 59 1278 59 1312 c 2,8,-1
 59 1384 l 1,9,-1
 141 1404 l 1,10,-1
 173 1511 l 2,11,12
 181 1539 181 1539 211 1539 c 2,13,-1
 304 1539 l 1,14,-1
 304 1402 l 1,15,-1
 424 1402 l 1,16,-1
 424 1278 l 1,17,-1
 304 1278 l 1,18,-1
 304 1050 l 2,19,20
 304 1020 304 1020 330 1020 c 1,21,-1
 362 1024 l 1,22,23
 375 1024 375 1024 384 1009 c 2,24,-1
 438 922 l 1,0,1
EndSplineSet
Validated: 1
EndChar

StartChar: u.superior
Encoding: 1114175 -1 164
Width: 763
GlyphClass: 2
Flags: MW
LayerCount: 2
Fore
SplineSet
456 937 m 1,0,1
 390 878 390 878 311 878 c 0,2,3
 230 878 230 878 182 934 c 0,4,5
 136 988 136 988 137 1074 c 2,6,-1
 137 1398 l 1,7,-1
 313 1398 l 1,8,-1
 313 1074 l 2,9,10
 313 1015 313 1015 367 1015 c 0,11,12
 402 1015 402 1015 439 1043 c 1,13,-1
 439 1398 l 1,14,-1
 616 1398 l 1,15,-1
 616 886 l 1,16,-1
 505 886 l 2,17,18
 473 886 473 886 463 915 c 2,19,-1
 456 937 l 1,0,1
EndSplineSet
Validated: 33
EndChar

StartChar: v.superior
Encoding: 1114176 -1 165
Width: 677
GlyphClass: 2
Flags: MW
LayerCount: 2
Fore
SplineSet
63 1398 m 1,0,-1
 211 1398 l 2,1,2
 250 1398 250 1398 259 1369 c 2,3,-1
 310 1186 l 2,4,5
 329 1119 329 1119 341 1058 c 1,6,7
 359 1141 359 1141 374 1187 c 1,8,-1
 426 1368 l 2,9,10
 435 1398 435 1398 473 1398 c 2,11,-1
 614 1398 l 1,12,-1
 419 886 l 1,13,-1
 258 886 l 1,14,-1
 63 1398 l 1,0,-1
EndSplineSet
Validated: 1
EndChar

StartChar: w.superior
Encoding: 1114177 -1 166
Width: 1051
GlyphClass: 2
Flags: MW
LayerCount: 2
Fore
SplineSet
117 1398 m 1,0,-1
 263 1398 l 2,1,2
 305 1398 305 1398 313 1361 c 2,3,-1
 369 1076 l 1,4,5
 383 1139 383 1139 398 1189 c 1,6,-1
 446 1362 l 2,7,8
 457 1398 457 1398 494 1398 c 2,9,-1
 565 1398 l 2,10,11
 605 1398 605 1398 616 1361 c 1,12,-1
 662 1189 l 2,13,14
 677 1136 677 1136 687 1082 c 1,15,16
 699 1144 699 1144 710 1188 c 2,17,-1
 748 1362 l 1,18,19
 758 1398 758 1398 796 1398 c 2,20,-1
 935 1398 l 1,21,-1
 774 886 l 1,22,-1
 634 886 l 2,23,24
 612 886 612 886 603 915 c 2,25,-1
 544 1127 l 2,26,27
 533 1163 533 1163 526 1199 c 1,28,29
 522 1175 522 1175 509 1125 c 1,30,-1
 448 916 l 2,31,32
 439 886 439 886 411 886 c 2,33,-1
 273 886 l 1,34,-1
 117 1398 l 1,0,-1
EndSplineSet
Validated: 1
EndChar

StartChar: x.superior
Encoding: 1114178 -1 167
Width: 681
GlyphClass: 2
Flags: MW
LayerCount: 2
Fore
SplineSet
223 1151 m 1,0,-1
 62 1398 l 1,1,-1
 232 1398 l 2,2,3
 263 1398 263 1398 275 1378 c 2,4,-1
 355 1241 l 1,5,6
 361 1261 361 1261 373 1284 c 2,7,-1
 418 1375 l 2,8,9
 430 1398 430 1398 457 1398 c 2,10,-1
 619 1398 l 1,11,-1
 457 1160 l 1,12,-1
 626 886 l 1,13,-1
 455 886 l 2,14,15
 425 886 425 886 408 916 c 2,16,-1
 330 1057 l 1,17,18
 326 1042 326 1042 315 1021 c 2,19,-1
 259 916 l 1,20,21
 240 886 240 886 212 886 c 2,22,-1
 55 886 l 1,23,-1
 223 1151 l 1,0,-1
EndSplineSet
Validated: 1
EndChar

StartChar: y.superior
Encoding: 1114179 -1 168
Width: 678
GlyphClass: 2
Flags: MW
LayerCount: 2
Fore
SplineSet
351 773 m 2,0,1
 340 747 340 747 328 738 c 128,-1,2
 316 729 316 729 292 729 c 2,3,-1
 159 729 l 1,4,-1
 259 938 l 1,5,-1
 58 1398 l 1,6,-1
 215 1398 l 2,7,8
 249 1398 249 1398 262 1369 c 1,9,-1
 324 1197 l 2,10,11
 337 1163 337 1163 346 1126 c 1,12,13
 354 1156 354 1156 371 1201 c 2,14,-1
 432 1368 l 2,15,16
 444 1398 444 1398 478 1398 c 2,17,-1
 616 1398 l 1,18,-1
 351 773 l 2,0,1
EndSplineSet
Validated: 1
EndChar

StartChar: z.superior
Encoding: 1114180 -1 169
Width: 570
GlyphClass: 2
Flags: MW
LayerCount: 2
Fore
SplineSet
495 1325 m 2,0,1
 495 1287 495 1287 468 1254 c 2,2,-1
 283 1021 l 1,3,-1
 492 1021 l 1,4,-1
 492 886 l 1,5,-1
 79 886 l 1,6,-1
 79 961 l 2,7,8
 79 991 79 991 108 1027 c 2,9,-1
 294 1264 l 1,10,-1
 92 1264 l 1,11,-1
 92 1398 l 1,12,-1
 495 1398 l 1,13,-1
 495 1325 l 2,0,1
EndSplineSet
Validated: 1
EndChar

StartChar: grave
Encoding: 96 96 170
Width: 615
GlyphClass: 2
Flags: MW
LayerCount: 2
Fore
SplineSet
315 1414 m 2,0,1
 356 1414 356 1414 376 1400.5 c 128,-1,2
 396 1387 396 1387 411 1361 c 2,3,-1
 545 1126 l 1,4,-1
 401 1126 l 2,5,6
 351 1126 351 1126 318 1161 c 2,7,-1
 77 1414 l 1,8,-1
 315 1414 l 2,0,1
EndSplineSet
Validated: 1
Substitution2: "sous-table 'locl' Formes localis+AOkA-es g+AOkA-ographiquement dans Grec lookup 38" uni1FEF
EndChar

StartChar: glyph171
Encoding: 1114181 -1 171
Width: 672
GlyphClass: 2
Flags: MW
LayerCount: 2
Fore
SplineSet
298 1798 m 2,0,1
 356 1798 356 1798 373 1784.5 c 128,-1,2
 390 1771 390 1771 401 1757 c 2,3,-1
 609 1495 l 1,4,-1
 425 1495 l 2,5,6
 395 1495 395 1495 378.5 1498.5 c 128,-1,7
 362 1502 362 1502 341 1520 c 2,8,-1
 32 1798 l 1,9,-1
 298 1798 l 2,0,1
EndSplineSet
Validated: 1
EndChar

StartChar: acute
Encoding: 180 180 172
Width: 616
GlyphClass: 2
Flags: MW
LayerCount: 2
Fore
SplineSet
554 1414 m 1,0,-1
 313 1161 l 1,1,2
 278 1126 278 1126 229 1126 c 2,3,-1
 77 1126 l 1,4,-1
 213 1361 l 2,5,6
 228 1387 228 1387 248 1400.5 c 128,-1,7
 268 1414 268 1414 308 1414 c 2,8,-1
 554 1414 l 1,0,-1
EndSplineSet
Validated: 1
Substitution2: "sous-table 'locl' Formes localis+AOkA-es g+AOkA-ographiquement dans Grec lookup 38" uni1FFD
EndChar

StartChar: glyph173
Encoding: 1114182 -1 173
Width: 672
GlyphClass: 2
Flags: MW
LayerCount: 2
Fore
SplineSet
767 1798 m 1,0,-1
 454 1521 l 2,1,2
 423 1495 423 1495 369 1495 c 2,3,-1
 185 1495 l 1,4,-1
 382 1757 l 1,5,6
 408 1794 408 1794 450 1797 c 0,7,8
 464 1798 464 1798 485 1798 c 2,9,-1
 767 1798 l 1,0,-1
EndSplineSet
Validated: 1
EndChar

StartChar: circumflex
Encoding: 710 710 174
Width: 822
GlyphClass: 2
Flags: MW
LayerCount: 2
Fore
SplineSet
753 1127 m 1,0,-1
 584 1127 l 2,1,2
 550 1127 550 1127 525 1152 c 2,3,-1
 436 1246 l 2,4,5
 419 1263 419 1263 414 1271 c 1,6,-1
 394 1247 l 1,7,-1
 303 1152 l 2,8,9
 278 1127 278 1127 245 1127 c 2,10,-1
 69 1127 l 1,11,-1
 292 1398 l 1,12,-1
 530 1398 l 1,13,-1
 753 1127 l 1,0,-1
EndSplineSet
Validated: 1
EndChar

StartChar: glyph175
Encoding: 1114183 -1 175
Width: 923
GlyphClass: 2
Flags: MW
LayerCount: 2
Fore
SplineSet
814 1495 m 1,0,-1
 630 1495 l 2,1,2
 580 1495 580 1495 548 1534 c 1,3,-1
 461 1650 l 1,4,5
 458 1645 458 1645 454.5 1639 c 128,-1,6
 451 1633 451 1633 446 1628 c 2,7,-1
 375 1534 l 1,8,9
 343 1495 343 1495 293 1495 c 2,10,-1
 117 1495 l 1,11,-1
 351 1762 l 1,12,-1
 581 1762 l 1,13,-1
 814 1495 l 1,0,-1
EndSplineSet
Validated: 1
EndChar

StartChar: caron
Encoding: 711 711 176
Width: 822
GlyphClass: 2
Flags: MW
LayerCount: 2
Fore
SplineSet
69 1398 m 1,0,-1
 245 1398 l 2,1,2
 276 1398 276 1398 295 1381 c 1,3,-1
 392 1279 l 2,4,5
 403 1267 403 1267 414 1254 c 1,6,7
 420 1261 420 1261 425.5 1267.5 c 128,-1,8
 431 1274 431 1274 437 1280 c 2,9,-1
 533 1380 l 2,10,11
 551 1398 551 1398 584 1398 c 2,12,-1
 753 1398 l 1,13,-1
 530 1127 l 1,14,-1
 292 1127 l 1,15,-1
 69 1398 l 1,0,-1
EndSplineSet
Validated: 1
EndChar

StartChar: glyph177
Encoding: 1114184 -1 177
Width: 923
GlyphClass: 2
Flags: MW
LayerCount: 2
Fore
SplineSet
581 1495 m 1,0,-1
 343 1495 l 1,1,-1
 109 1762 l 1,2,-1
 293 1762 l 2,3,4
 345 1762 345 1762 368 1732 c 2,5,-1
 446 1626 l 2,6,7
 450 1620 450 1620 454 1614.5 c 128,-1,8
 458 1609 458 1609 461 1604 c 1,9,-1
 555 1731 l 2,10,11
 578 1762 578 1762 630 1762 c 2,12,-1
 814 1762 l 1,13,-1
 581 1495 l 1,0,-1
EndSplineSet
Validated: 1
EndChar

StartChar: uni0315
Encoding: 789 789 178
Width: 508
GlyphClass: 4
Flags: MW
LayerCount: 2
Fore
SplineSet
358 1439 m 2,0,1
 399 1439 399 1439 399 1402 c 0,2,3
 399 1363 399 1363 303 1146 c 0,4,5
 290 1117 290 1117 269 1108.5 c 128,-1,6
 248 1100 248 1100 216 1100 c 2,7,-1
 126 1100 l 1,8,-1
 187 1439 l 1,9,-1
 358 1439 l 2,0,1
EndSplineSet
Validated: 1
EndChar

StartChar: tilde
Encoding: 732 732 179
Width: 910
GlyphClass: 2
Flags: MW
LayerCount: 2
Fore
SplineSet
558 1319 m 256,0,1
 559 1319 559 1319 561 1319 c 0,2,3
 609 1318 609 1318 623 1356 c 0,4,5
 628 1369 628 1369 633 1390 c 1,6,-1
 771 1390 l 1,7,8
 771 1281 771 1281 713 1212 c 0,9,10
 656 1145 656 1145 567 1145 c 0,11,12
 517 1145 517 1145 468 1171 c 128,-1,13
 419 1197 419 1197 396.5 1209 c 128,-1,14
 374 1221 374 1221 348 1221 c 0,15,16
 298 1221 298 1221 275 1150 c 1,17,-1
 142 1150 l 1,18,19
 142 1261 142 1261 200.5 1329 c 128,-1,20
 259 1397 259 1397 346 1397 c 0,21,22
 401 1397 401 1397 448 1370 c 128,-1,23
 495 1343 495 1343 517 1331 c 128,-1,24
 539 1319 539 1319 558 1319 c 256,0,1
EndSplineSet
Validated: 33
EndChar

StartChar: glyph180
Encoding: 1114185 -1 180
Width: 918
GlyphClass: 2
Flags: MW
LayerCount: 2
Fore
SplineSet
528.5 1663 m 128,-1,1
 553 1648 553 1648 576.5 1648 c 128,-1,2
 600 1648 600 1648 615.5 1656.5 c 128,-1,3
 631 1665 631 1665 641 1678 c 0,4,5
 661 1704 661 1704 661 1737 c 1,6,-1
 815 1737 l 1,7,8
 815 1634 815 1634 762 1562 c 0,9,10
 705 1484 705 1484 610 1484 c 256,11,12
 534 1484 534 1484 456 1532 c 0,13,14
 426 1550 426 1550 401.5 1565.5 c 128,-1,15
 377 1581 377 1581 354 1581 c 128,-1,16
 331 1581 331 1581 316 1572 c 0,17,18
 300 1564 300 1564 290 1550 c 0,19,20
 270 1522 270 1522 271 1489 c 1,21,-1
 115 1489 l 1,22,23
 114 1594 114 1594 168 1666 c 0,24,25
 227 1744 227 1744 321 1744 c 0,26,27
 396 1744 396 1744 474 1696 c 0,28,0
 504 1678 504 1678 528.5 1663 c 128,-1,1
EndSplineSet
Validated: 33
EndChar

StartChar: glyph182
Encoding: 1114186 -1 182
Width: 904
GlyphClass: 2
Flags: MW
LayerCount: 2
Fore
SplineSet
372 1609 m 256,0,1
 372 1555 372 1555 331 1516 c 128,-1,2
 290 1477 290 1477 249 1477 c 128,-1,3
 208 1477 208 1477 184 1487.5 c 128,-1,4
 160 1498 160 1498 142 1516 c 0,5,6
 102 1556 102 1556 102 1609 c 256,7,8
 102 1662 102 1662 142 1704 c 0,9,10
 181 1744 181 1744 221.5 1744 c 128,-1,11
 262 1744 262 1744 287 1733 c 128,-1,12
 312 1722 312 1722 331 1704 c 0,13,14
 372 1664 372 1664 372 1609 c 256,0,1
802 1609 m 256,15,16
 802 1554 802 1554 762 1516 c 0,17,18
 722 1477 722 1477 667 1477 c 256,19,20
 612 1477 612 1477 572 1516 c 0,21,22
 532 1554 532 1554 532 1609 c 256,23,24
 532 1664 532 1664 572 1704 c 0,25,26
 612 1744 612 1744 667 1744 c 256,27,28
 722 1744 722 1744 762 1704 c 0,29,30
 802 1664 802 1664 802 1609 c 256,15,16
EndSplineSet
Validated: 1
EndChar

StartChar: macron
Encoding: 175 175 183
Width: 799
GlyphClass: 2
Flags: MW
LayerCount: 2
Fore
SplineSet
108 1329 m 1,0,-1
 691 1329 l 1,1,-1
 691 1168 l 1,2,-1
 108 1168 l 1,3,-1
 108 1329 l 1,0,-1
EndSplineSet
Validated: 1
EndChar

StartChar: glyph184
Encoding: 1114187 -1 184
Width: 878
GlyphClass: 2
Flags: MW
LayerCount: 2
Fore
SplineSet
144 1656 m 1,0,-1
 734 1656 l 1,1,-1
 734 1511 l 1,2,-1
 144 1511 l 1,3,-1
 144 1656 l 1,0,-1
EndSplineSet
Validated: 1
EndChar

StartChar: breve
Encoding: 728 728 185
Width: 788
GlyphClass: 2
Flags: MW
LayerCount: 2
Fore
SplineSet
536 1142 m 0,0,1
 478 1120 478 1120 393.5 1120 c 128,-1,2
 309 1120 309 1120 252 1142 c 0,3,4
 194 1164 194 1164 160 1202 c 0,5,6
 96 1273 96 1273 96 1398 c 1,7,-1
 273 1398 l 1,8,9
 273 1339 273 1339 292 1317 c 0,10,11
 325 1279 325 1279 394 1279 c 256,12,13
 490 1279 490 1279 508 1348 c 0,14,15
 514 1370 514 1370 514 1398 c 1,16,-1
 692 1398 l 1,17,18
 692 1202 692 1202 536 1142 c 0,0,1
EndSplineSet
Validated: 1
Substitution2: "sous-table 'locl' Formes localis+AOkA-es g+AOkA-ographiquement dans Cyrillique lookup 35" breve.locl
EndChar

StartChar: glyph186
Encoding: 1114188 -1 186
Width: 804
GlyphClass: 2
Flags: MW
LayerCount: 2
Fore
SplineSet
402 1492 m 0,0,1
 328 1492 328 1492 268 1508 c 128,-1,2
 208 1524 208 1524 166 1557 c 0,3,4
 76 1626 76 1626 76 1758 c 1,5,-1
 270 1758 l 1,6,7
 270 1701 270 1701 292 1679 c 0,8,9
 330 1643 330 1643 403 1643 c 128,-1,10
 476 1643 476 1643 505 1673 c 128,-1,11
 534 1703 534 1703 534 1758 c 1,12,-1
 728 1758 l 1,13,14
 728 1636 728 1636 638 1564 c 0,15,16
 550 1492 550 1492 402 1492 c 0,0,1
EndSplineSet
Validated: 1
EndChar

StartChar: ring
Encoding: 730 730 187
Width: 671
GlyphClass: 2
Flags: MW
LayerCount: 2
Fore
SplineSet
116 1282 m 0,0,1
 116 1328 116 1328 134 1365 c 128,-1,2
 152 1402 152 1402 182 1428 c 0,3,4
 245 1484 245 1484 335 1484 c 256,5,6
 426 1484 426 1484 490 1428 c 0,7,8
 556 1370 556 1370 557 1281 c 0,9,10
 556 1194 556 1194 490 1137 c 0,11,12
 427 1083 427 1083 335 1083 c 256,13,14
 244 1083 244 1083 182 1137 c 0,15,16
 116 1195 116 1195 116 1282 c 0,0,1
338 1366 m 0,17,18
 253 1366 253 1366 253 1281 c 0,19,20
 253 1244 253 1244 274.5 1221 c 128,-1,21
 296 1198 296 1198 335.5 1198 c 128,-1,22
 375 1198 375 1198 397.5 1221 c 128,-1,23
 420 1244 420 1244 420 1282.5 c 128,-1,24
 420 1321 420 1321 397.5 1343.5 c 128,-1,25
 375 1366 375 1366 338 1366 c 0,17,18
EndSplineSet
Validated: 1
EndChar

StartChar: glyph188
Encoding: 1114189 -1 188
Width: 680
GlyphClass: 2
Flags: MW
LayerCount: 2
Fore
SplineSet
135 1648 m 0,0,1
 135 1690 135 1690 151.5 1725 c 128,-1,2
 168 1760 168 1760 196 1785 c 0,3,4
 254 1837 254 1837 338 1837 c 0,5,6
 424 1837 424 1837 484 1785 c 0,7,8
 546 1731 546 1731 545 1648 c 0,9,10
 546 1568 546 1568 484 1516 c 0,11,12
 423 1465 423 1465 338 1465 c 0,13,14
 256 1465 256 1465 196 1516 c 0,15,16
 135 1568 135 1568 135 1648 c 0,0,1
341 1734 m 0,17,18
 256 1734 256 1734 256 1648 c 0,19,20
 256 1612 256 1612 277.5 1588.5 c 128,-1,21
 299 1565 299 1565 339 1565 c 128,-1,22
 379 1565 379 1565 401.5 1588.5 c 128,-1,23
 424 1612 424 1612 424 1650 c 128,-1,24
 424 1688 424 1688 401.5 1711 c 128,-1,25
 379 1734 379 1734 341 1734 c 0,17,18
EndSplineSet
Validated: 33
EndChar

StartChar: glyph190
Encoding: 1114191 -1 190
Width: 693
GlyphClass: 2
Flags: MW
LayerCount: 2
Fore
SplineSet
154 1615 m 0,0,1
 154 1654 154 1654 170 1686 c 0,2,3
 186 1719 186 1719 212 1742 c 0,4,5
 267 1791 267 1791 343 1791 c 0,6,7
 422 1791 422 1791 478 1742 c 0,8,9
 536 1692 536 1692 536 1614 c 0,10,11
 536 1540 536 1540 478 1490 c 0,12,13
 423 1443 423 1443 346 1443 c 0,14,15
 345 1443 345 1443 343 1443 c 128,-1,16
 341 1443 341 1443 340 1443 c 0,17,18
 268 1442 268 1442 212 1490 c 0,19,20
 154 1540 154 1540 154 1615 c 0,0,1
346 1695 m 0,21,22
 266 1695 266 1695 266 1614 c 0,23,24
 266 1580 266 1580 286.5 1558 c 128,-1,25
 307 1536 307 1536 344 1536 c 128,-1,26
 381 1536 381 1536 402.5 1558 c 128,-1,27
 424 1580 424 1580 424 1616 c 128,-1,28
 424 1652 424 1652 402.5 1673.5 c 128,-1,29
 381 1695 381 1695 346 1695 c 0,21,22
791 2056 m 1,30,-1
 493 1852 l 2,31,32
 456 1828 456 1828 406 1828 c 2,33,-1
 222 1828 l 1,34,-1
 404 2018 l 2,35,36
 436 2052 436 2052 463 2054 c 128,-1,37
 490 2056 490 2056 510 2056 c 2,38,-1
 791 2056 l 1,30,-1
EndSplineSet
Validated: 33
EndChar

StartChar: hungarumlaut
Encoding: 733 733 191
Width: 995
GlyphClass: 2
Flags: MW
LayerCount: 2
Fore
SplineSet
628 1414 m 1,0,-1
 434 1161 l 1,1,2
 404 1126 404 1126 351 1126 c 2,3,-1
 247 1126 l 1,4,-1
 368 1361 l 2,5,6
 382 1387 382 1387 402 1400.5 c 128,-1,7
 422 1414 422 1414 463 1414 c 2,8,-1
 628 1414 l 1,0,-1
971 1414 m 1,9,-1
 727 1161 l 2,10,11
 692 1126 692 1126 644 1126 c 2,12,-1
 523 1126 l 1,13,-1
 694 1362 l 2,14,15
 724 1403 724 1403 747 1408.5 c 128,-1,16
 770 1414 770 1414 790 1414 c 2,17,-1
 971 1414 l 1,9,-1
EndSplineSet
Validated: 1
EndChar

StartChar: glyph192
Encoding: 1114192 -1 192
Width: 1093
GlyphClass: 2
Flags: MW
LayerCount: 2
Fore
SplineSet
686 1762 m 1,0,-1
 483 1533 l 1,1,2
 451 1495 451 1495 402 1495 c 2,3,-1
 282 1495 l 1,4,-1
 414 1708 l 1,5,6
 445 1762 445 1762 521 1762 c 2,7,-1
 686 1762 l 1,0,-1
1075 1762 m 1,8,-1
 823 1531 l 2,9,10
 783 1495 783 1495 732 1495 c 2,11,-1
 595 1495 l 1,12,-1
 772 1708 l 2,13,14
 817 1762 817 1762 885 1762 c 2,15,-1
 1075 1762 l 1,8,-1
EndSplineSet
Validated: 1
EndChar

StartChar: dotaccent
Encoding: 729 729 193
Width: 482
GlyphClass: 2
Flags: MW
LayerCount: 2
Fore
SplineSet
402 1281 m 256,0,1
 402 1216 402 1216 354 1170 c 128,-1,2
 306 1124 306 1124 239 1123 c 0,3,4
 175 1123 175 1123 128.5 1169.5 c 128,-1,5
 82 1216 82 1216 82 1281 c 256,6,7
 82 1347 82 1347 128.5 1393.5 c 128,-1,8
 175 1440 175 1440 223.5 1440 c 128,-1,9
 272 1440 272 1440 302 1428 c 128,-1,11
 332 1416 332 1416 354 1394 c 0,12,13
 402 1346 402 1346 402 1281 c 256,0,1
EndSplineSet
Validated: 1
EndChar

StartChar: glyph194
Encoding: 1114193 -1 194
Width: 482
GlyphClass: 2
Flags: MW
LayerCount: 2
Fore
SplineSet
380.5 1697.5 m 128,-1,1
 393 1670 393 1670 393 1639.5 c 128,-1,2
 393 1609 393 1609 380.5 1581.5 c 128,-1,3
 368 1554 368 1554 347 1534 c 0,4,5
 301 1490 301 1490 237 1489 c 0,6,7
 178 1489 178 1489 133.5 1533.5 c 128,-1,8
 89 1578 89 1578 89 1624 c 128,-1,9
 89 1670 89 1670 101 1698 c 0,10,11
 114 1725 114 1725 134 1746 c 0,12,13
 177 1791 177 1791 224 1791 c 0,14,15
 269 1791 269 1791 297.5 1779 c 128,-1,16
 326 1767 326 1767 347 1746 c 128,-1,0
 368 1725 368 1725 380.5 1697.5 c 128,-1,1
EndSplineSet
Validated: 1
EndChar

StartChar: cedilla
Encoding: 184 184 195
Width: 621
GlyphClass: 2
Flags: MW
LayerCount: 2
Fore
SplineSet
363 -56 m 1,0,1
 525 -93 525 -93 525 -201 c 0,2,3
 524 -265 524 -265 458 -305 c 0,4,5
 393 -344 393 -344 284 -344 c 0,6,7
 211 -344 211 -344 143 -324 c 1,8,-1
 166 -246 l 1,9,10
 172 -222 172 -222 190.5 -222 c 128,-1,11
 209 -222 209 -222 224.5 -228 c 128,-1,12
 240 -234 240 -234 268.5 -234 c 128,-1,13
 297 -234 297 -234 311.5 -223 c 128,-1,14
 326 -212 326 -212 326 -197 c 0,15,16
 326 -171 326 -171 293.5 -159.5 c 128,-1,17
 261 -148 261 -148 189 -138 c 1,18,-1
 247 36 l 1,19,-1
 388 36 l 1,20,-1
 363 -56 l 1,0,1
EndSplineSet
Validated: 1
EndChar

StartChar: ogonek
Encoding: 731 731 196
Width: 646
GlyphClass: 2
Flags: MW
LayerCount: 2
Fore
SplineSet
392 -187 m 0,0,1
 425 -187 425 -187 439.5 -180.5 c 128,-1,2
 454 -174 454 -174 465 -174 c 128,-1,3
 476 -174 476 -174 483 -191 c 2,4,-1
 521 -285 l 1,5,6
 446 -334 446 -334 343.5 -334 c 128,-1,7
 241 -334 241 -334 189.5 -294 c 128,-1,8
 138 -254 138 -254 138 -191 c 0,9,10
 138 -74 138 -74 295 12 c 1,11,-1
 426 0 l 1,12,13
 327 -52 327 -52 327 -119.5 c 128,-1,14
 327 -187 327 -187 392 -187 c 0,0,1
EndSplineSet
Validated: 1
EndChar

StartChar: glyph197
Encoding: 1114194 -1 197
Width: 514
GlyphClass: 2
Flags: MW
LayerCount: 2
Fore
SplineSet
340 -85 m 2,0,1
 381 -85 381 -85 381 -123 c 0,2,3
 381 -179 381 -179 313 -330 c 0,4,5
 299 -358 299 -358 278.5 -366.5 c 128,-1,6
 258 -375 258 -375 226 -375 c 2,7,-1
 136 -375 l 1,8,-1
 185 -85 l 1,9,-1
 340 -85 l 2,0,1
EndSplineSet
Validated: 1
EndChar

StartChar: glyph198
Encoding: 1114195 -1 198
Width: 556
GlyphClass: 2
Flags: MW
LayerCount: 2
Fore
SplineSet
386 1128 m 1,0,-1
 168 1128 l 1,1,-1
 277 1401 l 1,2,-1
 436 1401 l 1,3,-1
 386 1128 l 1,0,-1
EndSplineSet
Validated: 1
EndChar

StartChar: Gamma
Encoding: 915 915 199
Width: 839
GlyphClass: 2
Flags: MW
LayerCount: 2
Fore
SplineSet
798 1127 m 1,0,-1
 352 1127 l 1,1,-1
 352 0 l 1,2,-1
 88 0 l 1,3,-1
 88 1328 l 1,4,-1
 798 1328 l 1,5,-1
 798 1127 l 1,0,-1
EndSplineSet
Validated: 1
Position2: "sous-table 'cpsp' Chasses pour composition en capitales lookups0" dx=40 dy=0 dh=80 dv=0
EndChar

StartChar: uni0394
Encoding: 916 916 200
Width: 1183
GlyphClass: 2
Flags: MW
LayerCount: 2
Fore
SplineSet
24 74 m 2,0,1
 24 153 24 153 54 224 c 1,2,-1
 434 1328 l 1,3,-1
 704 1328 l 1,4,-1
 1079 228 l 1,5,6
 1111 155 1111 155 1111 75 c 2,7,-1
 1111 0 l 1,8,-1
 24 0 l 1,9,-1
 24 74 l 2,0,1
281 207 m 1,10,-1
 826 207 l 1,11,-1
 614 924 l 1,12,13
 590 981 590 981 558 1104 c 1,14,15
 534 1001 534 1001 502 922 c 1,16,-1
 281 207 l 1,10,-1
EndSplineSet
Validated: 1
Position2: "sous-table 'cpsp' Chasses pour composition en capitales lookups0" dx=40 dy=0 dh=80 dv=0
EndChar

StartChar: Theta
Encoding: 920 920 201
Width: 1385
GlyphClass: 2
Flags: MW
LayerCount: 2
Fore
SplineSet
508 770 m 1,0,-1
 960 770 l 1,1,-1
 960 562 l 1,2,-1
 508 562 l 1,3,-1
 508 770 l 1,0,-1
1338 664 m 0,4,5
 1338 518 1338 518 1292 394 c 128,-1,6
 1246 270 1246 270 1162 179 c 0,7,8
 983 -14 983 -14 694 -14 c 256,9,10
 406 -14 406 -14 226 179 c 0,11,12
 48 370 48 370 48 665 c 128,-1,13
 48 960 48 960 226 1150 c 0,14,15
 407 1343 407 1343 691 1343 c 0,16,17
 693 1343 693 1343 694 1343 c 256,18,19
 982 1343 982 1343 1162 1149 c 0,20,21
 1338 958 1338 958 1338 664 c 0,4,5
1070 664 m 0,22,23
 1070 770 1070 770 1044 854.5 c 128,-1,24
 1018 939 1018 939 970 998 c 0,25,26
 870 1120 870 1120 694 1120 c 256,27,28
 518 1120 518 1120 418 998 c 128,-1,29
 318 876 318 876 317 665 c 0,30,31
 318 452 318 452 418 330 c 0,32,33
 518 210 518 210 694 210 c 256,34,35
 870 210 870 210 970 330 c 128,-1,36
 1070 450 1070 450 1070 664 c 0,22,23
EndSplineSet
Validated: 1
Position2: "sous-table 'cpsp' Chasses pour composition en capitales lookups0" dx=40 dy=0 dh=80 dv=0
EndChar

StartChar: Lambda
Encoding: 923 923 202
Width: 1216
GlyphClass: 2
Flags: MW
LayerCount: 2
Fore
SplineSet
1215 0 m 1,0,-1
 989 0 l 2,1,2
 926 0 926 0 901 59 c 1,3,-1
 648 842 l 1,4,5
 616 924 616 924 589 1036 c 1,6,7
 565 920 565 920 535 842 c 1,8,-1
 285 59 l 1,9,10
 277 38 277 38 254 19 c 128,-1,11
 231 0 231 0 198 0 c 2,12,-1
 1 0 l 1,13,-1
 490 1328 l 1,14,-1
 727 1328 l 1,15,-1
 1215 0 l 1,0,-1
EndSplineSet
Validated: 1
Position2: "sous-table 'cpsp' Chasses pour composition en capitales lookups0" dx=40 dy=0 dh=80 dv=0
EndChar

StartChar: Xi
Encoding: 926 926 203
Width: 1008
GlyphClass: 2
Flags: MW
LayerCount: 2
Fore
SplineSet
963 1328 m 1,0,-1
 963 1112 l 1,1,-1
 46 1112 l 1,2,-1
 46 1328 l 1,3,-1
 963 1328 l 1,0,-1
963 216 m 1,4,-1
 963 0 l 1,5,-1
 46 0 l 1,6,-1
 46 216 l 1,7,-1
 963 216 l 1,4,-1
250 778 m 1,8,-1
 756 778 l 1,9,-1
 756 554 l 1,10,-1
 250 554 l 1,11,-1
 250 778 l 1,8,-1
EndSplineSet
Validated: 1
Position2: "sous-table 'cpsp' Chasses pour composition en capitales lookups0" dx=40 dy=0 dh=80 dv=0
EndChar

StartChar: Pi
Encoding: 928 928 204
Width: 1292
GlyphClass: 2
Flags: MW
LayerCount: 2
Fore
SplineSet
1179 0 m 1,0,-1
 915 0 l 1,1,-1
 915 1127 l 1,2,-1
 377 1127 l 1,3,-1
 377 0 l 1,4,-1
 113 0 l 1,5,-1
 113 1328 l 1,6,-1
 1179 1328 l 1,7,-1
 1179 0 l 1,0,-1
EndSplineSet
Validated: 1
Position2: "sous-table 'cpsp' Chasses pour composition en capitales lookups0" dx=40 dy=0 dh=80 dv=0
EndChar

StartChar: Sigma
Encoding: 931 931 205
Width: 962
GlyphClass: 2
Flags: MW
LayerCount: 2
Fore
SplineSet
654 686 m 128,-1,1
 654 674 654 674 651.5 661 c 128,-1,2
 649 648 649 648 642 632 c 0,3,4
 632 611 632 611 590 551 c 2,5,-1
 395 276 l 2,6,7
 344 206 344 206 322 189 c 1,8,9
 404 201 404 201 461 201 c 2,10,-1
 921 201 l 1,11,-1
 921 0 l 1,12,-1
 40 0 l 1,13,-1
 40 98 l 2,14,15
 40 155 40 155 87 204 c 1,16,-1
 437 661 l 1,17,-1
 70 1144 l 1,18,19
 40 1179 40 1179 40 1217 c 2,20,-1
 40 1328 l 1,21,-1
 921 1328 l 1,22,-1
 921 1127 l 1,23,-1
 492 1127 l 2,24,25
 396 1127 396 1127 314 1143 c 1,26,27
 351 1120 351 1120 374.5 1093.5 c 128,-1,28
 398 1067 398 1067 425 1033 c 1,29,-1
 591 811 l 1,30,31
 644 742 644 742 649 720 c 128,-1,0
 654 698 654 698 654 686 c 128,-1,1
EndSplineSet
Validated: 1
Position2: "sous-table 'cpsp' Chasses pour composition en capitales lookups0" dx=40 dy=0 dh=80 dv=0
EndChar

StartChar: Phi
Encoding: 934 934 206
Width: 1641
GlyphClass: 2
Flags: MW
LayerCount: 2
Fore
SplineSet
945 1259 m 1,0,1
 1236 1256 1236 1256 1414 1084 c 0,2,3
 1588 917 1588 917 1587 667 c 0,4,5
 1588 416 1588 416 1414 248 c 0,6,7
 1234 74 1234 74 945 73 c 1,8,-1
 945 -103 l 1,9,-1
 697 -103 l 1,10,-1
 697 73 l 1,11,12
 409 74 409 74 228 248 c 0,13,14
 55 414 55 414 55 664 c 0,15,16
 55 918 55 918 229 1084 c 0,17,18
 409 1256 409 1256 697 1259 c 1,19,-1
 697 1431 l 1,20,-1
 945 1431 l 1,21,-1
 945 1259 l 1,0,1
1334 666 m 0,22,23
 1334 746 1334 746 1306.5 817 c 128,-1,24
 1279 888 1279 888 1228 941 c 0,25,26
 1119 1054 1119 1054 945 1058 c 1,27,-1
 945 275 l 1,28,29
 1118 277 1118 277 1228 391 c 0,30,31
 1334 501 1334 501 1334 666 c 0,22,23
309 666 m 0,32,33
 309 586 309 586 336.5 515 c 128,-1,34
 364 444 364 444 415 391 c 0,35,36
 525 277 525 277 697 275 c 1,37,-1
 697 1058 l 1,38,39
 524 1054 524 1054 415 941 c 0,40,41
 309 830 309 830 309 666 c 0,32,33
EndSplineSet
Validated: 33
Position2: "sous-table 'cpsp' Chasses pour composition en capitales lookups0" dx=40 dy=0 dh=80 dv=0
EndChar

StartChar: Psi
Encoding: 936 936 207
Width: 1654
GlyphClass: 2
Flags: MW
LayerCount: 2
Fore
SplineSet
264 1328 m 2,0,1
 306 1328 306 1328 329 1303 c 128,-1,2
 352 1278 352 1278 352 1241 c 2,3,-1
 352 851 l 2,4,5
 352 694 352 694 428 618 c 0,6,7
 508 538 508 538 694 526 c 1,8,-1
 694 1328 l 1,9,-1
 957 1328 l 1,10,-1
 957 526 l 1,11,12
 1229 540 1229 540 1284 716 c 0,13,14
 1302 774 1302 774 1302 851 c 2,15,-1
 1302 1241 l 2,16,17
 1302 1278 1302 1278 1325 1303 c 128,-1,18
 1348 1328 1348 1328 1390 1328 c 2,19,-1
 1566 1328 l 1,20,-1
 1566 851 l 2,21,22
 1566 612 1566 612 1412 473 c 0,23,24
 1253 330 1253 330 957 316 c 1,25,-1
 957 0 l 1,26,-1
 694 0 l 1,27,-1
 694 316 l 1,28,29
 402 330 402 330 242 474 c 0,30,31
 88 612 88 612 88 851 c 2,32,-1
 88 1328 l 1,33,-1
 264 1328 l 2,0,1
EndSplineSet
Validated: 1
Position2: "sous-table 'cpsp' Chasses pour composition en capitales lookups0" dx=40 dy=0 dh=80 dv=0
EndChar

StartChar: uni03A9
Encoding: 937 937 208
Width: 1394
GlyphClass: 2
Flags: MW
LayerCount: 2
Fore
SplineSet
974 198 m 1,0,1
 1088 215 1088 215 1164 215 c 2,2,-1
 1343 215 l 1,3,-1
 1343 82 l 2,4,5
 1343 46 1343 46 1319.5 23 c 128,-1,6
 1296 0 1296 0 1255 0 c 2,7,-1
 790 0 l 1,8,-1
 790 296 l 1,9,10
 902 314 902 314 982 439 c 128,-1,11
 1062 564 1062 564 1062 731 c 0,12,13
 1062 920 1062 920 954 1024 c 0,14,15
 856 1119 856 1119 697 1119 c 256,16,17
 539 1119 539 1119 440 1024 c 0,18,19
 333 921 333 921 333 734 c 0,20,21
 333 566 333 566 414 439 c 0,22,23
 494 314 494 314 605 296 c 1,24,-1
 605 0 l 1,25,-1
 138 0 l 2,26,27
 98 0 98 0 74.5 23 c 128,-1,28
 51 46 51 46 51 82 c 2,29,-1
 51 215 l 1,30,-1
 230 215 l 2,31,32
 306 215 306 215 420 198 c 1,33,34
 260 259 260 259 168 402 c 0,35,36
 72 550 72 550 72 735 c 0,37,38
 72 996 72 996 251 1169.5 c 128,-1,39
 430 1343 430 1343 698 1343 c 0,40,41
 700 1343 700 1343 701 1343 c 0,42,43
 964 1344 964 1344 1143 1170 c 0,44,45
 1323 995 1323 995 1323 735 c 0,46,47
 1323 550 1323 550 1226 402 c 0,48,49
 1132 259 1132 259 974 198 c 1,0,1
EndSplineSet
Validated: 33
Position2: "sous-table 'cpsp' Chasses pour composition en capitales lookups0" dx=40 dy=0 dh=80 dv=0
EndChar

StartChar: alpha
Encoding: 945 945 209
Width: 1210
GlyphClass: 2
Flags: MW
LayerCount: 2
Fore
SplineSet
818 891 m 1,0,-1
 833 948 l 2,1,2
 845 993 845 993 896 993 c 2,3,-1
 1051 993 l 1,4,-1
 1003 484 l 1,5,6
 990 364 990 364 990 317.5 c 128,-1,7
 990 271 990 271 1000.5 246.5 c 128,-1,8
 1011 222 1011 222 1029 206 c 0,9,10
 1066 175 1066 175 1122 175 c 2,11,-1
 1196 175 l 1,12,-1
 1196 76 l 2,13,14
 1196 41 1196 41 1154 16 c 0,15,16
 1110 -10 1110 -10 1036.5 -10 c 128,-1,17
 963 -10 963 -10 900 28 c 128,-1,18
 837 66 837 66 804 148 c 1,19,20
 681 -15 681 -15 475 -15 c 0,21,22
 297 -15 297 -15 184 117 c 0,23,24
 67 254 67 254 67 472 c 0,25,26
 67 712 67 712 198 864 c 0,27,28
 326 1012 326 1012 515 1012 c 128,-1,29
 704 1012 704 1012 818 891 c 1,0,-1
538 186 m 256,30,31
 728 186 728 186 758 459 c 1,32,-1
 780 693 l 1,33,34
 732 781 732 781 638 810 c 0,35,36
 606 820 606 820 564 820 c 0,37,38
 520 820 520 820 480 802 c 0,39,40
 436 782 436 782 402 742 c 0,41,42
 329 656 329 656 329 488 c 0,43,44
 329 254 329 254 458 202 c 0,45,46
 498 186 498 186 538 186 c 256,30,31
EndSplineSet
Validated: 1
EndChar

StartChar: beta
Encoding: 946 946 210
Width: 1117
GlyphClass: 2
Flags: MW
LayerCount: 2
Fore
SplineSet
622 -15 m 0,0,1
 476 -15 476 -15 386 72 c 1,2,-1
 386 -330 l 1,3,-1
 132 -330 l 1,4,-1
 132 894 l 2,5,6
 132 1269 132 1269 376 1376 c 0,7,8
 458 1412 458 1412 568 1412 c 0,9,10
 569 1413 569 1413 571 1413 c 0,11,12
 678 1413 678 1413 752 1382 c 0,13,14
 829 1351 829 1351 876 1302 c 0,15,16
 970 1204 970 1204 970 1061 c 0,17,18
 970 960 970 960 923 883 c 128,-1,19
 876 806 876 806 783 769 c 1,20,21
 979 712 979 712 1036 534 c 0,22,23
 1054 478 1054 478 1054 403 c 128,-1,24
 1054 328 1054 328 1023 250.5 c 128,-1,25
 992 173 992 173 936 114 c 0,26,27
 812 -15 812 -15 622 -15 c 0,0,1
386 270 m 1,28,29
 446 178 446 178 558 178 c 0,30,31
 677 178 677 178 740 256 c 0,32,33
 797 326 797 326 797 441 c 0,34,35
 797 568 797 568 723 622 c 0,36,37
 667 663 667 663 566 663 c 2,38,-1
 507 663 l 1,39,-1
 507 860 l 1,40,-1
 535 860 l 2,41,42
 632 860 632 860 681 899 c 128,-1,43
 730 938 730 938 730 1038 c 128,-1,44
 730 1138 730 1138 685 1184 c 128,-1,45
 640 1230 640 1230 579 1230 c 128,-1,46
 518 1230 518 1230 484 1212 c 0,47,48
 450 1193 450 1193 428 1152 c 0,49,50
 386 1074 386 1074 386 886 c 2,51,-1
 386 270 l 1,28,29
EndSplineSet
Validated: 1
Substitution2: "sous-table 'ss03' Style 3 lookups32" beta.salt
Substitution2: "sous-table 'salt' Alternatives stylistiques lookups28" beta.salt
EndChar

StartChar: beta.salt
Encoding: 1114196 -1 211
Width: 1106
GlyphClass: 2
Flags: MW
LayerCount: 2
Fore
SplineSet
783 846 m 1,0,1
 904 826 904 826 974 723 c 0,2,3
 1042 623 1042 623 1042 493 c 128,-1,4
 1042 363 1042 363 1003 272 c 0,5,6
 964 183 964 183 896 118 c 0,7,8
 757 -15 757 -15 542 -15 c 0,9,10
 541 -15 541 -15 539 -15 c 0,11,12
 306 -16 306 -16 186 164 c 0,13,14
 74 332 74 332 73 638 c 0,15,16
 73 1007 73 1007 229 1214 c 0,17,18
 381 1415 381 1415 632 1415 c 0,19,20
 634 1415 634 1415 635 1415 c 0,21,22
 808 1416 808 1416 899 1316 c 0,23,24
 973 1235 973 1235 973 1096 c 0,25,26
 973 956 973 956 783 846 c 1,0,1
320 592 m 1,27,28
 331 272 331 272 460 203 c 0,29,30
 501 181 501 181 554 181 c 128,-1,31
 607 181 607 181 652 204 c 128,-1,32
 697 227 697 227 729 267 c 0,33,34
 796 351 796 351 796 477 c 0,35,36
 796 607 796 607 722 662 c 0,37,38
 682 692 682 692 637 692 c 2,39,-1
 624 692 l 2,40,41
 578 692 578 692 526 671 c 2,42,-1
 320 592 l 1,27,28
728 1099 m 0,43,44
 728 1221 728 1221 604 1221 c 0,45,46
 603 1221 603 1221 603 1221 c 0,47,48
 430 1223 430 1223 358 986 c 0,49,50
 332 899 332 899 324 785 c 1,51,-1
 510 853 l 2,52,53
 728 933 728 933 728 1099 c 0,43,44
EndSplineSet
Validated: 33
EndChar

StartChar: gamma
Encoding: 947 947 212
Width: 957
GlyphClass: 2
Flags: MW
LayerCount: 2
Fore
SplineSet
-13 909 m 2,0,1
 -13 1002 -13 1002 109 1002 c 0,2,3
 443 1002 443 1002 510 368 c 1,4,5
 620 614 620 614 663 916 c 0,6,7
 670 960 670 960 691 976.5 c 128,-1,8
 712 993 712 993 736 993 c 2,9,-1
 954 993 l 1,10,11
 899 705 899 705 699 323 c 0,12,13
 641 212 641 212 581 114 c 1,14,-1
 581 -321 l 1,15,-1
 327 -321 l 1,16,-1
 327 100 l 1,17,18
 280 514 280 514 168 703 c 0,19,20
 100 817 100 817 20 817 c 2,21,-1
 -13 817 l 1,22,-1
 -13 909 l 2,0,1
EndSplineSet
Validated: 1
EndChar

StartChar: delta
Encoding: 948 948 213
Width: 1091
GlyphClass: 2
Flags: MW
LayerCount: 2
Fore
SplineSet
63 452 m 0,0,1
 63 764 63 764 378 889 c 1,2,3
 285 946 285 946 252 987 c 0,4,5
 190 1064 190 1064 190 1136.5 c 128,-1,6
 190 1209 190 1209 212 1256 c 0,7,8
 234 1302 234 1302 279 1336 c 0,9,10
 375 1408 375 1408 551 1408 c 0,11,12
 737 1408 737 1408 919 1367 c 1,13,-1
 899 1213 l 2,14,15
 894 1181 894 1181 879 1170 c 128,-1,16
 864 1159 864 1159 840 1159 c 128,-1,17
 816 1159 816 1159 781.5 1167.5 c 128,-1,18
 747 1176 747 1176 705 1186 c 0,19,20
 588 1212 588 1212 532 1212 c 128,-1,21
 476 1212 476 1212 452 1194.5 c 128,-1,22
 428 1177 428 1177 428 1151 c 128,-1,23
 428 1125 428 1125 454 1100.5 c 128,-1,24
 480 1076 480 1076 522 1050.5 c 128,-1,25
 564 1025 564 1025 618 996 c 128,-1,26
 672 967 672 967 728 931 c 128,-1,27
 784 895 784 895 838 850 c 128,-1,28
 892 805 892 805 934 747 c 0,29,30
 1028 617 1028 617 1028 451 c 0,31,32
 1028 246 1028 246 901 119 c 0,33,34
 770 -12 770 -12 546 -12 c 0,35,36
 324 -12 324 -12 192 118 c 0,37,38
 64 244 64 244 63 452 c 0,0,1
544 793 m 1,39,40
 326 700 326 700 326 459 c 0,41,42
 326 264 326 264 448 200 c 0,43,44
 490 178 490 178 544 178 c 0,45,46
 545 177 545 177 546 177 c 0,47,48
 598 177 598 177 639 196 c 0,49,50
 682 215 682 215 711 248 c 0,51,52
 774 320 774 320 774 445 c 0,53,54
 774 620 774 620 632 732 c 0,55,56
 590 765 590 765 544 793 c 1,39,40
EndSplineSet
Validated: 1
EndChar

StartChar: epsilon
Encoding: 949 949 214
Width: 937
GlyphClass: 2
Flags: MW
LayerCount: 2
Fore
SplineSet
908 149 m 1,0,1
 767 -12 767 -12 514 -12 c 0,2,3
 336 -12 336 -12 214 66 c 0,4,5
 84 150 84 150 84 290 c 0,6,7
 84 371 84 371 130 428 c 128,-1,8
 176 485 176 485 252 517 c 1,9,10
 104 587 104 587 104 733 c 0,11,12
 104 850 104 850 212 926 c 0,13,14
 330 1008 330 1008 528 1009 c 0,15,16
 746 1009 746 1009 881 885 c 1,17,-1
 824 787 l 1,18,19
 802 752 802 752 768 752 c 256,20,21
 751 752 751 752 732.5 762 c 128,-1,22
 714 772 714 772 688 784 c 0,23,24
 617 816 617 816 529.5 816 c 128,-1,25
 442 816 442 816 396.5 786.5 c 128,-1,26
 351 757 351 757 351 707.5 c 128,-1,27
 351 658 351 658 403.5 627.5 c 128,-1,28
 456 597 456 597 553 597 c 2,29,-1
 722 597 l 1,30,-1
 722 432 l 1,31,-1
 553 432 l 2,32,33
 342 432 342 432 342 312 c 0,34,35
 342 254 342 254 389.5 215.5 c 128,-1,36
 437 177 437 177 512.5 177 c 128,-1,37
 588 177 588 177 627.5 191 c 128,-1,38
 667 205 667 205 694.5 221.5 c 128,-1,39
 722 238 722 238 743 252 c 128,-1,40
 764 266 764 266 790.5 266 c 128,-1,41
 817 266 817 266 835 243 c 2,42,-1
 908 149 l 1,0,1
EndSplineSet
Validated: 1
EndChar

StartChar: zeta
Encoding: 950 950 215
Width: 746
GlyphClass: 2
Flags: MW
LayerCount: 2
Fore
SplineSet
470 1211 m 1,0,1
 387 1194 387 1194 304 1194 c 2,2,-1
 198 1194 l 2,3,4
 146 1194 146 1194 125 1214 c 0,5,6
 93 1245 93 1245 93 1277 c 2,7,-1
 93 1398 l 1,8,-1
 728 1398 l 1,9,-1
 752 1294 l 2,10,11
 758 1266 758 1266 741 1238 c 0,12,13
 711 1191 711 1191 639 1117 c 0,14,15
 609 1083 609 1083 571.5 1041.5 c 128,-1,16
 534 1000 534 1000 495.5 952.5 c 128,-1,17
 457 905 457 905 420 852 c 0,18,19
 384 798 384 798 356 740 c 0,20,21
 292 607 292 607 292 491 c 0,22,23
 292 387 292 387 341 330 c 0,24,25
 388 275 388 275 483.5 242 c 128,-1,26
 579 209 579 209 630 178 c 0,27,28
 680 148 680 148 710 114 c 0,29,30
 764 53 764 53 764 -61 c 0,31,32
 764 -173 764 -173 679 -311 c 1,33,-1
 483 -236 l 1,34,35
 529 -151 529 -151 529 -97 c 256,36,37
 529 -58 529 -58 505 -36 c 0,38,39
 460 5 460 5 373.5 35 c 128,-1,40
 287 65 287 65 228 100 c 0,41,42
 168 134 168 134 128 182 c 0,43,44
 48 278 48 278 49 437 c 0,45,46
 48 715 48 715 300 1020 c 0,47,48
 378 1114 378 1114 470 1211 c 1,0,1
EndSplineSet
Validated: 33
EndChar

StartChar: eta
Encoding: 951 951 216
Width: 1114
GlyphClass: 2
Flags: MW
LayerCount: 2
Fore
SplineSet
384 867 m 1,0,1
 526 1009 526 1009 698 1009 c 0,2,3
 848 1009 848 1009 934 903 c 0,4,5
 1016 801 1016 801 1016 632 c 2,6,-1
 1016 -322 l 1,7,-1
 762 -322 l 1,8,-1
 762 632 l 2,9,10
 762 717 762 717 726 764 c 128,-1,11
 690 811 690 811 621 811 c 0,12,13
 525 811 525 811 435 719 c 1,14,-1
 435 0 l 1,15,-1
 181 0 l 1,16,-1
 181 695 l 2,17,18
 181 818 181 818 86 818 c 2,19,-1
 38 818 l 1,20,-1
 38 918 l 2,21,22
 38 976 38 976 106 996 c 0,23,24
 130 1003 130 1003 165 1003 c 0,25,26
 326 1003 326 1003 384 867 c 1,0,1
EndSplineSet
Validated: 1
EndChar

StartChar: theta
Encoding: 952 952 217
Width: 1116
GlyphClass: 2
Flags: MW
LayerCount: 2
Fore
SplineSet
560 1415 m 0,0,1
 670 1415 670 1415 760.5 1369.5 c 128,-1,2
 851 1324 851 1324 915 1234 c 0,3,4
 1049 1046 1049 1046 1049 703 c 0,5,6
 1049 355 1049 355 915 167 c 0,7,8
 786 -15 786 -15 561 -15 c 0,9,10
 333 -15 333 -15 202 167 c 0,11,12
 67 355 67 355 67 698 c 0,13,14
 67 700 67 700 67 703 c 0,15,16
 67 1046 67 1046 202 1234 c 0,17,18
 332 1415 332 1415 560 1415 c 0,0,1
315 629 m 1,19,20
 330 181 330 181 561 181 c 0,21,22
 787 181 787 181 802 629 c 1,23,-1
 315 629 l 1,19,20
800 800 m 1,24,25
 777 1221 777 1221 561 1221 c 0,26,27
 339 1221 339 1221 316 800 c 1,28,-1
 800 800 l 1,24,25
EndSplineSet
Validated: 1
Substitution2: "sous-table 'ss03' Style 3 lookups32" theta.salt
Substitution2: "sous-table 'salt' Alternatives stylistiques lookups28" theta.salt
EndChar

StartChar: theta.salt
Encoding: 1114197 -1 218
Width: 1167
GlyphClass: 2
Flags: MW
LayerCount: 2
Fore
SplineSet
567 1411 m 0,0,1
 915 1411 915 1411 1001 993 c 1,2,-1
 1168 993 l 1,3,-1
 1168 894 l 2,4,5
 1168 862 1168 862 1148 837.5 c 128,-1,6
 1128 813 1128 813 1086 813 c 2,7,-1
 1024 813 l 1,8,9
 1027 765 1027 765 1027 656.5 c 128,-1,10
 1027 548 1027 548 997 414 c 128,-1,11
 967 280 967 280 906 184 c 0,12,13
 780 -15 780 -15 535 -15 c 0,14,15
 347 -14 347 -14 246 100 c 0,16,17
 148 211 148 211 148 412 c 2,18,-1
 148 579 l 2,19,20
 148 627 148 627 136.5 651.5 c 128,-1,21
 125 676 125 676 85 676 c 2,22,-1
 13 676 l 1,23,-1
 13 776 l 2,24,25
 13 810 13 810 54 835 c 0,26,27
 97 861 97 861 157.5 861 c 128,-1,28
 218 861 218 861 260 846 c 0,29,30
 302 832 302 832 334 799 c 0,31,32
 402 729 402 729 402 579 c 2,33,-1
 402 412 l 2,34,35
 402 303 402 303 442 242.5 c 128,-1,36
 482 182 482 182 559 182 c 0,37,38
 789 182 789 182 789 714 c 0,39,40
 789 765 789 765 787 813 c 1,41,42
 256 821 256 821 256 1136 c 0,43,44
 256 1256 256 1256 340 1332 c 0,45,46
 428 1410 428 1410 567 1411 c 0,0,1
767 993 m 1,47,48
 719 1230 719 1230 585 1230 c 0,49,50
 539 1230 539 1230 514 1203 c 128,-1,51
 489 1176 489 1176 489 1135 c 128,-1,52
 489 1094 489 1094 503 1070 c 0,53,54
 518 1044 518 1044 550 1028 c 0,55,56
 614 996 614 996 767 993 c 1,47,48
EndSplineSet
Validated: 1
EndChar

StartChar: iota
Encoding: 953 953 219
Width: 586
GlyphClass: 2
Flags: MW
LayerCount: 2
Fore
SplineSet
126 993 m 1,0,-1
 380 993 l 1,1,-1
 380 299 l 2,2,3
 380 238 380 238 402 206 c 128,-1,4
 424 174 424 174 477 174 c 2,5,-1
 566 174 l 1,6,-1
 566 98 l 2,7,8
 566 48 566 48 504 17 c 0,9,10
 449 -11 449 -11 381 -11 c 128,-1,11
 313 -11 313 -11 266.5 11.5 c 128,-1,12
 220 34 220 34 189 74 c 0,13,14
 126 154 126 154 126 285 c 2,15,-1
 126 993 l 1,0,-1
EndSplineSet
Validated: 1
EndChar

StartChar: lambda
Encoding: 955 955 220
Width: 996
GlyphClass: 2
Flags: MW
LayerCount: 2
Fore
SplineSet
96 1319 m 2,0,1
 96 1411 96 1411 235 1411 c 0,2,3
 441 1411 441 1411 507 1222 c 1,4,-1
 815 266 l 2,5,6
 830 218 830 218 849 201 c 0,7,8
 882 173 882 173 932 173 c 2,9,-1
 986 173 l 1,10,-1
 986 74 l 2,11,12
 986 4 986 4 921 -8 c 0,13,14
 901 -12 901 -12 868 -12 c 128,-1,15
 835 -12 835 -12 794.5 -3 c 128,-1,16
 754 6 754 6 717 29 c 0,17,18
 635 80 635 80 597 193 c 1,19,-1
 505 512 l 1,20,21
 490 551 490 551 483 596 c 1,22,23
 471 556 471 556 455 514 c 1,24,-1
 304 47 l 1,25,26
 283 0 283 0 233 0 c 2,27,-1
 13 0 l 1,28,-1
 366 892 l 1,29,-1
 294 1129 l 2,30,31
 277 1185 277 1185 256 1202 c 0,32,33
 224 1226 224 1226 167 1226 c 2,34,-1
 96 1226 l 1,35,-1
 96 1319 l 2,0,1
EndSplineSet
Validated: 1
EndChar

StartChar: uni03BC
Encoding: 956 956 221
Width: 1154
GlyphClass: 2
Flags: MW
LayerCount: 2
Fore
SplineSet
231 -322 m 2,0,1
 119 -322 119 -322 119 -217 c 2,2,-1
 119 993 l 1,3,-1
 373 993 l 1,4,-1
 373 410 l 2,5,6
 373 324 373 324 410.5 273 c 128,-1,7
 448 222 448 222 522 222 c 0,8,9
 656 222 656 222 717 373 c 1,10,-1
 717 993 l 1,11,-1
 971 993 l 1,12,-1
 971 298 l 2,13,14
 971 175 971 175 1075 175 c 2,15,-1
 1147 175 l 1,16,-1
 1147 75 l 2,17,18
 1147 19 1147 19 1056 -3 c 0,19,20
 1027 -10 1027 -10 989 -10 c 128,-1,21
 951 -10 951 -10 914 2 c 0,22,23
 878 12 878 12 847 36 c 0,24,25
 781 87 781 87 756 180 c 1,26,27
 655 16 655 16 506 16 c 0,28,29
 404 16 404 16 340 68 c 1,30,31
 357 -3 357 -3 357 -98 c 2,32,-1
 357 -322 l 1,33,-1
 231 -322 l 2,0,1
EndSplineSet
Validated: 1
EndChar

StartChar: nu
Encoding: 957 957 222
Width: 965
GlyphClass: 2
Flags: MW
LayerCount: 2
Fore
SplineSet
934 993 m 1,0,1
 861 620 861 620 653 223 c 0,2,3
 589 101 589 101 520 0 c 1,4,-1
 363 0 l 1,5,-1
 5 993 l 1,6,-1
 216 993 l 2,7,8
 271 993 271 993 288 947 c 1,9,-1
 431 440 l 1,10,11
 458 359 458 359 476 279 c 1,12,13
 580 488 580 488 644 922 c 0,14,15
 657 993 657 993 716 993 c 2,16,-1
 934 993 l 1,0,1
EndSplineSet
Validated: 1
EndChar

StartChar: xi
Encoding: 958 958 223
Width: 789
GlyphClass: 2
Flags: MW
LayerCount: 2
Fore
SplineSet
184 1210 m 2,0,1
 79 1210 79 1210 79 1307 c 2,2,-1
 79 1398 l 1,3,-1
 789 1398 l 1,4,-1
 789 1294 l 2,5,6
 788 1252 788 1252 766 1232 c 0,7,8
 729 1199 729 1199 690 1199 c 2,9,-1
 599 1199 l 2,10,11
 491 1198 491 1198 423 1138 c 0,12,13
 356 1078 356 1078 356 983 c 0,14,15
 356 830 356 830 593 830 c 2,16,-1
 693 830 l 1,17,-1
 693 632 l 1,18,-1
 539 632 l 2,19,20
 371 632 371 632 329 520 c 0,21,22
 316 486 316 486 316 443.5 c 128,-1,23
 316 401 316 401 330.5 369.5 c 128,-1,24
 345 338 345 338 378 312 c 0,25,26
 434 268 434 268 543 228.5 c 128,-1,27
 652 189 652 189 692 164 c 0,28,29
 732 138 732 138 756 108 c 0,30,31
 802 50 802 50 802 -27 c 0,32,33
 802 -174 802 -174 712 -312 c 1,34,-1
 515 -237 l 1,35,36
 567 -162 567 -162 567 -101 c 0,37,38
 567 -17 567 -17 452 13 c 0,39,40
 64 120 64 120 64 419 c 0,41,42
 64 570 64 570 168 675 c 0,43,44
 206 714 206 714 264 742 c 1,45,46
 122 814 122 814 122 965.5 c 128,-1,47
 122 1117 122 1117 290 1210 c 1,48,-1
 184 1210 l 2,0,1
EndSplineSet
Validated: 1
Substitution2: "sous-table 'ss03' Style 3 lookups32" xi.salt
Substitution2: "sous-table 'salt' Alternatives stylistiques lookups28" xi.salt
EndChar

StartChar: xi.salt
Encoding: 1114198 -1 224
Width: 798
GlyphClass: 2
Flags: MW
LayerCount: 2
Fore
SplineSet
287 749 m 1,0,1
 126 823 126 823 126 1018 c 0,2,3
 126 1201 126 1201 255 1301 c 0,4,5
 380 1398 380 1398 597 1398 c 2,6,-1
 804 1398 l 1,7,-1
 804 1294 l 2,8,9
 804 1252 804 1252 782 1232 c 0,10,11
 745 1199 745 1199 705 1199 c 2,12,-1
 605 1199 l 2,13,14
 422 1199 422 1199 374 1088 c 0,15,16
 360 1054 360 1054 360 1015 c 0,17,18
 360 916 360 916 424.5 873 c 128,-1,19
 489 830 489 830 605 830 c 2,20,-1
 706 830 l 1,21,-1
 706 632 l 1,22,-1
 551 632 l 2,23,24
 376 632 376 632 332 520 c 0,25,26
 318 486 318 486 318 443.5 c 128,-1,27
 318 401 318 401 333 369.5 c 128,-1,28
 348 338 348 338 382 312 c 0,29,30
 438 269 438 269 551 229 c 128,-1,31
 664 189 664 189 704.5 163.5 c 128,-1,32
 745 138 745 138 770 108 c 0,33,34
 817 52 817 52 817 -27 c 0,35,36
 817 -171 817 -171 727 -312 c 1,37,-1
 529 -237 l 1,38,39
 582 -160 582 -160 582 -101 c 0,40,41
 582 -18 582 -18 463 13 c 0,42,43
 66 120 66 120 66 419 c 0,44,45
 66 576 66 576 180 682 c 0,46,47
 222 722 222 722 287 749 c 1,0,1
EndSplineSet
Validated: 1
EndChar

StartChar: pi
Encoding: 960 960 225
Width: 1186
GlyphClass: 2
Flags: MW
LayerCount: 2
Fore
SplineSet
966 -8 m 0,0,1
 710 -8 710 -8 710 329 c 0,2,3
 710 383 710 383 720 480 c 0,4,5
 742 682 742 682 749 794 c 1,6,-1
 459 794 l 1,7,8
 451 466 451 466 423.5 333.5 c 128,-1,9
 396 201 396 201 370 143 c 128,-1,10
 344 85 344 85 312 51 c 0,11,12
 256 -9 256 -9 154 -9 c 0,13,14
 90 -9 90 -9 61 17 c 0,15,16
 51 26 51 26 51 39 c 2,17,-1
 51 208 l 1,18,-1
 71 208 l 2,19,20
 215 208 215 208 237 794 c 1,21,-1
 41 794 l 1,22,-1
 41 900 l 2,23,24
 42 956 42 956 96 982 c 0,25,26
 114 990 114 990 136 990 c 2,27,-1
 1149 990 l 1,28,-1
 1149 872 l 2,29,30
 1149 840 1149 840 1129 817 c 128,-1,31
 1109 794 1109 794 1071 794 c 2,32,-1
 954 794 l 1,33,-1
 954 764 l 2,34,35
 954 292 954 292 1008 210 c 0,36,37
 1030 177 1030 177 1075 176 c 2,38,-1
 1121 176 l 1,39,-1
 1121 76 l 2,40,41
 1122 16 1122 16 1026 -2 c 0,42,43
 998 -8 998 -8 966 -8 c 0,0,1
EndSplineSet
Validated: 33
EndChar

StartChar: rho
Encoding: 961 961 226
Width: 1086
GlyphClass: 2
Flags: MW
LayerCount: 2
Fore
SplineSet
610 -15 m 0,0,1
 463 -15 463 -15 358 78 c 1,2,-1
 358 -322 l 1,3,-1
 104 -322 l 1,4,-1
 104 561 l 2,5,6
 104 766 104 766 222 886 c 0,7,8
 344 1010 344 1010 560 1009 c 0,9,10
 756 1008 756 1008 887 874 c 0,11,12
 1025 733 1025 733 1025 500 c 0,13,14
 1025 277 1025 277 912 134 c 0,15,16
 795 -14 795 -14 610 -15 c 0,0,1
763 504 m 0,17,18
 763 811 763 811 560 811 c 0,19,20
 422 811 422 811 374 669 c 0,21,22
 358 622 358 622 358 561 c 2,23,-1
 358 278 l 1,24,25
 432 176 432 176 550 177 c 0,26,27
 702 178 702 178 748 358 c 0,28,29
 764 420 764 420 763 494 c 0,30,31
 763 499 763 499 763 504 c 0,17,18
EndSplineSet
Validated: 33
EndChar

StartChar: sigma
Encoding: 963 963 227
Width: 1115
GlyphClass: 2
Flags: MW
LayerCount: 2
Fore
SplineSet
847 800 m 1,0,1
 957 684 957 684 957 481 c 0,2,3
 957 263 957 263 834 125 c 0,4,5
 709 -15 709 -15 507 -15 c 0,6,7
 504 -15 504 -15 504 -15 c 0,8,9
 303 -16 303 -16 179 118 c 0,10,11
 53 254 53 254 53 486 c 0,12,13
 53 723 53 723 196 858 c 0,14,15
 338 992 338 992 578 992 c 2,16,-1
 1106 992 l 1,17,-1
 1106 871 l 2,18,19
 1106 828 1106 828 1062 807 c 0,20,21
 1048 800 1048 800 1029 800 c 2,22,-1
 847 800 l 1,0,1
316 478 m 0,23,24
 316 179 316 179 506 179 c 0,25,26
 604 179 604 179 650.5 256.5 c 128,-1,27
 697 334 697 334 697 492 c 0,28,29
 697 741 697 741 616 800 c 1,30,-1
 577 800 l 2,31,32
 441 800 441 800 378.5 720.5 c 128,-1,33
 316 641 316 641 316 478 c 0,23,24
EndSplineSet
Validated: 33
EndChar

StartChar: sigma1
Encoding: 962 962 228
Width: 833
GlyphClass: 2
Flags: MW
LayerCount: 2
Fore
SplineSet
514 -236 m 1,0,1
 560 -151 560 -151 560 -107 c 128,-1,2
 560 -63 560 -63 538.5 -34.5 c 128,-1,3
 517 -6 517 -6 463.5 13 c 128,-1,4
 410 32 410 32 358.5 52.5 c 128,-1,5
 307 73 307 73 261.5 101 c 128,-1,6
 216 129 216 129 178 167 c 0,7,8
 139 206 139 206 112 257 c 0,9,10
 55 364 55 364 55 528 c 0,11,12
 55 531 55 531 55 534 c 0,13,14
 55 734 55 734 170 867 c 0,15,16
 293 1009 293 1009 504 1009 c 0,17,18
 701 1009 701 1009 831 867 c 1,19,-1
 764 776 l 1,20,21
 740 745 740 745 716 745 c 128,-1,22
 692 745 692 745 676 756 c 0,23,24
 657 766 657 766 638 780 c 0,25,26
 587 816 587 816 526 816 c 0,27,28
 467 816 467 816 428.5 795 c 128,-1,29
 390 774 390 774 365 738 c 0,30,31
 315 665 315 665 315 565 c 128,-1,32
 315 465 315 465 330.5 412.5 c 128,-1,33
 346 360 346 360 381 325 c 128,-1,34
 416 290 416 290 472 265 c 128,-1,35
 528 240 528 240 609 210 c 1,36,37
 708 167 708 167 751.5 108.5 c 128,-1,38
 795 50 795 50 795 -28 c 0,39,40
 795 -173 795 -173 711 -311 c 1,41,-1
 514 -236 l 1,0,1
EndSplineSet
Validated: 1
EndChar

StartChar: tau
Encoding: 964 964 229
Width: 804
GlyphClass: 2
Flags: MW
LayerCount: 2
Fore
SplineSet
844 890 m 2,0,1
 844 802 844 802 757 802 c 2,2,-1
 491 802 l 1,3,-1
 491 301 l 2,4,5
 491 239 491 239 516 207.5 c 128,-1,6
 541 176 541 176 598 176 c 2,7,-1
 690 176 l 1,8,-1
 690 100 l 2,9,10
 690 50 690 50 628 19 c 0,11,12
 573 -9 573 -9 503 -9 c 128,-1,13
 433 -9 433 -9 384.5 13.5 c 128,-1,14
 336 36 336 36 303 76 c 0,15,16
 237 155 237 155 237 287 c 2,17,-1
 237 802 l 1,18,-1
 -49 802 l 1,19,-1
 -49 909 l 2,20,21
 -49 941 -49 941 -28 965.5 c 128,-1,22
 -7 990 -7 990 36 990 c 2,23,-1
 844 990 l 1,24,-1
 844 890 l 2,0,1
EndSplineSet
Validated: 1
EndChar

StartChar: upsilon
Encoding: 965 965 230
Width: 1123
GlyphClass: 2
Flags: MW
LayerCount: 2
Fore
SplineSet
989 993 m 1,0,1
 1041 671 1041 671 1041 528 c 128,-1,2
 1041 385 1041 385 999.5 282.5 c 128,-1,3
 958 180 958 180 889 114 c 0,4,5
 754 -15 754 -15 546 -15 c 0,6,7
 342 -15 342 -15 228 87 c 0,8,9
 116 187 116 187 116 362 c 2,10,-1
 116 993 l 1,11,-1
 370 993 l 1,12,-1
 370 362 l 2,13,14
 370 233 370 233 484 194 c 0,15,16
 519 182 519 182 561.5 182 c 128,-1,17
 604 182 604 182 646 198 c 0,18,19
 686 214 686 214 720 253 c 0,20,21
 794 338 794 338 795 528 c 0,22,23
 795 615 795 615 773 738 c 128,-1,24
 751 861 751 861 746.5 897 c 128,-1,25
 742 933 742 933 748 949 c 0,26,27
 754 964 754 964 764 974 c 0,28,29
 784 992 784 992 814 993 c 2,30,-1
 989 993 l 1,0,1
EndSplineSet
Validated: 1
EndChar

StartChar: phi
Encoding: 966 966 231
Width: 1432
GlyphClass: 2
Flags: MW
LayerCount: 2
Fore
SplineSet
347 679.5 m 128,-1,1
 311 603 311 603 311 513 c 128,-1,2
 311 423 311 423 330.5 363.5 c 128,-1,3
 350 304 350 304 387 262 c 0,4,5
 464 175 464 175 593 171 c 1,6,-1
 593 673 l 2,7,8
 593 930 593 930 790 990 c 0,9,10
 852 1009 852 1009 940.5 1009 c 128,-1,11
 1029 1009 1029 1009 1111.5 971.5 c 128,-1,12
 1194 934 1194 934 1252 868 c 0,13,14
 1374 731 1374 731 1375 523 c 0,15,16
 1374 280 1374 280 1220 132 c 0,17,18
 1069 -12 1069 -12 831 -15 c 1,19,-1
 831 -321 l 1,20,-1
 593 -321 l 1,21,-1
 593 -14 l 1,22,23
 357 -10 357 -10 208 130 c 0,24,25
 57 272 57 272 57 502 c 0,26,27
 57 761 57 761 262 920 c 0,28,29
 327 970 327 970 403 1002 c 1,30,-1
 469 902 l 1,31,32
 481 881 481 881 481 861 c 0,33,34
 481 837 481 837 463 814 c 0,35,36
 453 802 453 802 444 799 c 0,37,0
 383 756 383 756 347 679.5 c 128,-1,1
831 171 m 1,38,39
 968 174 968 174 1044.5 263.5 c 128,-1,40
 1121 353 1121 353 1121 523 c 0,41,42
 1121 655 1121 655 1057 744 c 0,43,44
 1000 823 1000 823 931 823 c 0,45,46
 930 823 930 823 929 823 c 0,47,48
 887 823 887 823 859 789.5 c 128,-1,49
 831 756 831 756 831 673 c 2,50,-1
 831 171 l 1,38,39
EndSplineSet
Validated: 1
Substitution2: "sous-table 'ss03' Style 3 lookups32" phi.salt
Substitution2: "sous-table 'salt' Alternatives stylistiques lookups28" phi.salt
EndChar

StartChar: phi.salt
Encoding: 1114199 -1 232
Width: 1432
GlyphClass: 2
Flags: MW
LayerCount: 2
Fore
SplineSet
836 1398 m 1,0,-1
 836 1009 l 1,1,2
 1075 1005 1075 1005 1223 869 c 0,3,4
 1375 729 1375 729 1375 499 c 0,5,6
 1375 267 1375 267 1223 126 c 0,7,8
 1074 -13 1074 -13 836 -15 c 1,9,-1
 836 -321 l 1,10,-1
 598 -321 l 1,11,-1
 598 -15 l 1,12,13
 359 -12 359 -12 209 126 c 0,14,15
 57 266 57 266 57 499 c 0,16,17
 57 730 57 730 209 869 c 0,18,19
 360 1007 360 1007 598 1009 c 1,20,-1
 598 1398 l 1,21,-1
 836 1398 l 1,0,-1
479 194 m 0,22,23
 532 172 532 172 598 171 c 1,24,-1
 598 823 l 1,25,26
 466 822 466 822 388 736 c 0,27,28
 311 651 311 651 311 501 c 0,29,30
 311 264 311 264 479 194 c 0,22,23
1121 496 m 0,31,32
 1121 572 1121 572 1101 632.5 c 128,-1,33
 1081 693 1081 693 1044 735 c 0,34,35
 970 819 970 819 836 823 c 1,36,-1
 836 171 l 1,37,38
 968 172 968 172 1044 258 c 0,39,40
 1121 344 1121 344 1121 496 c 0,31,32
EndSplineSet
Validated: 1
EndChar

StartChar: chi
Encoding: 967 967 233
Width: 923
GlyphClass: 2
Flags: MW
LayerCount: 2
Fore
SplineSet
-3 950 m 2,0,1
 -3 1007 -3 1007 90 1007 c 0,2,3
 91 1007 91 1007 93 1007 c 0,4,5
 251 1007 251 1007 330 906 c 0,6,7
 358 870 358 870 380 817 c 1,8,-1
 497 519 l 1,9,10
 503 577 503 577 520 618 c 1,11,-1
 645 948 l 1,12,13
 668 994 668 994 716 994 c 2,14,-1
 899 994 l 1,15,-1
 604 309 l 1,16,-1
 750 -62 l 2,17,18
 770 -113 770 -113 788 -128 c 0,19,20
 820 -155 820 -155 869 -155 c 2,21,-1
 905 -155 l 1,22,-1
 905 -255 l 2,23,24
 905 -307 905 -307 890 -320 c 0,25,26
 867 -340 867 -340 816 -340 c 128,-1,27
 765 -340 765 -340 724 -332 c 128,-1,28
 683 -324 683 -324 647 -302 c 0,29,30
 573 -255 573 -255 526 -134 c 2,31,-1
 413 156 l 1,32,33
 404 97 404 97 389 61 c 1,34,-1
 261 -273 l 1,35,36
 239 -319 239 -319 189 -319 c 2,37,-1
 7 -319 l 1,38,-1
 303 373 l 1,39,-1
 165 723 l 1,40,41
 141 782 141 782 120 797 c 0,42,43
 88 822 88 822 31 822 c 2,44,-1
 -3 822 l 1,45,-1
 -3 950 l 2,0,1
EndSplineSet
Validated: 1
EndChar

StartChar: psi
Encoding: 968 968 234
Width: 1511
GlyphClass: 2
Flags: MW
LayerCount: 2
Fore
SplineSet
644 -10 m 1,0,1
 115 31 115 31 115 487 c 2,2,-1
 115 993 l 1,3,-1
 292 993 l 2,4,5
 293 993 293 993 293 993 c 0,6,7
 336 995 336 995 362 930 c 0,8,9
 368 915 368 915 369 898 c 2,10,-1
 369 487 l 2,11,12
 369 235 369 235 644 192 c 1,13,-1
 644 1398 l 1,14,-1
 898 1398 l 1,15,-1
 898 188 l 1,16,17
 1041 204 1041 204 1108 278 c 0,18,19
 1182 359 1182 359 1182 528 c 0,20,21
 1182 644 1182 644 1166.5 720.5 c 128,-1,22
 1151 797 1151 797 1143.5 833 c 128,-1,23
 1136 869 1136 869 1135 901 c 128,-1,24
 1134 933 1134 933 1140 949 c 0,25,26
 1146 964 1146 964 1156 974 c 0,27,28
 1176 993 1176 993 1205 993 c 2,29,-1
 1388 993 l 1,30,31
 1436 722 1436 722 1436 553.5 c 128,-1,32
 1436 385 1436 385 1394 287 c 0,33,34
 1352 188 1352 188 1280 126 c 0,35,36
 1149 13 1149 13 898 -9 c 1,37,-1
 898 -321 l 1,38,-1
 644 -321 l 1,39,-1
 644 -10 l 1,0,1
EndSplineSet
Validated: 33
EndChar

StartChar: omega
Encoding: 969 969 235
Width: 1470
GlyphClass: 2
Flags: MW
LayerCount: 2
Fore
SplineSet
178 993 m 1,0,-1
 361 993 l 2,1,2
 395 992 395 992 411 974 c 0,3,4
 425 958 425 958 425 929 c 0,5,6
 425 909 425 909 419 884 c 0,7,8
 416 870 416 870 400 832 c 0,9,10
 385 791 385 791 367 740 c 0,11,12
 320 604 320 604 320 508 c 0,13,14
 320 411 320 411 334 348 c 0,15,16
 349 281 349 281 372 246 c 0,17,18
 414 182 414 182 478 182 c 0,19,20
 479 182 479 182 480 182 c 0,21,22
 608 182 608 182 608 442 c 2,23,-1
 608 669 l 1,24,-1
 862 669 l 1,25,-1
 862 431 l 2,26,27
 862 182 862 182 990 182 c 0,28,29
 1098 182 1098 182 1134 348 c 0,30,31
 1148 412 1148 412 1148 490 c 0,32,33
 1149 493 1149 493 1149 495 c 0,34,35
 1149 570 1149 570 1134 628 c 0,36,37
 1118 694 1118 694 1102 740 c 0,38,39
 1074 823 1074 823 1070 832 c 0,40,41
 1040 906 1040 906 1040 931 c 0,42,43
 1040 952 1040 952 1054 968 c 0,44,45
 1075 992 1075 992 1109 993 c 2,46,-1
 1293 993 l 1,47,48
 1404 749 1404 749 1404 513 c 0,49,50
 1404 280 1404 280 1303 134 c 0,51,52
 1199 -15 1199 -15 1013.5 -15 c 128,-1,53
 828 -15 828 -15 734 138 c 1,54,55
 637 -15 637 -15 448 -15 c 0,56,57
 447 -15 447 -15 446 -15 c 0,58,59
 272 -16 272 -16 168 134 c 0,60,61
 66 281 66 281 66 515 c 0,62,63
 66 751 66 751 178 993 c 1,0,-1
EndSplineSet
Validated: 33
EndChar

StartChar: tonos
Encoding: 900 900 236
Width: 649
GlyphClass: 2
Flags: MW
LayerCount: 2
Fore
SplineSet
249 1102 m 1,0,-1
 301 1462 l 1,1,-1
 457 1462 l 2,2,3
 492 1462 492 1462 505 1440 c 128,-1,4
 518 1418 518 1418 504 1383 c 2,5,-1
 395 1102 l 1,6,-1
 249 1102 l 1,0,-1
EndSplineSet
Validated: 1
EndChar

StartChar: dieresistonos
Encoding: 901 901 237
Width: 1012
GlyphClass: 2
Flags: MW
LayerCount: 2
Fore
SplineSet
427 1110 m 1,0,-1
 480 1470 l 1,1,-1
 636 1470 l 2,2,3
 671 1470 671 1470 684 1448 c 128,-1,4
 697 1426 697 1426 683 1391 c 2,5,-1
 574 1110 l 1,6,-1
 427 1110 l 1,0,-1
917 1297.5 m 128,-1,8
 926 1277 926 1277 926 1253.5 c 128,-1,9
 926 1230 926 1230 917 1210.5 c 128,-1,10
 908 1191 908 1191 892 1176 c 0,11,12
 859 1144 859 1144 813 1144 c 256,13,14
 741 1144 741 1144 710 1210 c 0,15,16
 701 1230 701 1230 701 1253.5 c 128,-1,17
 701 1277 701 1277 710 1297.5 c 128,-1,18
 719 1318 719 1318 734 1333 c 0,19,20
 767 1366 767 1366 813 1366 c 256,21,22
 858 1366 858 1366 883 1342 c 128,-1,7
 908 1318 908 1318 917 1297.5 c 128,-1,8
382 1297.5 m 128,-1,24
 391 1277 391 1277 391 1253.5 c 128,-1,25
 391 1230 391 1230 382 1210 c 0,26,27
 374 1191 374 1191 358 1176 c 0,28,29
 324 1144 324 1144 277 1144 c 256,30,31
 206 1144 206 1144 175 1210 c 0,32,33
 166 1230 166 1230 166 1253.5 c 128,-1,34
 166 1277 166 1277 175 1297.5 c 128,-1,35
 184 1318 184 1318 199 1333 c 0,36,37
 232 1366 232 1366 277 1366 c 256,38,39
 323 1366 323 1366 348 1342 c 128,-1,23
 373 1318 373 1318 382 1297.5 c 128,-1,24
EndSplineSet
Validated: 1
EndChar

StartChar: uni0374
Encoding: 884 884 238
Width: 528
GlyphClass: 2
Flags: MW
LayerCount: 2
Fore
SplineSet
162 1401 m 2,0,1
 162 1466 162 1466 228 1466 c 2,2,-1
 387 1466 l 1,3,4
 405 1390 405 1390 405 1317 c 0,5,6
 405 1231 405 1231 380 1148 c 0,7,8
 335 993 335 993 210 863 c 1,9,-1
 130 912 l 2,10,11
 107 926 107 926 105 946 c 0,12,13
 102 967 102 967 122 993 c 0,14,15
 181 1070 181 1070 192 1110 c 0,16,17
 201 1146 201 1146 201 1185 c 128,-1,18
 201 1224 201 1224 162 1282 c 1,19,-1
 162 1401 l 2,0,1
EndSplineSet
Validated: 1
EndChar

StartChar: uni0411
Encoding: 1041 1041 240
Width: 1138
GlyphClass: 2
Flags: MW
LayerCount: 2
Fore
SplineSet
993 1126 m 1,0,-1
 380 1126 l 1,1,-1
 380 784 l 1,2,-1
 568 784 l 2,3,4
 807 784 807 784 930 676 c 0,5,6
 1039 580 1039 580 1039 415 c 0,7,8
 1039 225 1039 225 916 114 c 0,9,10
 790 0 790 0 568 0 c 2,11,-1
 117 0 l 1,12,-1
 117 1328 l 1,13,-1
 993 1328 l 1,14,-1
 993 1126 l 1,0,-1
568 204 m 2,15,16
 780 204 780 204 780 391 c 0,17,18
 780 530 780 530 671 566 c 0,19,20
 630 580 630 580 568 580 c 2,21,-1
 380 580 l 1,22,-1
 380 204 l 1,23,-1
 568 204 l 2,15,16
EndSplineSet
Validated: 1
Position2: "sous-table 'cpsp' Chasses pour composition en capitales lookups0" dx=40 dy=0 dh=80 dv=0
EndChar

StartChar: uni0413
Encoding: 1043 1043 241
Width: 885
GlyphClass: 2
Flags: MW
LayerCount: 2
Fore
SplineSet
839 1127 m 1,0,-1
 365 1127 l 1,1,-1
 365 0 l 1,2,-1
 101 0 l 1,3,-1
 101 1328 l 1,4,-1
 839 1328 l 1,5,-1
 839 1127 l 1,0,-1
EndSplineSet
Validated: 1
Position2: "sous-table 'cpsp' Chasses pour composition en capitales lookups0" dx=40 dy=0 dh=80 dv=0
EndChar

